<?xml version="1.0" encoding="UTF-8"?>
<svg xmlns="http://www.w3.org/2000/svg" viewBox="0 0 548.01 709.46">
  <defs>
    <style>
      .cls-1 {
        fill: #231f20;
      }

      .cls-1, .cls-2, .cls-3, .cls-4 {
        stroke-width: 0px;
      }

      .cls-2 {
        fill: #686868;
      }

      .cls-3 {
        fill: #d58ebe;
      }

      .cls-4 {
        fill: #fff;
      }
    </style>
  </defs>
  <g id="Layer_12" data-name="Layer 12">
    <polygon class="cls-3" points="480.89 217.61 507.23 234.47 525.25 283.5 503.56 312.84 453.69 317.25 420.8 303.52 407.12 262.93 411.81 238.38 447.32 213.17 452.93 211.51 480.89 217.61"/>
    <polygon class="cls-4" points="484.27 317.25 517.86 311.79 519.14 344.9 482.48 360.67 457.1 363.08 440.37 355.59 433.41 333.45 435.8 320.05 456.14 320.83 468.03 321.11 484.27 317.25"/>
    <path class="cls-2" d="M477.61,212.31c-8.66,3.26-18.44,9.1-16.44,19.97,2.11,11.51,14.35,11.06,22.68,7.01l-8.21-8.21c-6.64,10.36,2.31,22.33,13.27,23.71,11.93,1.5,20.63-7.96,21.84-19.16.83-7.67-11.18-7.61-12,0-.4,3.68-3.25,7.12-7.06,7.34-2.97.18-7.92-2.35-5.69-5.84,3.47-5.42-3.17-10.66-8.21-8.21-1.78.87-5.35,2.85-4.56-.28.64-2.56,5.52-4,7.57-4.77,7.16-2.7,4.06-14.3-3.19-11.57h0Z"/>
    <path class="cls-2" d="M449.7,271.82c-4.11-2.07-5.41-7.11-1.38-10.12,3.62-2.69,8.85-.85,10.55,3.24s6.57,6.21,10.03,2.65c4.46-4.59,11.27.97,13.69,5.21,1.87,3.27-1.81,3.45-4.54,3.62-3.38.21-7.3-.13-9.62,2.88s-.88,5.79-2.03,8.92c-.68,1.83-3.84,6.36-6.16,6.46-2.52.11-5.74-3.25-7.19-4.98-2.33-2.78-3.4-6.01-1.34-9.25,4.15-6.54-6.23-12.57-10.36-6.06-7.46,11.75,1.46,26.13,13.05,30.95,6.02,2.51,11.94.83,16.61-3.56,2.24-2.11,4.33-4.8,5.76-7.51.88-1.67,1.5-3.43,1.85-5.27.25-1.34-.16-3.29.32-4.47l-4.19,4.19c3.54-1.05,7.35-.32,10.94-1.57,2.92-1.02,5.57-2.79,7.39-5.32,3.95-5.5,2.38-11.83-1.44-16.94-7.26-9.7-21.4-15.89-31.21-5.8l10.03,2.65c-4.84-11.64-18.57-17.78-29.43-9.53s-9.06,24.07,2.63,29.96c6.88,3.46,12.96-6.89,6.06-10.36h0Z"/>
    <path class="cls-2" d="M503.63,258.78c-.06.03-.11.06-.17.09-.41.24-.98.71-1.33,1.02-.28.25-.46.53-.71.85s-.49.59-.67.94c-.27.54-.56,1.15-.7,1.75-.09.37-.21,1.31-.23,1.69,0,.08,0,.15,0,.23.01.45.12,1.25.23,1.68.01.06.03.11.05.17l.6,1.43.04.08c.16.27.38.52.57.76s.34.48.55.69c.28.27.97.81,1.3,1.01.04.03.09.04.13.06.38.21,1.09.5,1.5.63.59.18,1.24.24,1.86.24.28,0,.85-.11.91-.12.18-.02.66-.06.95-.14.05-.01.1-.04.14-.05.43-.16,1.1-.41,1.5-.64.26-.15.51-.38.73-.55.1-.08.5-.35.69-.54s.41-.52.54-.69c.18-.23.39-.46.54-.72.18-.32.53-1.14.63-1.5.01-.04.02-.09.03-.13.11-.45.22-1.24.21-1.7,0-.41-.14-1.31-.24-1.71-.19-.78-.54-1.46-1.07-2.04-.42-.65-.98-1.17-1.68-1.55-.69-.44-1.43-.68-2.23-.71-.8-.18-1.6-.14-2.39.11-1.45.47-2.85,1.37-3.59,2.76s-1.01,3.01-.6,4.62l.02.07-.21-1.6s.01.09,0,.14l.21-1.6c-.01.07-.03.13-.05.2l.6-1.43s-.04.08-.07.12l.94-1.21c-.05.06-.1.1-.15.15l1.21-.94c-.06.04-.12.08-.19.11l1.43-.6c-.1.04-.19.07-.29.09l1.6-.21c-.1.01-.2.01-.3,0l1.6.21s-.1-.02-.14-.04l1.43.6c-.07-.03-.13-.06-.19-.11l1.21.94s-.08-.07-.11-.11l.94,1.21c-.06-.08-.1-.15-.14-.24l.6,1.43c-.03-.09-.05-.17-.06-.26l.21,1.6c0-.09,0-.18,0-.27l-.21,1.6c.02-.13.06-.24.1-.36l-.6,1.43c.06-.12.12-.22.2-.33l-.94,1.21c.08-.1.17-.19.27-.27l-1.21.94c.08-.06.16-.1.25-.15.7-.38,1.26-.89,1.68-1.55.53-.58.89-1.26,1.07-2.04.25-.8.29-1.6.11-2.39-.04-.8-.27-1.54-.71-2.23-.83-1.28-2.06-2.41-3.59-2.76l-1.6-.21c-1.08,0-2.09.28-3.03.82h0Z"/>
    <path class="cls-2" d="M493.54,311.86c-1.09-3.68-.46-7.66,2.72-10.14,2.76-2.15,7.59-2.94,9.47.51,3.69,6.79,14.05.74,10.36-6.06-4.89-8.99-16.51-10.29-24.9-5.43-8.46,4.9-11.97,15.1-9.23,24.3,2.2,7.38,13.78,4.24,11.57-3.19h0Z"/>
    <path class="cls-2" d="M425.93,276.27c-1.6.2-1.94.18-3.38.91-.58.3-1.12.72-1.57,1.19s-.89.99-1.17,1.58c-.25.52-.53,1.07-.66,1.64-.29,1.06-.29,2.13,0,3.19.19.78.54,1.46,1.07,2.04.64.83.7.94,1.78,1.64.28.18.54.26.89.4.93.39,1.53.63,2.67.59.57-.02,1.39-.14,1.76-.22.33-.08.56-.21.91-.35.91-.38,1.51-.66,2.25-1.47.59-.54,1-1.19,1.24-1.93.38-.72.55-1.49.52-2.31.03-.83-.14-1.6-.52-2.31-.24-.74-.66-1.39-1.24-1.93l-1.21-.94c-.94-.54-1.95-.82-3.03-.82l-1.6.21c-1.02.29-1.9.8-2.65,1.54-.03.03-.06.07-.09.09l1.21-.94c-.07.05-.14.1-.23.13l1.43-.6c-.06.02-.13.04-.19.05l1.6-.21c-.09.01-.18.01-.27,0l1.6.21c-.09-.01-.17-.04-.26-.07l1.43.6c-.06-.03-.11-.06-.17-.1l1.21.94s-.07-.06-.1-.09l1.54,5.84c.01-.07.03-.14.06-.21l-.6,1.43c.04-.09.09-.17.14-.25l-.94,1.21c.06-.08.13-.15.2-.21l-1.21.94c.1-.08.2-.14.31-.18l-1.43.6c.07-.02.14-.04.21-.06l-1.6.21h.07c.83.02,1.6-.15,2.31-.53.74-.24,1.39-.66,1.93-1.24.59-.54,1-1.19,1.24-1.93.38-.72.55-1.49.52-2.31l-.21-1.6c-.29-1.02-.8-1.9-1.54-2.65l-1.21-.94c-.94-.54-1.95-.82-3.03-.82h0Z"/>
    <path class="cls-2" d="M408.11,256.31c12.48,10.91,33.89-4.31,32.83-19.31l-9.03,5.18c13.8,8.55,26.74-11.95,19.26-23.59-4.16-6.48-14.55-.47-10.36,6.06.98,1.53,1.1,2.86.34,4.54-.46,1.01-2.15,3.28-3.18,2.64-3.69-2.29-9.35.63-9.03,5.18.25,3.45-1.77,5.87-4.37,7.94-1.67,1.34-5.88,4.71-7.98,2.88-5.79-5.06-14.31,3.39-8.49,8.49h0Z"/>
    <path class="cls-2" d="M436.21,309.75c7.72,0,7.73-12,0-12s-7.73,12,0,12h0Z"/>
  </g>
  <g id="Layer_11" data-name="Layer 11">
    <path class="cls-1" d="M450.96,311.65c-10.69-2.77-21.63-7.35-29.28-15.6-8.06-8.7-9.11-20.31-9.29-31.61s2.16-22.07,10.4-30.8c6.37-6.75,14.61-11.49,23.52-14.01,19.11-5.39,38.77.15,52.55,14.38s23.06,38.75,15.55,57.97c-9.36,23.97-42.51,26.14-63.45,19.67-7.4-2.28-10.56,9.3-3.19,11.57,23.95,7.4,54.72,4.37,71.4-16.21,17.09-21.09,9.39-54.25-5.73-74.27-15.13-20.03-38.81-30.36-63.73-26.17s-46.13,22.33-48.91,47.51c-1.67,15.14-.55,33.01,8.61,45.76,8.99,12.51,23.78,19.61,38.36,23.38,7.48,1.94,10.67-9.63,3.19-11.57h0Z"/>
    <path class="cls-1" d="M399.8,201.37c-5.26,7.48-8.51,17.28-3.23,25.67,2.26,3.59,5.7,6.11,9.86,6.94,4.87.97,9.48.19,11.21,5.99,2.2,7.39,13.78,4.24,11.57-3.19-2.2-7.41-8.15-13.11-15.96-14.13-3.57-.47-6.77,0-7.43-4.4-.58-3.93,2.22-7.81,4.33-10.82,4.45-6.33-5.95-12.33-10.36-6.06h0Z"/>
    <path class="cls-1" d="M418.53,200.79c7.72,0,7.73-12,0-12s-7.73,12,0,12h0Z"/>
    <path class="cls-1" d="M472.37,207.92c.18-.85.4-1.68.72-2.49.34-.89-.37.69.09-.15.23-.42.45-.85.71-1.26.2-.32.42-.65.65-.96-.38.51-.09.13.15-.13.68-.7,1.36-1.34,2.12-1.94,2.48-1.95,2.19-6.47,0-8.49-2.63-2.41-5.84-2.08-8.49,0-3.8,2.99-6.5,7.5-7.53,12.21-.67,3.06.91,6.63,4.19,7.38,3.03.69,6.67-.91,7.38-4.19h0Z"/>
    <path class="cls-1" d="M485.07,194.04c7.72,0,7.73-12,0-12s-7.73,12,0,12h0Z"/>
    <path class="cls-1" d="M437.51,310.98c-7.97-4.61-17.82-8.62-27.12-5.89-8.8,2.58-16.27,12.14-13.62,21.55,2.83,10.05,15.25,10.42,23.56,8.16,9.14-2.48,16.93-8.76,21.4-17.08,3.66-6.8-6.7-12.87-10.36-6.06-2.27,4.22-5.44,7.56-9.71,9.81-2.23,1.17-11.39,4.7-13.36,1.83-.95-1.39,1.53-4.25,2.41-5.03,1.71-1.5,3.81-2.01,6.04-2.05,5.22-.09,10.3,2.57,14.7,5.11,6.7,3.87,12.75-6.5,6.06-10.36h0Z"/>
    <path class="cls-1" d="M436.37,313.21c-3.88,7.6-6.39,15.57-7.35,24.06-.77,6.85-1.43,16.4,2.15,22.59,3.96,6.84,14.48,8.2,21.59,8.9,8.48.84,17.07-.21,25.39-1.85,13.77-2.72,31.04-5.92,41.84-15.6,13.02-11.67,8.64-29.27,2.81-43.36-2.91-7.03-14.53-3.95-11.57,3.19,4.11,9.93,9.9,23.86-.22,32.13-8.08,6.6-20.89,8.62-30.74,10.91-6.17,1.44-12.41,2.6-18.75,2.82-3.23.12-6.48.06-9.68-.38-2.55-.35-7.31-.74-9.41-2.36-3.44-2.64-1.92-12.99-1.39-17.01.81-6.28,2.84-12.38,5.71-18,3.5-6.87-6.85-12.95-10.36-6.06h0Z"/>
    <path class="cls-1" d="M430.24,353.97c-9.04,8.27-15.24,19.13-17.68,31.14l5.79-4.4c-2.87-.31-5.61-1.15-8.2-2.41-6.91-3.37-13,6.98-6.06,10.36,4.61,2.25,9.16,3.5,14.25,4.05,2.44.26,5.3-2.04,5.79-4.4,2.07-10.16,6.94-18.85,14.6-25.85,5.71-5.22-2.79-13.69-8.49-8.49h0Z"/>
    <path class="cls-1" d="M511.07,343.8c-3.63,6.63-6.97,13.43-10.83,19.94-1.46,2.47-3.32,7.15-5.7,8.69,1.55-.29,1.24-.45-.93-.46l-1.87-.21c-2.49-.27-4.98-.55-7.47-.82-7.67-.84-7.61,11.16,0,12,4.36.48,9.88,2.08,14.17,1,3.98-1.01,6.29-5.08,8.45-8.26,5.56-8.18,9.8-17.17,14.54-25.82,3.71-6.78-6.65-12.84-10.36-6.06h0Z"/>
    <path class="cls-1" d="M520.14,313.23c34.04-19.87,31.07-67.62,21.44-100.34-4.92-16.71-13.63-32-27.5-42.82-12.51-9.77-27.38-15.55-42.22-20.79-21.78-7.69-82.26-26.02-58.99-59.89,4.84-7.04,12.63-12.89,20.95-15.01,7.19-1.83,15.58.17,17.82,8.08s-6.03,10.43-12.12,8.8c-6.65-1.77-11.24-7.59-13.9-13.63-3.3-7.49-4.32-15.96-4.44-24.06-.12-7.58.16-17.16,5.51-23.14,6.45-7.21,18.53-3.81,26.98-6.16s15.18-8.19,16.22-17.27c.83-7.26-9.52-7.34-11.79-1.6-2.04,5.16-5.64,9.5-10.21,12.6-2.84,1.92-4.48,6.87-1.21,9.42,5.95,4.66,12.35,7.98,19.78,9.61s10.74-9.89,3.19-11.57c-9.45-2.11-17.31-9.84-18.35-19.73-.8-7.6-12.81-7.68-12,0,1.6,15.08,12.11,27.94,27.16,31.3l3.19-11.57c-5.27-1.15-10.21-3.17-14.49-6.52l-1.21,9.42c7.35-4.98,12.47-11.53,15.73-19.77l-11.79-1.6c-.94,8.16-17.94,6.56-23.05,7.2-8.95,1.13-16.63,5.52-20.86,13.7-7.41,14.33-6.13,35.05-1.06,49.95s19.66,30.28,37.29,24.93c18.51-5.62,16.91-29.8,1.41-38.12-17.75-9.53-39.81,4.39-49.53,19.31-11.36,17.45-5.12,37.3,9.98,50.07,27.75,23.47,67.94,23.27,95.73,46.26,17.51,14.48,24.13,36.94,26.89,58.72,2.87,22.65,1.5,50.95-20.6,63.85-6.67,3.89-.63,14.27,6.06,10.36h0Z"/>
    <path class="cls-1" d="M437.59,315.04c-25.2,34.64-68.57,54.19-111.09,52.57-10.59-.4-21.08-2.18-31.2-5.35-8.47-2.65-23.72-7.92-24.93-18.5-.55-4.85,5.31-3.57,8.71-3.21,4.66.5,8.88,3.39,4.42,7.81-3.82,3.78-11.2,4.24-16.25,4.45-5.79.25-11.54-.32-17.17-1.65-51.77-12.22-74.81-67.37-109.95-101.39-17.94-17.36-39.86-31.62-63.48-39.89-11.31-3.96-24.96-5.98-35.85.33-8.3,4.81-14.59,14.43-13.93,24.23.8,11.93,15.09,23.42,24.97,12.38,4.52-5.04,5.02-12.75,4.56-19.15-.51-7.21-1.69-14.49-2.93-21.6-4.36-24.96-17.49-53.82-45.69-57.83-6.05-.86-11.39,7.78-4.62,10.97s13.88,5.92,21.17,7.97c3.99,1.12,7.3-1.97,7.6-5.79.54-7.02.03-13.89-1.26-20.81s-12.03-5.11-11.79,1.6c.33,9.09,3.52,17.01,9.35,23.96,2.74,3.26,7.33,1.59,9.42-1.21,3.33-4.46,6.67-8.92,10-13.39,4.62-6.19-5.79-12.18-10.36-6.06-3.33,4.46-6.67,8.92-10,13.39l9.42-1.21c-3.71-4.41-5.63-9.74-5.84-15.47l-11.79,1.6c1.1,5.85,1.29,11.69.84,17.62l7.6-5.79c-6.3-1.77-12.39-3.97-18.31-6.76l-4.62,10.97c27.04,3.85,35.07,33.4,38.4,56.34.88,6.03,2.29,12.62,1.29,18.7-.39,2.36-.82,5.33-3.46,3.5-1.8-1.24-2.18-4.4-1.97-6.36,1.4-12.61,15.88-15.11,25.98-13.02,12.71,2.62,24.98,9.07,36.03,15.68s21.46,14.56,30.79,23.59c19.13,18.52,33.54,41.13,50.95,61.15,16.24,18.68,36.3,35.31,60.47,42.31,11.37,3.3,23.61,4.19,35.24,1.76,10.84-2.27,22.37-11.35,18.48-23.8-3.29-10.5-17.39-12.64-26.75-10.92-11.39,2.1-13.77,13.61-9.59,23.02,4.75,10.68,16.49,16.6,26.9,20.45s21.12,5.91,31.98,6.92c49.25,4.59,99.57-18.1,128.63-58.04,4.55-6.25-5.86-12.25-10.36-6.06h0Z"/>
  </g>
</svg>