<?xml version="1.0" encoding="UTF-8"?>
<svg xmlns="http://www.w3.org/2000/svg" viewBox="0 0 548.01 709.46">
  <defs>
    <style>
      .cls-1 {
        fill: #755444;
      }

      .cls-1, .cls-2, .cls-3, .cls-4, .cls-5, .cls-6, .cls-7, .cls-8, .cls-9, .cls-10 {
        stroke-width: 0px;
      }

      .cls-2 {
        fill: #3f1837;
      }

      .cls-3 {
        fill: #f4d08f;
      }

      .cls-4 {
        fill: #e5e5e5;
      }

      .cls-5 {
        fill: #010101;
      }

      .cls-6 {
        fill: #303030;
      }

      .cls-7 {
        fill: #fff;
      }

      .cls-8 {
        fill: #563a2e;
      }

      .cls-9 {
        fill: #c12026;
      }

      .cls-10 {
        fill: #d99c4b;
      }
    </style>
  </defs>
  <g id="Layer_15" data-name="Layer 15">
    <polygon class="cls-7" points="351.36 200.02 274.54 211.17 267.35 213.55 186.48 200.02 186.48 84.4 351.36 84.4 351.36 200.02"/>
  </g>
  <g id="Layer_14" data-name="Layer 14">
    <polygon class="cls-8" points="221.34 186.5 260.36 205.28 267.35 213.55 224.58 215.91 186.48 197.99 166.86 169.1 159.73 115.4 176.67 74.52 211.63 46.05 275.22 27.86 331.69 40.28 366.78 60.11 389.14 107.62 385.49 148.85 367.14 179.81 336.76 205.28 286.46 215.93 272.44 213.88 313.16 186.5 345.23 176 346.95 162.97 333.66 152.71 327.06 130.15 310.86 107.62 248.43 98.96 217.51 126.18 213.48 153.4 200.88 160.64 200.12 176.32 221.34 186.5"/>
    <polygon class="cls-8" points="270.99 166.85 260.71 179.81 243.73 175.8 243.43 166.62 261.64 160.83 270.99 166.85"/>
    <polygon class="cls-8" points="298.27 163.49 287.99 176.45 271.01 172.44 270.71 163.26 288.93 157.47 298.27 163.49"/>
    <polygon class="cls-9" points="314.07 12.7 381.13 30.31 417.72 57.21 422.01 73.78 402.67 76.13 384.65 87.62 356.12 52.55 327.8 38.95 282.1 29.38 214.31 42.5 212.26 27.86 257.21 13.85 314.07 12.7"/>
    <polygon class="cls-4" points="356.54 300.54 317.28 315.97 248.43 316.54 208.61 302.37 224.58 215.91 263.28 215.93 279.36 215.93 337.37 207.91 352.6 262.23 356.54 300.54"/>
    <polygon class="cls-10" points="433.99 124.89 403.78 119.39 400.21 104.6 429.1 83.71 477.08 70.89 519.91 75.79 523.32 87.43 514.03 100.56 498.94 107.62 433.99 124.89"/>
    <polygon class="cls-2" points="153.27 369.63 135.83 360.07 101.65 374.16 94.39 363.81 133.12 344.42 137.89 333.62 198.51 303.8 213.67 302.66 230.88 313.87 227.69 333.06 206.37 345.85 153.27 369.63"/>
    <polygon class="cls-3" points="214.66 341.76 186.48 354.56 181.05 332.18 166.86 320.96 194.32 309.81 214.66 341.76"/>
    <path class="cls-6" d="M222.78,225.42s53.88,28.93,117-5.62,0,0,0,0l6.73,25.61s-63.55,35.12-131.05,5.55,0,0,0,0l7.01-19.4"/>
    <path class="cls-6" d="M213.02,278.48s59.71,34.19,138.95-4.21,0,0,0,0l3.49,25.08s-65.62,34.87-143.45,5.29c-77.83-29.58,0,0,0,0l2.65-23.82"/>
  </g>
  <g id="Layer_16" data-name="Layer 16">
    <path class="cls-1" d="M366.27,63.72c-9.85-2.54-21.26,3.12-24.83,12.85-4.18,11.39,6.89,17.88,16.7,18.37l-1.51-5.59c-8.97,4.05-11.54,15.52-5.46,23.17,6.65,8.38,18.04,7.77,25.86,1.51,3.01-2.41-1.26-6.63-4.24-4.24-5.06,4.05-12.55,4.4-16.84-.95-4.05-5.05-1.98-11.73,3.72-14.31,2.91-1.31,1.19-5.45-1.51-5.59-7.47-.38-15.22-5.31-9.39-13.24,3.66-4.99,9.84-7.77,15.93-6.2,3.74.97,5.34-4.82,1.6-5.79h0Z"/>
    <path class="cls-1" d="M367.86,126.34c-.55.38-.98.74-1.31,1.34-.15.26-.28.58-.36.87-.04.15-.06.38-.07.48-.02.13-.06.35-.06.51,0,.31.05.66.12.96s.21.6.35.87.36.55.57.77.49.42.75.6c.34.22.72.34,1.12.36.4.09.8.07,1.2-.05.7-.19,1.45-.73,1.79-1.38.37-.7.55-1.54.3-2.31l-.3-.72c-.27-.45-.63-.81-1.08-1.08l-.05-.03.61.47s-.08-.07-.11-.12l.47.61s-.06-.09-.08-.14l.3.72c-.03-.07-.05-.14-.06-.21l.11.8c0-.08,0-.15,0-.22l-.11.8c.01-.07.03-.14.06-.21l-.3.72c.02-.05.05-.09.08-.14l-.47.61s.07-.08.12-.12l-.61.47.05-.03c.65-.45,1.16-1.01,1.38-1.79.2-.72.11-1.67-.3-2.31s-1.03-1.2-1.79-1.38-1.65-.15-2.31.3h0Z"/>
    <path class="cls-1" d="M385.6,140.55c-6.59-3.14-15.01-1.24-18.75,5.36-3.71,6.55-.86,14.91,5.26,18.78,3.27,2.07,6.29-3.12,3.03-5.18-8.33-5.27-1.54-18.05,7.44-13.78,3.47,1.65,6.52-3.52,3.03-5.18h0Z"/>
    <path class="cls-1" d="M334.38,129.74c5.94-3.73,12.01,3.41,13.45,8.76,1.96,7.27-5.39,7.95-10.6,7.95-3.86,0-3.87,6,0,6,9.39,0,19.59-4.16,16.38-15.55-2.57-9.13-12.76-18.31-22.27-12.34-3.26,2.05-.25,7.24,3.03,5.18h0Z"/>
    <path class="cls-1" d="M308.32,193.1c2.46,2.18,3.08,5.69.94,8.35-1.94,2.41-3.88,3.86-3.99,7.18-.13,3.86,5.87,3.86,6,0,.05-1.54,2.73-3.3,3.53-4.57,1.01-1.6,1.6-3.46,1.73-5.35.26-3.75-1.15-7.36-3.97-9.85s-7.14,1.68-4.24,4.24h0Z"/>
    <path class="cls-1" d="M325.6,182c-2.55,3.53-1.63,8.3,1.11,11.45,3.02,3.49,7.97,4.54,12.33,3.34,9.78-2.69,12.35-15.27,4.92-21.96-2.86-2.58-7.12,1.65-4.24,4.24,3.73,3.36,3.57,9.61-1.45,11.65-3.39,1.38-10.74-1.2-7.49-5.7,2.27-3.13-2.94-6.13-5.18-3.03h0Z"/>
    <path class="cls-1" d="M353.93,173.68c3.86,0,3.87-6,0-6s-3.87,6,0,6h0Z"/>
    <path class="cls-1" d="M250.55,66.73c-6.71-4.1-13.29-16.66-3.18-21.48,10.76-5.14,16.53,9.07,16.37,17.14-.04,2.09,2.65,3.98,4.51,2.59,6.56-4.91,15.05-9.52,23.26-5.68,4.77,2.23,8.18,7.42,3.61,11.81-3.54,3.39-9.14,4.81-13.87,5.27-3.81.38-3.85,6.38,0,6,11.14-1.1,29.76-9.98,19.21-23.52-9.14-11.74-25.33-6.48-35.24.94l4.51,2.59c.15-7.52-1.94-15.42-8.14-20.21-4.78-3.69-11.76-5.06-17.26-2.12s-8.41,9.15-8.07,15.19c.41,7.23,5.32,13.03,11.26,16.66,3.3,2.02,6.32-3.17,3.03-5.18h0Z"/>
    <path class="cls-1" d="M248.54,69.04c-10.24-2.87-25.43,10.01-19.92,20.92,5.15,10.18,22.94,6.82,29.58.46,2.79-2.68-1.45-6.91-4.24-4.24-4.04,3.87-12.01,5.37-17.3,3.24-8.65-3.48,3.45-16.5,10.28-14.58,3.72,1.04,5.31-4.74,1.6-5.79h0Z"/>
    <path class="cls-1" d="M253.24,90.51c1.41,3.91,3.85,7.08,7.27,9.45,1.33.92,3.33.25,4.1-1.08.87-1.49.26-3.18-1.08-4.1-2.06-1.42-3.66-3.5-4.51-5.86-.55-1.52-2.04-2.55-3.69-2.1-1.47.4-2.65,2.16-2.1,3.69h0Z"/>
    <path class="cls-1" d="M279.39,82.8c2.53,3.74,3.59,8.02,2.71,12.48-.74,3.77,5.04,5.39,5.79,1.6,1.18-6.01.14-12.01-3.32-17.11-2.15-3.18-7.36-.18-5.18,3.03h0Z"/>
    <path class="cls-1" d="M316.36,80.56c-.03-4.82,5.6-1.61,6.82.4,1.42,2.35,1.82,5.64.62,8.15-2.31,4.81-9.96,1-12.54,6.81-1.56,3.5,3.61,6.55,5.18,3.03.79-1.77,7.25-1.65,9.15-2.87,1.59-1.03,2.78-2.58,3.6-4.27,2.01-4.18,1.6-9.31-.55-13.35s-6.02-6.99-10.63-6.39c-4.37.57-7.68,4.07-7.65,8.48.02,3.86,6.02,3.87,6,0h0Z"/>
    <path class="cls-1" d="M332.82,101.03c-1.66.13-3.07.89-3.94,2.35-.71,1.2-.93,2.75-.54,4.1.45,1.55,1.74,2.83,3.34,3.16s3.33-.22,4.52-1.41,1.76-2.88,1.38-4.51-1.61-2.83-3.16-3.27c-1.33-.38-2.86-.18-4.05.52-1.47.85-2.18,2.23-2.35,3.88s1.49,3.07,3,3c1.76-.08,2.83-1.32,3-3,0,.03-.13.78-.03.39,0,.03-.31.71-.12.37-.02.03-.48.59-.2.31-.54.55-.46.32-.21.2.32-.15-.67.27-.33.14.12-.05.47-.08-.06-.02-.78.09.68.09-.11,0-.61-.07.17.15-.37-.1-.27-.13-.31-.14-.12-.04l-.39-.32c.27.28-.18-.27-.2-.3.2.33-.1-.24-.12-.3-.02-.06-.05-.76-.06-.35,0-.07.14-.75.02-.35.02-.07.29-.67.11-.3-.21.43.37-.4.13-.18-.27.24.54-.37.24-.17-.1.07-.44.21.01.03.56-.22-.32-.02.32-.07.68-.06-.33-.09.35.01.59.09-.18-.17.32.08.16.04.29.12.4.23.2.17.25.2.14.1-.25-.24.42.63.19.22.02.04.26.71.17.33.02.06.04.78.06.38s-.06.33-.07.37c.03-.07.05-.2.07-.28.07-.38-.07.26-.14.32.07-.05.35-.52,0-.05s.25-.12-.25.24c-.52.38.3-.07-.31.17-.26.1-.31.12-.17.08.23-.06.09-.04-.45.05,1.56-.12,3.08-1.29,3-3-.07-1.52-1.32-3.13-3-3h0Z"/>
    <path class="cls-1" d="M296.71,91.4c3.86,0,3.87-6,0-6s-3.87,6,0,6h0Z"/>
    <path class="cls-1" d="M335.64,51.62c1.05,2.45.08,3.78-2.92,3.98-1.68-.14-3.23-.67-4.65-1.57-2.49-1.49-2.48-3.55-3.98-5.5-1.29-1.67-2.68-2.49-4.84-2.03-3.26.69-4.98,2.36-8.57,1.63-3.88-.79-6.71-3.27-8.3-6.82s-6.75-.47-5.18,3.03c2.38,5.31,7.38,8.88,13.1,9.79,2.54.4,5.19.28,7.65-.51.96-.3,2.11-.74,2.96-1.31-2.02-.92-2.51-.57-1.46,1.04.25.71.61,1.35,1.09,1.94,3.27,4.63,10.63,7.75,16.09,5.64,4.88-1.89,7.22-7.94,4.19-12.34-2.18-3.16-7.38-.16-5.18,3.03h0Z"/>
    <path class="cls-1" d="M373.64,112.3c1.81,4.92,6.45,8.35,11.79,8.09,3.84-.19,3.87-6.19,0-6-2.53.13-5.09-1.2-6.01-3.69-.56-1.52-2.03-2.55-3.69-2.1-1.46.4-2.66,2.16-2.1,3.69h0Z"/>
    <path class="cls-1" d="M201.97,54.36c7.89,5.78,13.12,18.73,3.33,25.61-8.32,5.85-18.74,1.5-25.65-4.35-2.93-2.48-7.2,1.74-4.24,4.24,9.81,8.3,25.28,13.33,35.75,3.01s4.25-26.08-6.16-33.69c-3.12-2.28-6.12,2.92-3.03,5.18h0Z"/>
    <path class="cls-1" d="M229.89,110.91c-1.43-13.17-15.09-18.85-26.72-14.32-5.07,1.97-9.12,5.71-9.27,11.46-.17,6.58,4.22,11.6,8.74,15.83l2.12-5.12c-11.48-.77-25.56,9.3-21.86,22.16,3.9,13.56,23.59,8.84,30.89,1.5,2.72-2.74-1.52-6.99-4.24-4.24-4.38,4.4-20.32,9.99-21.14-.61-.66-8.49,9.28-13.27,16.36-12.8,2.59.17,3.96-3.4,2.12-5.12-5.35-5-11.43-13.68-1.38-17.51,7.33-2.79,17.41-.21,18.39,8.78.41,3.8,6.42,3.84,6,0h0Z"/>
    <path class="cls-1" d="M168.89,99.15c-5.17,10.59,11.33,19.77,18.17,10.54,7.53-10.16-10.83-23.49-18.2-12.51-2.16,3.22,3.04,6.22,5.18,3.03,2.93-4.37,11.35,2.87,7.89,6.25-2.62,2.56-9.75-.42-7.86-4.29,1.69-3.46-3.49-6.5-5.18-3.03h0Z"/>
    <path class="cls-1" d="M217.15,50.02c.64,1.63,1.49,3.16,3.01,4.12,1.71,1.09,3.96,1.05,5.49-.32,1.02-.91,1.58-2.29,1.56-3.66-.01-1.01-.41-1.95-1.08-2.7-.72-.8-1.7-1.07-2.72-1.17-1.57-.15-3.07,1.49-3,3,.08,1.76,1.32,2.84,3,3-.97-.09-1.85-.61-2.13-1.6.1.37-.06-.49-.06-.47.04.44.19-.69.07-.39-.02.06-.09.24-.09.29,0-.01.31-.74.14-.39-.2.4.44-.5.2-.28-.11.1-.05.06.17-.12.2-.19.44-.31.71-.37-.38.1.44-.05.44-.05.77-.01.4.13.17,0-.32-.17.69.36.15.03.13.08.44.41.18.12-.04-.04-.45-.51-.14-.13s-.06-.13-.09-.18c-.07-.11-.12-.23-.19-.35-.34-.59.23.62,0,0-.57-1.46-2.04-2.63-3.69-2.1-1.41.46-2.71,2.13-2.1,3.69h0Z"/>
    <path class="cls-1" d="M162.12,134.71c11.12,7.7,13.56,22.14,6.28,33.37-2.11,3.25,3.08,6.26,5.18,3.03,9.15-14.11,5.27-32.09-8.43-41.57-3.18-2.2-6.19,3-3.03,5.18h0Z"/>
    <path class="cls-1" d="M184.07,185.43c-.85-3.74,2.37-6.51,5.94-6.04,2.98.38,5,2.51,6.19,5.14,1.34,2.97.43,7.23,3.63,9.16,3,1.81,6.52-.56,9.74-.42,5.21.24,10.74,6.1,5.96,10.66-2.8,2.67,1.45,6.91,4.24,4.24,4.46-4.25,4.59-11.43.6-16.11-2.25-2.64-5.57-4.14-8.95-4.61-1.85-.26-3.72-.22-5.56.08-.42.07-2.56.83-2.84.67.05.03-.06-1.78-.1-1.92-2-6.99-6.26-13.44-14.51-12.98-7.13.4-11.67,6.92-10.12,13.72.86,3.76,6.64,2.17,5.79-1.6h0Z"/>
    <path class="cls-1" d="M227.86,192.91c-1.09,4.63,1.1,9.66,5.65,11.48s9.68-.32,11.99-4.46c1.88-3.38-3.3-6.4-5.18-3.03-2.08,3.72-7.68,1.93-6.67-2.4.88-3.76-4.9-5.36-5.79-1.6h0Z"/>
    <path class="cls-1" d="M250.43,209.68c3.86,0,3.87-6,0-6s-3.87,6,0,6h0Z"/>
  </g>
  <g id="Layer_13" data-name="Layer 13">
    <path class="cls-5" d="M214.28,150.5c-9.64-3.21-20.78,11.15-19.62,19.88,1.58,11.88,14.32,19.26,25.42,19.08,3.86-.06,3.87-6.06,0-6-7.28.12-14.74-3.37-18.2-10.05-2.31-4.46-1.18-7.98,1.98-11.63,2.06-2.37,5.31-6.67,8.82-5.5s5.25-4.57,1.6-5.79h0Z"/>
    <path class="cls-5" d="M216.38,152.6c-2.99-13.8,3.01-28.15,13.48-37.28s25.74-13.32,39.94-13.36c28.41-.07,60.75,17.71,58.77,49.94-.24,3.86,5.76,3.84,6,0,3.47-56.63-83.3-74.18-114.62-34.83-8.36,10.5-12.23,23.89-9.36,37.12.82,3.77,6.6,2.18,5.79-1.6h0Z"/>
    <path class="cls-5" d="M332.86,155.6c6.15,1.19,11.27,7.24,9.54,13.74-1.56,5.86-8.11,9.14-13.8,7.77-3.75-.9-5.35,4.88-1.6,5.79,8.83,2.13,18.75-2.89,21.18-11.96,2.53-9.47-4.34-19.32-13.73-21.13-3.77-.73-5.39,5.05-1.6,5.79h0Z"/>
    <path class="cls-5" d="M220.54,189.39c17.38,5.38,34.4,13.68,47.71,26.28,2.8,2.65,7.05-1.58,4.24-4.24-14.07-13.32-31.98-22.14-50.36-27.82-3.7-1.14-5.28,4.65-1.6,5.79h0Z"/>
    <path class="cls-5" d="M274.56,216c15.75-13.53,33.49-24.95,52.85-32.59,3.55-1.4,2-7.21-1.6-5.79-20.38,8.04-38.91,19.88-55.49,34.13-2.93,2.52,1.33,6.75,4.24,4.24h0Z"/>
    <path class="cls-5" d="M272.49,162.31c-9.26-10.04-38.22-3.91-32.24,13.13,2.44,6.95,10.85,8.12,17.13,6.85,7.69-1.55,14.66-6.81,16.51-14.65l-5.48.72c5.46,10.86,25.07,16.7,31.32,3.11,2.87-6.24-.63-12.3-6.64-14.74-7.64-3.1-15.88-.22-23.01,2.87-3.53,1.53-.48,6.7,3.03,5.18,4.04-1.75,8.5-3.44,12.97-3.39,5.28.06,12.45,4.62,6.33,9.81s-15.62.47-18.81-5.87c-1.15-2.3-4.91-1.73-5.48.72-1.1,4.67-4.5,7.77-8.9,9.49-3.41,1.33-9.81,2.58-12.54-.81-4.56-5.66,4.03-10.43,8.45-10.96,4.17-.5,10.1-.5,13.14,2.79,2.62,2.85,6.86-1.41,4.24-4.24h0Z"/>
    <path class="cls-5" d="M266.44,176.8c3.87,15.26,3.77,31.95-5.2,45.45-9.23,13.89-25.4,17.56-41.14,18.22-14.48.6-32.41-1.88-42.25-13.79-4.99-6.04-7.06-16.49-.51-22.26,2.24-1.97,5.51-3.19,8.5-2.87,1.69.18,3.83.96,4.95,2.31,2.63,3.2.09,6.45-2.88,7.97-7.17,3.67-19.54,1.41-26.47-1.9-7.62-3.64-13.34-10.75-13.48-19.38-.06-3.86-6.06-3.87-6,0,.35,21.52,23.72,30.76,42.28,28.41,7.95-1.01,17.46-8.08,12.5-17.02-4-7.21-13.83-7.83-20.4-4.1-7.98,4.54-10.55,14.17-8.3,22.7,2.56,9.72,10.86,16.56,19.71,20.5,10.13,4.51,21.33,5.88,32.34,5.43s23.15-2.11,32.86-8.01c21.62-13.15,24.99-40.68,19.26-63.25-.95-3.74-6.74-2.16-5.79,1.6h0Z"/>
    <path class="cls-5" d="M269.51,204.94c4.18,18.5,12.27,36.11,32.81,39.8,9.1,1.63,18.4.75,27.42-.98,10.37-1.99,21.04-4.86,30.21-10.27,7.27-4.29,13.68-11.02,13.74-19.94.05-7.34-4.81-14.26-12.55-14.53-6.76-.23-12.75,4.77-11.97,11.82.95,8.63,9.82,12.57,17.61,11.94,16.96-1.37,40.01-23.47,25.84-40.43-2.48-2.97-6.7,1.3-4.24,4.24,6.09,7.29-.36,17.97-6.2,23.14s-18.18,11.06-24.83,4.64c-3.01-2.91-3.14-7.8,1.33-9.12s7.83,1.65,8.78,5.71c2.08,8.85-6.3,15.23-13.12,18.75-8.13,4.2-17.23,6.53-26.18,8.24-7.89,1.51-16.25,2.39-24.23.98-18.55-3.28-24.88-19.08-28.61-35.61-.85-3.76-6.64-2.17-5.79,1.6h0Z"/>
    <path class="cls-5" d="M308.17,155.6c3.86,0,3.87-6,0-6s-3.87,6,0,6h0Z"/>
    <path class="cls-5" d="M232.49,155.01c3.86,0,3.87-6,0-6s-3.87,6,0,6h0Z"/>
    <path class="cls-5" d="M251.72,102.48c-6.45,10.36-7.96,22.86-4.12,34.45,1.21,3.65,7.01,2.08,5.79-1.6-3.37-10.16-2.14-20.73,3.52-29.83,2.05-3.29-3.14-6.3-5.18-3.03h0Z"/>
    <path class="cls-5" d="M267.32,103.8c-2.27,9.01-2.47,18.03-.7,27.14.74,3.79,6.52,2.18,5.79-1.6-1.57-8.04-1.3-16.01.7-23.95.94-3.75-4.84-5.34-5.79-1.6h0Z"/>
    <path class="cls-5" d="M284.91,106.37c-3.24,9.16-1.81,19.19,3.91,27.06,2.25,3.09,7.46.1,5.18-3.03-4.89-6.71-6.08-14.59-3.31-22.43,1.29-3.65-4.51-5.22-5.79-1.6h0Z"/>
    <path class="cls-5" d="M269.4,173.36c-1.12,10.76-.45,22.23,2.24,32.72.96,3.74,6.75,2.15,5.79-1.6-2.56-9.99-3.1-20.88-2.03-31.12.4-3.84-5.6-3.81-6,0h0Z"/>
    <path class="cls-5" d="M266.56,210.66c-21.84,5.02-45.63-.37-64.98-11.1-9.53-5.29-18.69-12.08-24.87-21.18s-9.64-19.65-11.28-30.43c-2.7-17.74-1.17-38.35,5.06-55.37,2.84-7.76,7.65-14.59,13.25-20.62,7.71-8.31,16.77-16.4,26.72-21.89,18.16-10.02,40.4-14.45,60.98-15.13,23-.76,48.48,1.63,69.17,12.49,9.3,4.88,17.04,12.24,23.89,20.11,7.52,8.64,13.93,18.21,17.34,29.23,3.86,12.5,5.76,27.21,3.66,40.21-1.88,11.66-7.31,22.8-13.99,32.46-6.69,9.68-15.39,17.78-24.69,24.92-3.51,2.69-7.44,6.29-11.38,8.24-1.96.96-4.27,1.54-6.33,2.22-17,5.61-38.18,11.82-55.87,6.18-3.69-1.18-5.27,4.61-1.6,5.79,17.73,5.66,38.6.22,55.79-5.13,4.78-1.49,9.45-2.77,13.55-5.64,9.82-6.88,19.43-14.27,27.5-23.19,7.62-8.43,13.71-18.1,18.12-28.58,5.34-12.68,6.28-25.7,4.87-39.27-1.36-13.07-4.72-25.85-11.75-37.06-6.29-10.03-14.34-19.3-23.37-26.94-18.44-15.59-43.75-20.41-67.25-21.79-23.43-1.38-47.44,1.56-69.4,10.09-11.52,4.47-21.09,10.95-30.39,19.04-7.72,6.72-15.05,14.25-20.19,23.17-3.75,6.5-6.03,13.6-7.48,20.94-2.13,10.83-3.57,21.87-3.28,32.91.35,13.28,2.9,26.66,8.83,38.62s14.52,20.08,25.05,26.99c21.81,14.3,50.22,21.43,75.93,15.52,3.76-.86,2.17-6.65-1.6-5.79h0Z"/>
    <path class="cls-5" d="M216.44,40.38c-8.37-8.07,10.47-16.46,15.76-18.4,9.01-3.3,18.6-4.66,28.12-5.4,19.54-1.52,39.3-1.15,58.76,1.2,19.15,2.32,38.36,6.59,56.4,13.48,15.68,5.98,31.47,14.93,40.9,29.28,2.66,4.04,6.83,11.78-.39,13.5-4.49,1.07-9.35-1.14-13.91-.88-3.44.2-6.43,1.57-8.9,3.95s-4.77,7.54-8.54,7.52-3.87,5.97,0,6c3.55.02,6.15-1.66,8.48-4.24,3.77-4.17,5.71-7.72,12.19-7.15,7.41.65,18.38,2.75,20.63-7.2,1.92-8.51-6.06-17.71-11.42-23.39-6.79-7.2-15.19-12.82-23.98-17.27-20.39-10.32-43.52-15.77-66.03-18.88-23.96-3.32-48.85-4.1-72.89-1.04-11.74,1.49-23.84,4.34-33.83,10.98-7.24,4.81-13.31,14.79-5.62,22.19,2.78,2.68,7.03-1.56,4.24-4.24h0Z"/>
    <path class="cls-5" d="M337.9,16.4c4.79-3.39,10.07-5.19,15.95-5.24l-2.89-2.2.17.62.77-2.92c-1.33,1.69-5.88,2.15-7.88,2.77-2.63.82-5.27,1.64-7.9,2.46-3.67,1.15-2.11,6.94,1.6,5.79,4.61-1.44,9.22-2.87,13.83-4.31,2.95-.92,6.22-2.33,5.2-6.01-.35-1.26-1.57-2.21-2.89-2.2-6.86.06-13.38,2.09-18.98,6.06-3.12,2.22-.13,7.42,3.03,5.18h0Z"/>
    <path class="cls-5" d="M161.78,35.05c-3.78,4.06-7.93,9.32-6.31,15.26,1.31,4.79,6.06,7.75,10.78,8.25,3.23.34,6.38-.43,9.38-1.6,1.31-.51,2.61-1.43,3.95-1.79,2.44-.65,1.93-1.04,3.71,1.38,4.91,6.7,8.52,14.97,12.63,22.19,1.91,3.36,7.1.34,5.18-3.03-3.24-5.69-6.48-11.38-9.72-17.07-1.79-3.15-3.67-8.94-7.48-10.29-4.34-1.55-9.17,3.03-13.2,3.93-3.17.71-8.35.35-9.44-3.57-.98-3.54,2.62-7.12,4.76-9.43,2.63-2.82-1.6-7.08-4.24-4.24h0Z"/>
    <path class="cls-5" d="M172.38,30.49c3.86,0,3.87-6,0-6s-3.87,6,0,6h0Z"/>
    <path class="cls-5" d="M287.95,24.07c-9.48,1.87-22.77,13.72-11.33,22.24,5,3.73,11.7,4.14,17.7,4.1,1.66-.01,4.15-.56,5.73-.09h1.62c-.08,1.06,0,2.1.22,3.13.43,4.63,1.13,9.25,1.7,13.86.46,3.78,6.47,3.83,6,0-.74-6.07-.86-12.68-2.29-18.61-1.09-4.5-4.94-4.41-8.87-4.36-5.38.07-11.26.63-16.26-1.76-9.47-4.52,1.84-11.64,7.39-12.73,3.78-.75,2.18-6.53-1.6-5.79h0Z"/>
    <path class="cls-5" d="M305.76,26.51c3.86,0,3.87-6,0-6s-3.87,6,0,6h0Z"/>
    <path class="cls-5" d="M221.69,215.12c-4.88,16.57-8.42,33.48-10.58,50.62-1.09,8.62-1.95,17.35-2.16,26.04-.16,6.43.93,12.7,5.91,17.21,4.63,4.2,10.96,5.96,16.89,7.38,7.75,1.85,15.63,3.18,23.55,4.09,16.17,1.84,32.55,1.62,48.69-.53,18.54-2.47,36.49-7.55,53.65-14.98,3.53-1.53.48-6.7-3.03-5.18-35.17,15.24-74.88,19.8-112.57,12.67-7.56-1.43-18.37-2.6-23.9-8.61-5.85-6.37-2.92-19.12-2.23-26.83,1.82-20.44,5.78-40.61,11.58-60.29,1.09-3.71-4.7-5.3-5.79-1.6h0Z"/>
    <path class="cls-5" d="M334.47,208.71c11.45,29.36,17.92,60.33,19.06,91.83.14,3.85,6.14,3.87,6,0-1.16-32.01-7.64-63.58-19.28-93.43-1.39-3.56-7.19-2.01-5.79,1.6h0Z"/>
    <path class="cls-5" d="M223.94,208.67c-22.29,3.11-41.22,18.09-52.58,37.1-13.45,22.49-16.02,49.76-13.96,75.38.31,3.82,6.31,3.86,6,0-1.93-24.14.14-49.63,12.39-71.06,10.54-18.44,28.42-32.66,49.76-35.64,3.81-.53,2.19-6.31-1.6-5.79h0Z"/>
    <path class="cls-5" d="M338.12,210.22c12.13,24.14,41.32,36.25,67.28,30.26,28.61-6.6,49.88-32.12,55.07-60.42,3.41-18.63.8-37.85-6.35-55.3-1.44-3.52-7.25-1.98-5.79,1.6,11.01,26.87,10.98,59.02-6.87,83.02-15.31,20.59-41.53,31.9-66.63,24.04-13.57-4.25-25.12-13.47-31.53-26.22-1.73-3.45-6.91-.42-5.18,3.03h0Z"/>
    <path class="cls-5" d="M451.23,122.24l-10.34-9.58c-2.83-2.62-7.08,1.61-4.24,4.24l10.34,9.58c2.83,2.62,7.08-1.61,4.24-4.24h0Z"/>
    <path class="cls-5" d="M454.06,122.29c-.77-5.12-1.55-10.25-2.32-15.37-.58-3.81-6.36-2.19-5.79,1.6.77,5.12,1.55,10.25,2.32,15.37.58,3.81,6.36,2.19,5.79-1.6h0Z"/>
    <path class="cls-5" d="M457.04,123.24c1.17-3.23,2.88-6.29,5.05-8.96,1.03-1.27,1.22-3,0-4.24-1.04-1.07-3.22-1.26-4.24,0-2.86,3.53-5.04,7.34-6.59,11.61-1.32,3.64,4.48,5.2,5.79,1.6h0Z"/>
    <path class="cls-5" d="M353.25,300.58c1.47,14.71,3.09,30.09,11.2,42.87,6.39,10.07,17.98,19.57,30.61,15.63l-3.39-4.41c-1.68,3.94-3.36,7.88-5.04,11.82-1.5,3.51,3.67,6.57,5.18,3.03,1.68-3.94,3.36-7.88,5.04-11.82.94-2.21-.63-5.27-3.39-4.41-11.7,3.65-21.55-7.83-26.24-17.12-5.55-10.99-6.77-23.53-7.97-35.59-.38-3.81-6.38-3.85-6,0h0Z"/>
    <path class="cls-5" d="M210.13,304.59c5.52,14.01,12.49,27.37,21.09,39.73,4.04,5.8,8.39,11.4,13.04,16.73,1.31,1.5,2.64,2.98,3.99,4.43.82.88,3.96,3.21,4.13,4.3.39,2.52-3.48,7.73-4.69,10.16-1.71,3.45,3.46,6.49,5.18,3.03,2.7-5.43,8.39-11.86,3.75-17.43-5.3-6.36-11.22-12.07-16.23-18.73-10.09-13.42-18.32-28.2-24.48-43.83-1.4-3.55-7.2-2-5.79,1.6h0Z"/>
    <path class="cls-5" d="M203.86,299.82c-17.76,7.95-35.51,15.9-53.27,23.85-6.09,2.73-13.88,5.14-17.89,10.92-1.89,2.73-1.44,6.1-3.15,8.62-2.32,3.43-10.35,5.05-14.21,6.59-4.24,1.69-8.49,3.38-12.73,5.08-3.08,1.24-6.45,2.34-8.86,4.73-4.25,4.22-3.23,10.51.97,14.37,5.04,4.64,12.08,3.58,17.88,1.1,8.45-3.61,16.56-8.26,24.75-12.42,3.44-1.75.41-6.93-3.03-5.18-6.76,3.43-13.5,6.92-20.29,10.31-3.28,1.64-6.98,3.65-10.77,3.5-4.81-.2-8.48-5.17-3.79-8.51,2.88-2.05,6.92-2.98,10.19-4.29,3.64-1.45,7.27-2.9,10.91-4.35,4.49-1.79,12.79-3.34,15.14-8.21,1.12-2.33.31-4.98,1.49-7.28,1.33-2.59,4.42-4.21,6.9-5.48,6.54-3.35,13.46-6.09,20.16-9.09,14.21-6.36,28.41-12.72,42.62-19.08,3.52-1.58.47-6.75-3.03-5.18h0Z"/>
    <path class="cls-5" d="M135.3,364.15c10,16.32,31.3,3.75,43.72-1.99,9.28-4.28,18.52-8.67,27.7-13.15,7.01-3.42,16.01-6.33,20.07-13.51,1.9-3.37-3.28-6.39-5.18-3.03-3.22,5.69-11.49,8.21-17.06,10.93-7.17,3.51-14.38,6.96-21.61,10.34s-14,6.67-21.14,9.65-16.62,5.39-21.32-2.28c-2.01-3.29-7.21-.28-5.18,3.03h0Z"/>
    <path class="cls-5" d="M204.92,306.57l4.49-1.31c1.51-.44,2.6-2.13,2.1-3.69s-2.08-2.56-3.69-2.1l-4.49,1.31c-1.51.44-2.6,2.13-2.1,3.69s2.08,2.56,3.69,2.1h0Z"/>
    <path class="cls-5" d="M227.88,313.87c.5,6.82,1.22,15.42-5.2,19.83-3.16,2.17-.17,7.37,3.03,5.18,8.45-5.8,8.86-15.64,8.17-25.01-.28-3.83-6.28-3.86-6,0h0Z"/>
    <path class="cls-5" d="M166.06,323.85c12.52,5.03,15.59,19.63,17.52,31.5.62,3.8,6.4,2.19,5.79-1.6-2.35-14.49-6.88-29.73-21.71-35.69-3.58-1.44-5.14,4.36-1.6,5.79h0Z"/>
    <path class="cls-5" d="M192.81,312.4c10.7,4.98,14.27,16.23,16.48,26.99.78,3.78,6.56,2.18,5.79-1.6-2.51-12.21-7.18-24.97-19.24-30.57-3.48-1.62-6.53,3.55-3.03,5.18h0Z"/>
    <path class="cls-5" d="M446.84,118.6c-10.47,3.63-47.63,10.28-43.17-10.97,1.71-8.13,9.59-12.86,16.38-16.45,8.07-4.26,16.54-7.73,25.25-10.43,16.56-5.14,33.92-7.45,51.24-6.74,7.04.29,21.34-.57,23.4,8.29s-7.12,15.67-13.95,19.62c-17.88,10.36-38.26,15.66-58.89,15.82-3.86.03-3.87,6.03,0,6,22.38-.18,44.97-6.1,64.08-17.92,7.73-4.78,15.31-11.77,15-21.62-.29-9.31-7.43-13.77-15.87-14.97-21.87-3.12-44.68-.94-65.78,5.47-10.43,3.17-20.73,7.37-30.22,12.76-8.01,4.54-15.57,11.04-16.8,20.69-3.32,26.17,36.19,21.33,50.91,16.23,3.63-1.26,2.07-7.05-1.6-5.79h0Z"/>
    <path class="cls-5" d="M433.81,85.23c1.21,2.48,2.41,4.96,3.62,7.44.71,1.46,2.78,1.85,4.1,1.08,1.49-.87,1.79-2.64,1.08-4.1l-3.62-7.44c-.71-1.46-2.78-1.85-4.1-1.08-1.49.87-1.79,2.64-1.08,4.1h0Z"/>
    <path class="cls-5" d="M456.48,79.75l3.7,6.17c1.98,3.31,7.17.29,5.18-3.03-1.23-2.06-2.47-4.11-3.7-6.17-1.98-3.31-7.17-.29-5.18,3.03h0Z"/>
    <path class="cls-5" d="M477.34,76.64c1.66,1.45,2.85,2.98,3.85,4.94.73,1.44,2.77,1.86,4.1,1.08,1.47-.86,1.81-2.65,1.08-4.1-1.18-2.33-2.82-4.44-4.79-6.16-1.22-1.07-3.04-1.2-4.24,0-1.09,1.09-1.23,3.17,0,4.24h0Z"/>
  </g>
</svg>