<?xml version="1.0" encoding="UTF-8"?>
<svg xmlns="http://www.w3.org/2000/svg" viewBox="0 0 300.63 320.39">
  <defs>
    <style>
      .cls-1 {
        fill: #bdd231;
      }

      .cls-1, .cls-2, .cls-3, .cls-4 {
        stroke-width: 0px;
      }

      .cls-2 {
        fill: #231f20;
      }

      .cls-3 {
        fill: #9871b2;
      }

      .cls-4 {
        fill: #fff;
      }
    </style>
  </defs>
  <g id="Layer_2" data-name="Layer 2">
    <path class="cls-3" d="M128.46,96.57c11.58-.44,23.21-.06,34.7,1.49l1.99-14.73c-13.79.7-27.58,1.4-41.37,2.1-9.69.49-9.61,14.33,0,15,14.76,1.03,29.53,2.06,44.29,3.09,8.33.58,10.37-13.31,1.99-14.73-16.7-2.84-33.28-2.8-49.96.15-8.03,1.42-6.15,12.12,0,14.46,14.39,5.48,30.55,5.48,44.94,0,6.51-2.47,7.71-12.48,0-14.46-16-4.11-32.19-2.44-47.2,4.33-5.69,2.57-4.38,12.66,1.79,13.71,16.82,2.85,33.27.57,48.63-6.9,6.73-3.27,3.43-14.26-3.79-13.98-14.67.57-29.28-1.9-42.76-7.85l-3.79,13.98c16.34,1.14,32.69,2.28,49.03,3.41,8.99.63,9.41-11.96,1.99-14.73-13.89-5.2-28.84-7.12-43.59-5.55-9.66,1.02-9.61,13.9,0,15,17.34,1.98,34.74,3.08,52.18,3.32,8.53.11,10.09-12.4,1.99-14.73-17.54-5.06-35.09-10.12-52.63-15.17l-3.99,14.46c17.94,2.78,35.88,5.57,53.83,8.35,9.37,1.45,13.36-11.38,3.99-14.46-15.09-4.96-29.48-11.49-43.2-19.5-2.52,4.32-5.05,8.63-7.57,12.95,17.38,9.18,35.97,15.75,55.31,19.27,8.07,1.47,13.43-9.1,5.78-13.71-12.8-7.71-25.61-15.42-38.41-23.13-2.52,4.32-5.05,8.63-7.57,12.95,16.35,8.75,33.92,14.76,52.26,17.55,7.94,1.21,13.62-9.05,5.78-13.71-13.69-8.14-28.45-14.37-43.84-18.5-9.37-2.52-13.16,11.55-3.99,14.46,24.71,7.85,49.08,16.71,73.06,26.57l3.99-14.46c-12.68-3.35-25.36-6.69-38.05-10.04-8.62-2.27-12.46,8.91-5.78,13.71,20.19,14.5,40.37,29.01,60.56,43.51,1.93-4.57,3.85-9.14,5.78-13.71-24.53-10.03-47.29-24.33-67.12-41.88-7.2-6.37-17.84,4.17-10.61,10.61,21.78,19.39,43.56,38.78,65.34,58.18l9.09-11.78c-22.99-14.05-45.97-28.11-68.96-42.16-7.2-4.4-15.37,5.92-9.09,11.78,20.98,19.6,43.79,37.19,68.08,52.5,8.36,5.27,15.1-7.32,7.57-12.95-21.78-16.3-44.14-31.81-67.03-46.51-6.59-4.23-13.64,3.95-10.26,10.26,5.52,10.32,15.7,16.1,25.54,21.64,12.23,6.89,24.46,13.78,36.69,20.66,8.67,4.88,15.02-7.25,7.57-12.95-20.52-15.7-42.45-29.37-65.58-40.87-6.33-3.15-14.52,3.51-10.26,10.26,3.65,5.78,9.15,9.95,15.96,11.18,9.36,1.69,13.51-12.25,3.99-14.46-7.8-1.82-15.74-2.66-23.75-2.37-8.95.32-9.55,11.62-1.99,14.73,8.01,3.3,16.03,6.6,24.04,9.91s13.35-9.95,5.78-13.71c-7.27-3.6-14.54-7.21-21.81-10.81-2.52,4.32-5.05,8.63-7.57,12.95,9.19,4.47,18.8,7.94,28.84,9.9,9.35,1.82,19.19,2.38,27.31,7.86,12.83,8.66,18.59,25.41,23.5,39.32l12.54-7.3c-15-14.97-29.99-29.94-44.99-44.9l-10.61,10.61c16.09,15.31,29.22,33.07,39.2,52.9l11.78-9.09c-16.57-13.76-28.73-31.72-34.92-52.38l-12.54,7.3c16.61,19.53,32.58,39.6,47.84,60.2,5.77,7.79,16.89,1.3,12.95-7.57-12.75-28.73-27.74-56.39-44.84-82.76l-11.78,9.09c16.15,18.08,32.31,36.16,48.46,54.24,5.64,6.31,16.44-1.94,11.78-9.09-12.98-19.93-25.96-39.87-38.94-59.8l-11.78,9.09c13.51,10.85,25.1,23.63,34.36,38.29l11.78-9.09c-12.41-12.99-22.72-27.54-30.99-43.48l-10.26,10.26c19.68,14.5,34.81,35,43.02,58l12.54-7.3c-14.13-12.42-25.34-27.85-32.2-45.41l-12.54,7.3c9.79,8.91,18.21,19.03,24.91,30.46,5.62,9.59,14.12,24.14,8.98,35.51l11.78-1.52c-5.1-4.75-6.51-13.35-1.78-18.95l-12.54-3.31c2.15,7.64,2.93,15.35,2.19,23.27-.35,3.71-1.14,7.38-2.19,10.96-.43,1.47-.82,3.09-1.5,4.48-.34.73-.76,1.42-1.27,2.05-.92.78-.73.76.59-.07l5.24,9.23c3.01-14.46,6.89-28.7,11.64-42.69l-14.73-1.99c-1.87,19.59-9.4,38.02-21.09,53.77l13.71,1.79c-2.96-13.14.48-27.25,9.32-37.45l-12.54-7.3c-3.83,17.27-11.85,33.06-23.83,46.1l12.8,5.3c-.98-12.49,2.08-24.14,9.11-34.52l-12.95-7.57c-4.61,10.29-9.22,20.58-13.82,30.87,4.57,1.93,9.14,3.85,13.71,5.78,3-14.2,6-28.39,9-42.59,2.03-9.59-10.99-12.88-14.46-3.99-5.36,13.72-9.28,27.88-11.75,42.4-1.6,9.4,12.68,13.53,14.46,3.99,2.23-11.92,5.5-23.55,9.82-34.89l-14.73-1.99c-.27,20.12-6.28,39.35-17.29,56.16l12.95,7.57c4.88-11.39,12.3-21.43,22.35-28.77l-9.09-11.78c-10.16,12.16-20.33,24.33-30.49,36.49l11.78,9.09c7.45-10.13,14.9-20.26,22.34-30.4,5.26-7.16-5.77-14.52-11.78-9.09-12.04,10.88-24.09,21.76-36.13,32.64l10.61,10.61c9.22-8.54,18.45-17.08,27.67-25.62-3.54-3.54-7.07-7.07-10.61-10.61-11.05,10.98-22.6,21.41-34.63,31.3l10.61,10.61c8.65-10.39,18.16-19.96,28.5-28.68l-10.61-10.61-17.63,15.12,10.61,10.61c9.02-8.24,18.03-16.47,27.05-24.71,6.18-5.65-2.06-16.75-9.09-11.78-15.72,11.12-28.51,25.65-37.03,42.96-3.69,7.49,5.38,15.17,11.78,9.09l16.78-15.95c6.17-5.87-1.78-16.17-9.09-11.78-10.52,6.32-19.15,14.98-25.42,25.53-3.79,6.38,3.83,14.21,10.26,10.26,8.5-5.21,15.33-12.69,19.24-21.89,2.73-6.42-3.18-14.44-10.26-10.26-12.84,7.57-23.31,18.55-30.06,31.86-2.96,5.84,1.91,12.59,8.47,11.02,14.64-3.52,27.29-13.63,33.66-27.31,2.5-5.37-1.73-13.39-8.47-11.02-15.85,5.58-27.72,17.23-33.88,32.81-2.63,6.65,5.78,11.03,11.02,8.47,12.24-5.99,23.04-14.65,31.47-25.36,5.32-6.75-1.09-15.36-9.09-11.78-14.96,6.69-25.98,19.27-31.75,34.47-2.41,6.35,5.73,11.53,11.02,8.47,19.13-11.08,36.35-25.94,52.77-40.65,15.06-13.5,28.66-28.99,34.83-48.62l-14.46-3.99c-3.17,10.54-9.54,19.97-18.46,26.51l9.09,11.78c1.8-2.25,3.6-4.49,5.41-6.74,6.12-7.62-2.98-16.51-10.61-10.61-12.61,9.76-25.22,19.52-37.83,29.29-12.24,9.48-24.19,20.19-37.36,28.36-11.75,7.29-25.53,7.5-38.76,4.89s-27.29-6.35-37.29-15.46l-7.3,12.54c18.39,5.46,36.79,10.92,55.18,16.37,9.31,2.76,13.1-11.45,3.99-14.46-12.35-4.08-23.87-9.88-34.64-17.18-1.93,4.57-3.85,9.14-5.78,13.71,15.76,6.04,31.81,11.22,48.12,15.54,8.42,2.23,12.78-9.08,5.78-13.71-11.17-7.39-22.35-14.79-33.52-22.18l-7.57,12.95c9.66,4.1,18.86,9.06,27.58,14.89,3.11,2.08,7.52.86,9.68-1.93,2.46-3.18,1.76-6.86-.59-9.85-22.76-29.03-61.18-37.82-95.84-42.92-8.01-1.18-13.52,8.93-5.78,13.71,17.32,10.7,34.95,20.88,52.88,30.52,2.52-4.32,5.05-8.63,7.57-12.95-14.4-7.1-28.2-15.28-41.33-24.51l-5.78,13.71c15.36,5.38,29.9,12.55,43.63,21.3l3.79-13.98c-8.01-.55-16.02-1.1-24.03-1.64-3.27-.22-6.37,2.49-7.23,5.51-4.21,14.74,8.11,24.5,20.03,29.85,1.93-4.57,3.85-9.14,5.78-13.71-23.52-4.72-44.78-17.21-59.99-35.84-16.05-19.65-23.51-45.34-22.02-70.49h-15c-.82,25.03-1.11,52.58,13.1,74.39,13.89,21.31,37.77,31.52,60.62,40.28,7.12,2.73,12.52-7.64,7.3-12.54-7.88-7.39-16.75-13.63-24.47-21.19-6.9-6.76-12.64-14.5-17.26-22.98-9.13-16.78-13.06-35.78-11.72-54.79l-14.73,1.99c5.65,39.68,27.64,75.5,59.49,99.57,2.97,2.25,7.62.73,9.68-1.93,2.44-3.16,1.79-6.89-.59-9.85-18.23-22.71-32.37-48.63-41.75-76.19l-13.71,5.78c8.64,18.83,20.79,35.86,35.67,50.27l10.61-10.61c-12.6-11.91-23.36-26.26-27.41-43.4-3.66-15.5-.66-33.05,10.4-44.92l-10.61-10.61c-1.74,1.95-3.48,3.9-5.23,5.85-6.42,7.18,4.16,17.82,10.61,10.61,1.74-1.95,3.48-3.9,5.23-5.85,6.4-7.16-3.98-17.71-10.61-10.61-14.16,15.19-18.65,36.44-14.89,56.55s16.87,38.77,31.9,52.98c7.01,6.63,17.57-3.87,10.61-10.61-14.04-13.59-25.18-29.47-33.33-47.23-3.53-7.69-16.44-2.24-13.71,5.78,10.27,30.16,25.66,57.97,45.61,82.81l9.09-11.78c-28.81-21.77-47.53-55.02-52.6-90.6-1.26-8.83-14.17-5.9-14.73,1.99-1.49,21.07,3.21,42.29,13.02,60.97,4.81,9.15,10.98,17.7,18.13,25.17,8.2,8.57,18.05,15.33,26.69,23.44l7.3-12.54c-19.42-7.45-41.11-16.2-52.5-34.73-11.9-19.35-10.92-43.63-10.21-65.48.32-9.7-14.43-9.58-15,0-3.38,57.23,36.82,109.51,93.03,120.8,7.76,1.56,14.02-10.01,5.78-13.71-4.81-2.16-15.14-5.92-13.14-12.91l-7.23,5.51c8.01.55,16.02,1.1,24.03,1.64,7.82.53,9.66-10.23,3.79-13.98-14.8-9.44-30.64-17.02-47.21-22.81-8.51-2.98-12.31,9.11-5.78,13.71,13.13,9.24,26.92,17.42,41.33,24.51,8.59,4.23,16.14-8.34,7.57-12.95-17.93-9.64-35.56-19.81-52.88-30.52l-5.78,13.71c32.26,4.74,67.99,11.97,89.22,39.06l9.09-11.78c-8.73-5.83-17.92-10.79-27.58-14.89-8.7-3.69-15.84,7.48-7.57,12.95,11.17,7.39,22.35,14.79,33.52,22.18,1.93-4.57,3.85-9.14,5.78-13.71-16.31-4.32-32.36-9.5-48.12-15.54-8.35-3.2-12.41,9.21-5.78,13.71,11.81,8.01,24.67,14.21,38.22,18.69l3.99-14.46c-18.39-5.46-36.79-10.92-55.18-16.37-7.03-2.09-12.88,7.46-7.3,12.54,11.44,10.42,26.48,15.54,41.37,18.79,15.58,3.41,32,4.09,46.8-2.63,7.24-3.29,13.41-8.37,19.66-13.21,7.09-5.49,14.18-10.98,21.28-16.47,14.45-11.19,28.89-22.37,43.34-33.56l-10.61-10.61c-1.8,2.25-3.6,4.49-5.41,6.74-2.37,2.95-3.04,6.67-.59,9.85,2.09,2.7,6.65,4.15,9.68,1.93,12.19-8.94,20.98-20.95,25.35-35.48,2.79-9.28-11.58-13.17-14.46-3.99-5.53,17.61-18.66,31.09-32.17,43.06-15.2,13.47-30.91,27.03-48.54,37.24,3.67,2.82,7.34,5.65,11.02,8.47,4.43-11.67,13.59-20.46,24.86-25.5l-9.09-11.78c-7.75,9.84-17.18,17.51-28.43,23.02,3.67,2.82,7.34,5.65,11.02,8.47,4.09-10.36,12.94-18.65,23.4-22.34-2.82-3.67-5.65-7.34-8.47-11.02-4.85,10.43-13.47,17.73-24.69,20.42,2.82,3.67,5.65,7.34,8.47,11.02,5.64-11.13,13.92-20.13,24.68-26.47l-10.26-10.26c-2.97,6.97-7.37,12.53-13.86,16.51l10.26,10.26c4.98-8.38,11.69-15.13,20.04-20.15l-9.09-11.78-16.78,15.95,11.78,9.09c7.36-14.96,18-27.93,31.65-37.58l-9.09-11.78c-9.02,8.24-18.03,16.47-27.05,24.71-7.19,6.57,3.35,16.83,10.61,10.61l17.63-15.12c7.36-6.31-3.28-16.79-10.61-10.61-10.33,8.72-19.84,18.29-28.5,28.68-6.22,7.46,3.13,16.75,10.61,10.61,12.04-9.88,23.58-20.32,34.63-31.3,6.88-6.84-3.54-17.15-10.61-10.61-9.22,8.54-18.45,17.08-27.67,25.62-7.11,6.59,3.47,17.06,10.61,10.61,12.04-10.88,24.09-21.76,36.13-32.64l-11.78-9.09c-7.45,10.13-14.9,20.26-22.34,30.4-5.01,6.81,6.32,15.62,11.78,9.09l30.49-36.49c5.01-6-1.69-17.18-9.09-11.78-12.12,8.85-21.8,20.3-27.74,34.16-3.72,8.69,7.52,15.86,12.95,7.57,12.41-18.95,19.04-41.1,19.34-63.74.12-8.94-11.86-9.54-14.73-1.99-4.32,11.33-7.59,22.97-9.82,34.89l14.46,3.99c2.47-14.52,6.39-28.68,11.75-42.4l-14.46-3.99c-3,14.2-6,28.39-9,42.59-1.65,7.79,10.04,13.97,13.71,5.78,4.61-10.29,9.22-20.58,13.82-30.87,3.91-8.73-7.45-15.69-12.95-7.57-8.35,12.32-12.32,27.25-11.16,42.09.48,6.05,8.09,10.43,12.8,5.3,13.67-14.89,23.3-32.96,27.68-52.72,1.51-6.79-7.31-13.32-12.54-7.3-12.49,14.41-17.38,33.41-13.18,52.05,1.56,6.91,10.17,6.56,13.71,1.79,13.33-17.95,21.02-39.14,23.14-61.34.84-8.82-12.15-9.58-14.73-1.99-4.75,13.99-8.63,28.22-11.64,42.69-.9,4.36,1.28,7.58,5.24,9.23,12.93,5.37,19.62-11.84,21.72-21.2,2.82-12.56,2.4-25.56-1.09-37.94-1.43-5.08-8.79-7.75-12.54-3.31-9.85,11.68-9.67,29.5,1.78,40.17,3.21,2.99,9.7,3.08,11.78-1.52,7.13-15.74,1.21-31.87-6.5-46.22s-17.82-27.07-29.74-37.92c-5.04-4.59-15.46-.19-12.54,7.3,7.81,19.99,19.91,37.83,36.06,52.03,5.16,4.54,15.24.29,12.54-7.3-9.63-26.98-26.86-49.99-49.91-66.96-6.49-4.78-13.4,4.22-10.26,10.26,8.84,17.02,20.1,32.65,33.34,46.52,5.83,6.1,16.37-1.82,11.78-9.09-9.91-15.7-22.22-29.69-36.7-41.32-2.95-2.37-6.67-3.04-9.85-.59-2.82,2.18-3.98,6.52-1.93,9.68,12.98,19.93,25.96,39.87,38.94,59.8l11.78-9.09c-16.15-18.08-32.31-36.16-48.46-54.24-5.64-6.32-16.42,1.93-11.78,9.09,17.1,26.37,32.09,54.03,44.84,82.76l12.95-7.57c-16.03-21.63-32.75-42.73-50.19-63.23-4.94-5.8-14.6.4-12.54,7.3,6.88,22.98,20.29,43.66,38.77,59,6.5,5.39,15.74-1.22,11.78-9.09-10.51-20.88-24.62-39.83-41.55-55.94-6.99-6.65-17.46,3.76-10.61,10.61,15,14.97,29.99,29.94,44.99,44.9,5.06,5.05,15.11-.02,12.54-7.3-5.81-16.45-12.57-34.3-26.66-45.51-8.09-6.43-17.35-9.21-27.42-10.9-11.3-1.9-22.11-4.59-32.46-9.62-8.63-4.2-16.25,8.65-7.57,12.95,7.27,3.6,14.54,7.21,21.81,10.81,1.93-4.57,3.85-9.14,5.78-13.71-8.01-3.3-16.03-6.6-24.04-9.91l-1.99,14.73c6.73-.24,13.2.31,19.76,1.84l3.99-14.46c-3.09-.56-5.28-1.58-6.99-4.29l-10.26,10.26c23.13,11.5,45.07,25.17,65.58,40.87,2.52-4.32,5.05-8.63,7.57-12.95-11.09-6.25-22.18-12.49-33.28-18.74-8.52-4.8-18.76-9.17-23.58-18.18l-10.26,10.26c22.89,14.7,45.25,30.21,67.03,46.51,2.52-4.32,5.05-8.63,7.57-12.95-23.24-14.65-44.97-31.4-65.05-50.15l-9.09,11.78c22.99,14.05,45.97,28.11,68.96,42.16,7.15,4.37,15.54-6.04,9.09-11.78-21.78-19.39-43.56-38.78-65.34-58.18l-10.61,10.61c21.91,19.39,46.68,34.67,73.74,45.74,3.45,1.41,7.55-1.26,8.85-4.34,1.53-3.64,0-7.15-3.07-9.37-20.19-14.5-40.37-29.01-60.56-43.51-1.93,4.57-3.85,9.14-5.78,13.71,12.68,3.35,25.36,6.69,38.05,10.04,9.6,2.53,12.67-10.9,3.99-14.46-23.98-9.86-48.35-18.72-73.06-26.57l-3.99,14.46c14.21,3.82,27.61,9.47,40.25,16.99,1.93-4.57,3.85-9.14,5.78-13.71-17.08-2.6-33.44-7.88-48.68-16.04-8.5-4.55-15.87,7.96-7.57,12.95,12.8,7.71,25.61,15.42,38.41,23.13,1.93-4.57,3.85-9.14,5.78-13.71-18.1-3.3-35.45-9.17-51.73-17.76-8.52-4.5-15.95,8.06-7.57,12.95,14.81,8.64,30.49,15.65,46.78,21.01l3.99-14.46c-17.94-2.78-35.88-5.57-53.83-8.35-9.31-1.44-13.5,11.72-3.99,14.46,17.54,5.06,35.09,10.12,52.63,15.17l1.99-14.73c-17.45-.23-34.85-1.34-52.18-3.32v15c13.62-1.44,26.78.22,39.61,5.02l1.99-14.73c-16.34-1.14-32.69-2.28-49.03-3.41-7.16-.5-10.6,10.97-3.79,13.98,15.94,7.04,32.87,10.57,50.33,9.9l-3.79-13.98c-11.44,5.56-24.51,7.51-37.07,5.39l1.79,13.71c11.2-5.05,23.79-5.86,35.64-2.82v-14.46c-12.22,4.65-24.74,4.65-36.96,0v14.46c13.84-2.45,28.12-2.52,41.98-.15l1.99-14.73c-14.76-1.03-29.53-2.06-44.29-3.09v15c13.79-.7,27.58-1.4,41.37-2.1,3.71-.19,6.91-2.71,7.37-6.5.39-3.29-1.63-7.73-5.37-8.23-12.86-1.73-25.7-2.52-38.68-2.02-9.62.37-9.67,15.37,0,15h0Z"/>
    <path class="cls-3" d="M248,152.45c3.19,3.53,5.54,7.48,7.44,11.83,4.32-2.52,8.63-5.05,12.95-7.57-4.24-8.79-8.48-17.58-12.71-26.37s-17.13-1.09-12.95,7.57c4.24,8.79,8.48,17.58,12.71,26.37,1.77,3.68,6.94,4.58,10.26,2.69,3.86-2.19,4.3-6.57,2.69-10.26-2.41-5.53-5.74-10.4-9.79-14.87-6.49-7.18-17.07,3.46-10.61,10.61h0Z"/>
    <path class="cls-3" d="M132.11,91.57c-25.11,12.98-52.11,25.06-72.34,45.36-18.82,18.88-30.7,46.3-23.74,72.98,1.77,6.8,13.13,7.49,14.46,0,4.45-25.04,14.32-48.38,29.19-69.02l-12.95-7.57c-10.86,21.84-21.82,44.15-25.35,68.53-.59,4.04,1,8.01,5.24,9.23,3.76,1.08,8.34-1.3,9.23-5.24,5.72-25.36,14.56-49.79,26.55-72.85-4.32-2.52-8.63-5.05-12.95-7.57-5.98,14.13-13.95,27.26-24.03,38.86-6.27,7.21,3.82,17.63,10.61,10.61,8.24-8.53,15.56-17.9,21.86-27.95l-12.95-7.57c-11.93,22.36-23.56,46.68-17.85,72.62,1.69,7.69,12.22,6.55,14.46,0,4.34-12.68,6.3-26.04,5.84-39.43l-14.73,1.99c.82,4.73.24,9.76-1.71,14.16l13.98,3.79c-1.58-35.75,22.85-66.54,51.97-84.57l-9.09-11.78c-14.77,12.4-29.53,24.8-44.3,37.2-6.44,5.41,2.28,16.94,9.09,11.78,26.57-20.13,53.13-40.27,79.7-60.4,3.54-2.68,5.55-8.29,1.52-11.78-7.24-6.27-15.9-5.24-24.1-1.41-8.93,4.17-17.3,10.22-25.48,15.69-17.32,11.59-33.88,24.31-49.63,37.96-7.33,6.36,3.3,16.79,10.61,10.61,23.5-19.88,48.06-38.41,73.61-55.58,7.98-5.36,1.03-17.51-7.57-12.95-17.49,9.26-34.98,18.53-52.47,27.79l9.09,11.78c15.99-12.74,31.98-25.48,47.97-38.22,6.91-5.51-1.89-15.56-9.09-11.78-12.26,6.45-24.53,12.9-36.79,19.35l7.57,12.95c10.14-5.7,20.27-11.4,30.41-17.11,7.2-4.05,2.32-16.85-5.78-13.71-20.31,7.89-38.52,19.89-53.43,35.83-6.73,7.2,3.23,16.59,10.61,10.61,6.04-4.89,12.07-9.79,18.11-14.68l-10.61-10.61c-24.73,20.05-43.36,46.48-54.64,76.2-2.62,6.91,7.82,12.92,12.54,7.3,13.96-16.64,26.69-34.25,37.99-52.79,4.34-7.11-6.17-15.7-11.78-9.09-14.01,16.5-26.19,34.39-36.2,53.59,4.32,2.52,8.63,5.05,12.95,7.57,6.95-14.5,13.9-28.99,20.86-43.49,3.56-7.43-5.4-15.32-11.78-9.09-13.34,13.04-25.79,26.93-37.3,41.61l11.78,9.09c7.44-15.05,17.05-28.62,28.88-40.53l-10.61-10.61c-8.97,10.26-17.94,20.53-26.91,30.79l11.78,9.09c10.85-19.42,25.36-36.18,42.9-49.86l-10.61-10.61c-9.96,11.66-21.02,22.24-33.11,31.67l10.61,10.61c13.59-12.82,27.68-25.07,42.26-36.74,3.19-2.55,2.61-7.94,0-10.61-3.09-3.16-7.46-2.52-10.61,0-14.58,11.67-28.68,23.92-42.26,36.74-2.97,2.8-2.77,7.77,0,10.61,3.12,3.19,7.43,2.48,10.61,0,12.09-9.43,23.15-20.01,33.11-31.67,6.4-7.49-3.08-16.47-10.61-10.61-18.47,14.39-33.83,32.46-45.25,52.89-4.01,7.18,5.99,15.71,11.78,9.09,8.97-10.26,17.94-20.53,26.91-30.79,6.3-7.2-3.73-17.53-10.61-10.61-12.67,12.76-23.25,27.44-31.22,43.57-1.67,3.38-1.15,7.3,1.93,9.68,2.67,2.06,7.54,2.36,9.85-.59,11.51-14.69,23.95-28.57,37.3-41.61l-11.78-9.09c-6.95,14.5-13.9,28.99-20.86,43.49-4.13,8.61,8.45,16.21,12.95,7.57,9.41-18.05,20.67-35.03,33.85-50.55l-11.78-9.09c-10.65,17.45-22.51,34.09-35.65,49.75l12.54,7.3c10.37-27.32,28.12-51.21,50.78-69.58,3.17-2.57,2.62-7.93,0-10.61-3.08-3.14-7.48-2.54-10.61,0-6.04,4.89-12.07,9.79-18.11,14.68l10.61,10.61c13.06-13.97,28.95-25.03,46.81-31.97l-5.78-13.71c-10.14,5.7-20.27,11.4-30.41,17.11-8.44,4.75-.96,17.44,7.57,12.95,12.26-6.45,24.53-12.9,36.79-19.35l-9.09-11.78c-15.99,12.74-31.98,25.48-47.97,38.22-6.9,5.5,1.89,15.59,9.09,11.78,17.49-9.26,34.98-18.53,52.47-27.79-2.52-4.32-5.05-8.63-7.57-12.95-26.59,17.88-52.18,37.23-76.64,57.93l10.61,10.61c12.94-11.22,26.43-21.75,40.52-31.48,7.05-4.87,14.23-9.56,21.53-14.04,2.6-1.6,12.85-9.39,15.94-6.71l1.52-11.78c-26.57,20.13-53.13,40.27-79.7,60.4l9.09,11.78c14.77-12.4,29.53-24.8,44.3-37.2,6.56-5.51-1.93-16.22-9.09-11.78-33.45,20.72-61.21,56.5-59.4,97.52.3,6.75,10.75,11.08,13.98,3.79,3.74-8.44,4.79-16.61,3.22-25.72-1.44-8.36-15.02-6.37-14.73,1.99.43,12.18-1.35,23.92-5.3,35.45h14.46c-4.74-21.54,6.51-42.65,16.33-61.06,4.55-8.53-7.82-15.77-12.95-7.57-5.65,9.01-12.13,17.27-19.51,24.92l10.61,10.61c10.93-12.57,19.88-26.54,26.37-41.89,1.59-3.76,1.1-7.99-2.69-10.26-3.35-2.01-8.4-.89-10.26,2.69-12.57,24.18-22.07,49.85-28.07,76.43l14.46,3.99c3.36-23.19,13.51-44.18,23.84-64.95,4.35-8.75-7.34-15.36-12.95-7.57-15.51,21.53-26.06,46.47-30.7,72.6h14.46c-6.09-23.34,6.67-46.44,23.52-61.87,18.85-17.25,43.19-27.92,65.66-39.53,8.58-4.43,1-17.38-7.57-12.95h0Z"/>
  </g>
  <g id="Layer_4" data-name="Layer 4">
    <path class="cls-1" d="M241.78,83.66c-11.84,3.64-24.81,12.73-22.96,26.78,1.57,11.89,17.1,19.41,25.66,9.09l-8.49-8.49c-6.77,8.24-5.73,20.16,1.21,28.11,3.17,3.63,7.79,6.24,12.71,5.79,6.22-.56,10.28-6.28,14.28-10.43,5.36-5.56-3.11-14.06-8.49-8.49-1.86,1.93-3.65,4.48-5.82,6.02-1.75,1.25-2.64.61-4.16-1.34-2.15-2.76-3.7-8.2-1.25-11.18,4.86-5.91-3.54-14.45-8.49-8.49-3.7,4.46-6.11-2.84-4.74-6.1,2.24-5.33,8.58-8.13,13.71-9.71,7.36-2.26,4.22-13.85-3.19-11.57h0Z"/>
    <path class="cls-1" d="M264.46,168c7.72,0,7.73-12,0-12s-7.73,12,0,12h0Z"/>
    <path class="cls-1" d="M199.38,224.93c-.91,1.3-.04-.36.19.71.18.83.51,1.48.51,2.39,0,2.97-2.18,5.96-3.65,8.39l10.36,6.06c2.3-5.15,7.81-4.49,8.72,1.14,1.23,7.6,12.8,4.38,11.57-3.19-2.52-15.53-24.23-18.38-30.65-4-3.09,6.9,6.28,12.82,10.36,6.06,4.43-7.35,8.15-16.96,1.94-24.53-5.37-6.54-14.99-5.85-19.71.93-4.42,6.35,5.98,12.36,10.36,6.06h0Z"/>
    <path class="cls-1" d="M254.5,207.22c-4.33-.08-6.95-6.05-8.26-9.48-.53-1.4-.56-3.15-1.03-4.42-.13-.35,1.34-2.99-1.12-1.36.29-.19-.38,1.7-.56,1.96-.66.93-1.97,1.67-2.96,2.14-7.55,3.53-16.58-.85-20.11-7.86-3.47-6.9-13.83-.83-10.36,6.06,4.8,9.54,15.5,15.5,26.15,14.91s24.2-9.48,19.02-21.62c-5.55-13.01-22.55-6.19-22.1,6.52.39,11.14,9.41,24.94,21.35,25.16,7.72.14,7.73-11.86,0-12h0Z"/>
    <path class="cls-1" d="M227.21,163.43c.38,2.6,2.76,4.6,5.12,5.39,2.15.71,4.45.37,6.45-.6s3.37-2.82,3.88-4.9c.74-3.02-.46-6.12-2.88-7.99-4.04-3.12-9.86-2.3-12.52,2.21-2.37,4.01-.63,10.38,3.78,12.26,1.29.55,2.39.9,3.83.71s2.34-.76,3.45-1.65c2.88-2.31,4.1-7,2.8-10.44-.56-1.5-1.33-2.75-2.76-3.59-1.29-.75-3.18-1.07-4.62-.6-2.86.93-5.37,4.24-4.19,7.38.12.33.2.64.26.99l-.21-1.6c.03.35.02.68-.02,1.02l.21-1.6c-.06.34-.15.66-.27.99l.6-1.43c-.14.32-.3.6-.51.89l.94-1.21c-.22.27-.45.5-.72.72l7.27-.94c-.28-.12-.51-.26-.75-.44l1.21.94c-.17-.15-.31-.3-.45-.47l.94,1.21c-.17-.24-.31-.49-.44-.76l.6,1.43c-.1-.28-.18-.55-.23-.84l.21,1.6c-.03-.29-.03-.56.01-.85l-.21,1.6c.04-.21.1-.4.18-.6l-.6,1.43c.1-.2.2-.36.33-.54l-.94,1.21c.09-.11.19-.21.3-.29l-1.21.94c.17-.12.32-.21.51-.29l-1.43.6c.19-.06.37-.1.57-.13l-1.6.21c.2-.01.39,0,.59.01l-1.6-.21c.27.05.52.11.77.21l-1.43-.6c.24.12.46.25.67.41l-1.21-.94c.15.13.27.26.39.42l-.94-1.21c.07.1.14.21.19.32l-.6-1.43c.07.19.12.35.15.54l-.21-1.6c.01.13.01.26,0,.39l.21-1.6c-.01.11-.04.23-.08.33l.6-1.43c-.07.16-.14.28-.24.42l.94-1.21c-.07.08-.14.16-.23.23l1.21-.94c-.18.14-.36.24-.57.33l1.43-.6c-.17.06-.32.1-.5.13l1.6-.21c-.29.04-.56.04-.85,0l1.6.21c-.17-.03-.32-.08-.48-.14l1.43.6c-.15-.07-.28-.14-.41-.24l1.21.94c-.08-.06-.15-.14-.22-.22l.94,1.21c-.07-.08-.12-.17-.17-.26l.6,1.43c-.07-.17-.1-.3-.13-.48-.2-1.38-1.61-2.91-2.76-3.59-1.29-.75-3.18-1.07-4.62-.6s-2.85,1.37-3.59,2.76c-.8,1.52-.85,2.93-.6,4.62h0Z"/>
    <path class="cls-1" d="M268.49,153.59c-4.91,1.5-7.9,7.1-6.12,12.03,1.01,2.79,3.08,5,6,5.79s6.13-.21,8.46-2.2c4.63-3.95,4.16-11.63-1.36-14.56-3.58-1.9-8.19-.85-10.29,2.71-.75,1.28-1.12,2.78-1.06,4.26.12,2.62,1.44,4.47,3.52,5.95,2.56,1.83,6.79.54,8.21-2.15,1.63-3.09.58-6.26-2.15-8.21,2.43,1.73,2.94,4.03,1.84,6.21-1,1.98-3.93,2.86-5.83,1.74-.75-.44-1.32-1.2-1.54-2.04-.09-1.09-.13-1.4-.11-.91,0,.49.05.19.14-.91-.26,1,.72-1.3.17-.41.65-.78.81-.99.5-.65-.1.11-.2.21-.31.3.82-.59,1.03-.76.64-.52-.41.24-.14.14.8-.3-.99.26,1.52.07.51-.03l1.05.14c.96.47,1.19.56.68.29l.83.64c-.41-.43-.24-.21.49.66-.5-.79.51,1.5.24.54s.11,1.64.1.61c-.01-.97-.35,1.59-.08.61.24-.88-.61,1.24-.29.63.54-1.01-.77.87-.36.45.34-.32.1-.13-.74.57-1.08.4-1.33.51-.75.32,3-.92,5.21-4.24,4.19-7.38s-4.17-5.17-7.38-4.19h0Z"/>
    <path class="cls-1" d="M173.41,258.01c-.95,1.96-1.37,4.03-.79,6.18s1.93,3.64,3.68,4.85c2.3,1.59,5.35.72,7.27-.94,2.82-2.43,4.83-6.04,3.74-9.85-1.37-4.79-6.87-7.34-11.27-4.84-2.73,1.55-3.89,5.51-2.15,8.21s5.29,3.81,8.21,2.15l-1,.41-1.6.21c.15-.03.3-.04.45-.01l-1.6-.21c.4.11.3.06-.28-.14-.51-.15-.95-.42-1.33-.81l-.62-.8c-.38-1.06-.49-1.3-.32-.72l-.21-1.6c.03.17.04.34.02.51l.21-1.6c-.1.62-.47,1.06.23-.27-.45.86.8-.82.3-.33-.42.42-.82.82-1.27,1.21l7.27-.94c.59.34,1.06.8,1.42,1.38.37,1.04.49,1.26.35.67l.21,1.6c-.03-.18-.03-.36,0-.54l-.21,1.6c.12-.59,0-.37-.36.67.71-1.47,1.05-3,.6-4.62-.38-1.39-1.46-2.9-2.76-3.59-2.69-1.42-6.75-.86-8.21,2.15h0Z"/>
    <path class="cls-1" d="M125.87,228.79c-6.58-6.1-15.84-.14-16.85,7.72s4.36,15.22,12.35,15.88,14.35-6.61,12.6-14.43c-1.73-7.74-11.64-11.19-17.53-5.57-3.46,3.3-3.9,8.54-.97,12.31s8.02,5.04,12.06,2.5c6.52-4.1.51-14.49-6.06-10.36,2.52-1.58,4.89,1.38,3.67,3.64-.25.59-.65.95-1.19,1.07-.39.12-.28.09.34-.09-.54,0-.78.21-1.32-.08-.48-.26-.38-.48-.72-.81.91.89-.55.34.13-.24-.19.63-.21.76-.08.41.05-.18.15-.32.31-.43.68.07-.72.36-.01.07l-.61.15c.54-.1.44-.14-.31-.1.83.39-.78-.61,0-.1.6.39-.65-.7-.23-.16-.49-.64-.27-.24-.49-1.05-.25-.93-.15-.1-.09-1.13-.03.65.37-.55.04-.17-.65.75.42-.01.03.06-1.39.25-1.75,1.07-3.55-.6,5.66,5.25,14.16-3.22,8.49-8.49h0Z"/>
    <path class="cls-1" d="M69.89,254.07c-3.68-2.28-5.96-7.6-2.05-10.87,3.01-2.52,8.18-.59,7.22,3.74h11.57c-.39.12-.47.15-.23.1.68-.05,1.32.11,1.91.46,1.09.51,1.97,1.56,2.48,2.62.73,1.51.78,3.46.73,5.08-.05,1.25-.23,2.49-.54,3.71-1.11,2.48-.21,2.64,2.71.5l5.79,4.4-.19-.58c-2.46-7.28-14.05-4.15-11.57,3.19l.19.58c.79,2.33,3.09,4.64,5.79,4.4,7.35-.65,8.83-7.34,9.58-13.64s-.57-13.44-5.53-18.11c-4.08-3.85-10.02-5.71-15.44-3.84-5.64,1.95-9.61,8.54-7.24,14.31,2.03,4.94,10.15,6.41,11.57,0,3-13.54-11.28-25.21-23.77-18-12.98,7.49-10.83,25,.98,32.31,6.59,4.08,12.62-6.3,6.06-10.36h0Z"/>
    <path class="cls-1" d="M151.19,243.07c-10.83-3.76-16.76,9.57-16.3,18.26.51,9.66,8.21,19.01,18.57,17.72,7.56-.94,7.66-12.95,0-12-3.16.39-5.36-1-6.27-4.13-.44-1.51-.44-3.35-.18-4.89.12-.92.39-1.79.79-2.62.91-.9.97-1.16.2-.77,7.31,2.54,10.45-9.05,3.19-11.57h0Z"/>
    <path class="cls-1" d="M66.88,181.27c-10.52-6.88-28.18-7.29-32.44,7.36-3.3,11.38,9.97,23.49,20.45,15.81,2.96-2.17,4.31-6.57,1.21-9.42-4.42-4.07-11.07-4.31-15.68-.25-5.04,4.44-6.09,12.55-4.85,18.84s6.14,10.52,12.43,11.26c7.23.86,13.23-3.21,18.24-7.97l-9.42-1.21c2.1,4.6,7.39,6.71,12.22,5.87,5.64-.98,9.1-5.49,11.91-10.11,4.03-6.61-6.35-12.65-10.36-6.06-.67,1.1-1.58,3.03-2.68,3.79s-.76.39-.73.45c-1.67-3.65-6.87-3.64-9.42-1.21-1.87,1.77-6.84,6.63-9.78,4.12-1.17-1-.88-3.54-.76-4.95.15-1.72,1.28-3.27.39-4.09l1.21-9.42c-2.85,2.09-3.47-2.13-1.58-4.02,3.84-3.84,9.88-.84,13.57,1.57,6.48,4.24,12.5-6.15,6.06-10.36h0Z"/>
    <path class="cls-1" d="M5.02,179.71c.24,7.95,8.6,10.74,15.37,8.89,5.94-1.62,10.85-6.49,12.23-12.53,1.49-6.55-1.45-13.79-6.93-17.61-5.88-4.11-13.66-2.85-15.87,4.54-1.75,5.83-.99,14.1,4.75,17.45,6.19,3.61,13.92-.17,14.17-7.48.22-6.54-6.03-13.55-12.84-9.98s-4.98,12.02,1.12,14.59c3.01,1.27,6.57-1.37,7.38-4.19.99-3.45-1.22-6.13-4.19-7.38l-.6-.25,3.59,2.76-1.99,5.33h-3.19c-2.34-1.78-1.47-3.03,2.61-3.75.59.42.75.23.47-.59,0-.81.03-1.62.1-2.43.2-.84-.12-.63-.97.63h-3.19c2.69.41,4.58,3.23,3.84,5.96-.3,1.1-1.14,2.03-2.07,2.64-.51.33-1.03.57-1.61.72-.37.14-.74.19-1.13.15-1.44-.15-1.12.69.96,2.53-.24-7.7-12.24-7.74-12,0h0Z"/>
    <path class="cls-1" d="M22.28,217.05c1.43-.81,2.76-1.92,3.6-3.36.04-.07.07-.14.1-.21.22-.45.52-1.06.64-1.55.17-.65.3-1.33.27-2-.08-1.77-.67-3.35-1.91-4.65-1.35-1.42-3.26-2.17-5.2-2.2-.36,0-1.36.14-1.7.23-.04.01-.09.03-.13.04-.33.09-1.21.47-1.49.63-.31.18-1.01.72-1.27.97-.62.6-1.04,1.31-1.36,2.08-.06.15-.26.55-.34.82-.13.47-.18,1.22-.23,1.71-.03.83.14,1.6.52,2.31.24.74.66,1.39,1.24,1.93,1.04,1.04,2.75,1.82,4.24,1.76s3.16-.58,4.24-1.76l.94-1.21c.54-.94.82-1.95.82-3.03v-.08c-.06.53-.13,1.06-.21,1.6,0-.05.02-.09.04-.14l-.6,1.43.03-.06-.94,1.21s.05-.07.09-.09l-1.21.94s.07-.05.11-.07l-1.43.6c.07-.02.13-.04.2-.05l-1.6.21c.08,0,.15,0,.23,0l-1.6-.21c.11.02.21.05.31.09l-1.43-.6c.1.05.19.1.28.17l-1.21-.94c.06.06.12.11.17.17l-.94-1.21s.06.09.08.14l-.6-1.43c.03.08.05.15.06.23l-.21-1.6c0,.07,0,.14,0,.21l.21-1.6c-.02.12-.05.23-.09.35l.6-1.43c-.07.15-.14.28-.24.41l.94-1.21c-.16.2-.35.36-.55.52l1.21-.94c-.24.18-.5.34-.76.49-1.3.74-2.36,2.15-2.76,3.59-.25.8-.29,1.6-.11,2.39.04.8.27,1.54.71,2.23.83,1.28,2.06,2.41,3.59,2.76s3.19.21,4.62-.6h0Z"/>
    <path class="cls-1" d="M70.97,150.43c-5.95,1.88-12.74-3.81-13.42-9.8-.6-5.35,4.89-10.44,8.99-5.26s11.41-.48,10.03-5.84c-1.21-4.66,2.12-8.34,5.79-10.75,1.48-.97,10.28-5.88,9.96-2.04l11.18-3.03c-1.05-2.28,2.49-6.71,4.65-7.14,2.4-.47,4.76,1.95,4.19,4.38-1.74,7.51,9.82,10.72,11.57,3.19,2.4-10.35-6.38-21.47-17.44-19.45s-18,14.97-13.34,25.07c2.73,5.91,10.74,2.28,11.18-3.03s-2.8-9.88-7.43-12.11c-5.37-2.58-11.32-.96-16.41,1.47-10.26,4.9-18.56,14.68-15.48,26.62l10.03-5.84c-9.98-12.61-28.33-2.92-29.42,11.22-1.12,14.48,14.26,28.4,28.55,23.89,7.34-2.32,4.2-13.91-3.19-11.57h0Z"/>
    <path class="cls-1" d="M88.97,68.08c-.53,12.97,13.56,20.32,24.8,15.91s20.37-18.4,13.81-30c-3.8-6.72-14.17-.68-10.36,6.06,2.58,4.56-2.97,10.49-6.81,12.36s-9.66.87-9.45-4.33c.32-7.72-11.69-7.71-12,0h0Z"/>
    <path class="cls-1" d="M139.43,99.64c3.57-.31,6.59-1.95,8.52-5.03,1.56-2.48,2.2-6.03,1.07-8.79-.59-1.44-1.3-2.82-2.76-3.59s-3.05-1.06-4.62-.6c-4.38,1.28-6.97,4.94-7.33,9.38-.26,3.14,2.94,6.14,6,6,3.47-.16,5.73-2.64,6-6-.02.23-.27,1.35-.02.55l-.32.79c.27-.41.25-.4-.06.03-.51.78.48-.17-.31.35-.21.14-1.62.72-.77.47l-7.38-4.19c.04.1.34.76.27.86,0,0-.13-1.59-.15-.7.03-1.55.15-1.05,0-.41-.21.96.48-1.09.18-.46-.34.71-.49.03.32-.35-.16.08-.94.86-.06.14s-.02-.13-.15,0l.88-.39c-.62.15-.38.12.7-.06-3.12.27-6.15,2.57-6,6,.14,3.02,2.65,6.29,6,6h0Z"/>
    <path class="cls-1" d="M191.66,54.52c-12.85-5.92-29.48,1.3-28.9,16.96s17.6,21.45,28.64,12.29c5.18-4.3-1.8-13.51-7.27-9.42-13.22,9.88-1.4,27.91,13.39,23.92,13.24-3.58,21.65-22.04,11.31-32.71-5.38-5.56-13.86,2.93-8.49,8.49,2.81,2.9.28,7.77-2.07,10.14-1.47,1.48-3.64,3.1-5.86,2.7-.42-.08-3.25-1.41-2.23-2.17l-7.27-9.42c-3.79,3.14-8.54-.86-8.14-5.05.49-5.25,6.37-7.4,10.83-5.35,6.97,3.21,13.07-7.13,6.06-10.36h0Z"/>
    <path class="cls-1" d="M156.46,100v1c-.03.83.14,1.6.52,2.31.24.74.66,1.39,1.24,1.93.54.59,1.19,1,1.93,1.24.72.38,1.49.55,2.31.52l1.6-.21c1.02-.29,1.9-.8,2.65-1.54l.94-1.21c.54-.94.82-1.95.82-3.03v-1c.03-.83-.14-1.6-.52-2.31-.24-.74-.66-1.39-1.24-1.93-.54-.59-1.19-1-1.93-1.24-.72-.38-1.49-.55-2.31-.52l-1.6.21c-1.02.29-1.9.8-2.65,1.54l-.94,1.21c-.54.94-.82,1.95-.82,3.03h0Z"/>
    <path class="cls-1" d="M64.7,106.24l1-1c.59-.54,1-1.19,1.24-1.93.38-.72.55-1.49.52-2.31.03-.83-.14-1.6-.52-2.31-.24-.74-.66-1.39-1.24-1.93l-1.21-.94c-.94-.54-1.95-.82-3.03-.82l-1.6.21c-1.02.29-1.9.8-2.65,1.54l-1,1c-.59.54-1,1.19-1.24,1.93-.38.72-.55,1.49-.52,2.31-.03.83.14,1.6.52,2.31.24.74.66,1.39,1.24,1.93l1.21.94c.94.54,1.95.82,3.03.82l1.6-.21c1.02-.29,1.9-.8,2.65-1.54h0Z"/>
    <path class="cls-1" d="M271.83,162.14c-.27.12-.55.22-.85.29.87-.09.96-.13.28-.12.86.14.96.12.29-.04.73.34.8.35.21.04-.55-.37-.5-.33.15.11-.45-.49-.42-.43.1.18-.32-.59-.3-.51.06.23-.13-.55-.14-.57-.03-.08.11.35.1.7-.03,1.06.2-.64.16-.57-.12.21.36-.55.31-.5-.14.15.49-.45.43-.42-.17.09.59-.32.51-.32-.23,0,.28-.1.57-.18.86-.24-.86.1-.95.14-.27.13-.48.04-.93-.08-1.33-.35,2.85,1.29,6.59.92,8.21-2.15,1.39-2.62.9-6.83-2.15-8.21-3.53-1.6-7.31-1.76-10.76.22s-5.67,5.35-5.79,9.21c-.22,7.28,7.89,13.61,14.9,10.83,2.91-1.15,5.26-4.06,4.19-7.38-.91-2.82-4.26-5.43-7.38-4.19h0Z"/>
    <path class="cls-1" d="M202.46,119c7.72,0,7.73-12,0-12s-7.73,12,0,12h0Z"/>
  </g>
  <g id="Layer_3" data-name="Layer 3">
    <g>
      <path class="cls-4" d="M146.39,126.51c-.67-4.54-7.3-4.3-11.64-2.8-17.39,6.01-35.56,12.52-47.87,26.19s-16.15,36.86-3.2,49.93c4.64,4.69,10.79,7.53,16.85,10.15,8.03,3.47,16.15,6.72,24.35,9.76,8.13,3.01,16.45,5.85,23.58,10.79s13.04,12.37,13.95,20.99c-.82-18.93,16.39-32.83,29.21-46.77,7.9-8.59,14.6-18.27,19.86-28.68,1.86-3.67,3.56-7.56,3.72-11.67.29-7.31-4.31-13.89-9.42-19.12-14.6-14.96-35.28-23.82-56.19-24.07,9.07,8.69,20.34,15.07,32.46,18.38-3.49-5.54-8.11-10.36-13.5-14.08,13.4-1.81,27.57,4.28,35.47,15.26s9.18,26.35,3.22,38.48c-2.65,5.39-6.54,10.05-10.4,14.65-9.6,11.46-19.21,22.93-28.81,34.39-1.08,1.29-2.22,2.62-3.77,3.27-2.39,1-5.13.12-7.5-.93-13-5.79-23.14-16.74-36.07-22.67-12.4-5.68-28.7-8.08-33.86-20.7-4.82-11.8,3.9-24.83,13.86-32.77,23.02-18.34,55.66-23.81,83.4-13.98,7.75,2.75,15.75,7.31,18.41,15.09,2.57,7.53-.63,15.69-3.78,22.99-4.19,9.72-8.5,19.63-15.54,27.55s-17.4,13.64-27.92,12.42c-5.54-.64-10.68-3.12-15.67-5.63-12.25-6.17-24.28-12.79-36.05-19.83-5.18-3.1-11.06-9.08-7.74-14.13,3.62-5.52,12.14-1.27,16.94,3.26,13.45,12.68,26.9,25.35,40.35,38.03-18.02-21.6-50.58-30-62.32-55.57.87-6.17,9.96-6.24,15.58-3.54,25.47,12.22,37.68,43.59,63.45,55.16-9.54-13.21-23.9-21.93-36.54-32.22-12.64-10.29-24.45-23.87-25.29-40.15,30.74,8.54,42.64,48.23,71.69,61.41-13.82-23.73-40.87-37.29-55.14-60.74,9.99-1.9,18.35,7.07,24.98,14.77,12.41,14.43,26.41,27.49,41.66,38.87-12.15-13.28-24.31-26.56-36.46-39.85-5.96-6.52-12.36-14.4-10.89-23.1,17.79,15.37,35.58,30.73,53.36,46.1-11.95-11.66-23.9-23.32-35.84-34.98-2.25-2.2-3.77-7.08-.65-7.47,13.99,10.91,28.55,21.11,43.59,30.53-6.91-9.41-16.57-16.77-27.47-20.94,6.91,6.87,14.24,17.37,8.59,25.3-14.37.37-28.75.74-43.12,1.11-5.84.15-11.88.26-17.26-2.02s-9.91-7.65-9.26-13.46c9.92,7.2,19.09,15.41,27.35,24.47-6.46-10.38-14.47-19.8-23.69-27.83"/>
      <path class="cls-4" d="M153.62,124.52c-4.63-17.39-28.63-5.61-38.76-1.42-14.74,6.1-29.27,14.35-38.28,27.96-8.1,12.22-11.26,28.94-5.58,42.76,6.77,16.5,24.34,22.31,39.64,28.44s41.7,11.06,44.53,31.25c1.18,8.45,14.89,6.3,14.73-1.99-.29-15.02,12.28-26.14,21.91-36.1,6.23-6.44,12.08-13.16,17.19-20.54s10.39-15.57,12.71-24.17c4.82-17.89-10.45-32.52-23.82-41.72-14.16-9.74-31.17-14.9-48.3-15.29-6.39-.14-10.03,8.37-5.3,12.8,10.2,9.56,22.31,16.48,35.77,20.31,6.08,1.73,12.1-5.46,8.47-11.02-4.38-6.7-9.69-12.12-16.19-16.77-1.26,4.66-2.52,9.32-3.79,13.98,16.67-1.89,32.68,8.74,34.72,26.01,1.06,8.96-1.95,16.95-7.26,24.06-6.46,8.63-13.84,16.69-20.76,24.95-3.34,3.99-6.68,7.97-10.02,11.96-.98,1.18-2.69,4.33-4.21,4.87,1.44-.5.03-.3-.81-.87-1-.68-2.27-1.08-3.34-1.65-8-4.27-14.92-10.18-22.45-15.18s-15.05-7.9-23.16-10.89c-5.79-2.13-12.99-4.49-16.5-9.95-4.27-6.65-.09-14.71,4.44-20.02,5.62-6.61,13.21-11.43,20.95-15.19,14.73-7.16,32.34-9.72,48.49-6.9,7.74,1.35,16.77,3.43,22.94,8.61,7.33,6.17,3.5,15.33.32,22.75-6.14,14.34-15.93,36.94-35.07,35.61-4.78-.33-9.25-2.62-13.46-4.73-5.3-2.66-10.54-5.42-15.74-8.24s-10.37-5.74-15.48-8.73c-2.15-1.26-4.47-2.42-6.46-3.93-.19-.14-3.5-3.75-3.4-3.76,2.02-.1-1,1.91-1,1.96-.84-.02-.86.03-.05.17.4.09.8.2,1.2.31,1.62.82,3.13,1.72,4.53,2.88,4.7,3.91,8.99,8.45,13.44,12.64,9.13,8.6,18.25,17.2,27.38,25.8,7.11,6.7,16.82-3.33,10.61-10.61-9.28-10.88-21.57-18.47-33.34-26.33-11.09-7.41-21.92-15.37-27.81-27.72l.76,5.78c-.25,1.09-1.5-.25.35.25,1.26.34,2.59.15,3.9.61,3.26,1.15,6.38,3.35,9.16,5.38,6.58,4.81,12.15,11.01,17.53,17.1,10.96,12.39,21.75,25.62,37.08,32.75,5.98,2.78,15.22-3.58,10.26-10.26-9.82-13.22-23.07-22.1-35.81-32.21-11.42-9.07-23.87-20.92-25-36.38l-9.49,7.23c14.86,4.36,24.94,17.05,34.41,28.53,10.18,12.35,20.69,25.17,35.5,32.12,6.43,3.02,14.38-3.36,10.26-10.26-14.3-23.94-40.5-37.25-55.14-60.74l-4.48,11.02c5.08-.71,10.05,4.58,13.18,7.84,4.85,5.05,9.25,10.51,14.1,15.57,10.35,10.77,21.64,20.51,33.57,29.49,7.07,5.32,14.57-5.79,9.09-11.78-9.12-9.96-18.23-19.92-27.35-29.89-6.68-7.3-19.11-16.72-17.8-27.76l-12.8,5.3c17.79,15.37,35.58,30.73,53.36,46.1,7.23,6.24,17.6-3.78,10.61-10.61s-13.33-13.01-19.99-19.51c-3.22-3.14-6.43-6.28-9.65-9.42-1.61-1.57-3.25-3.11-4.83-4.71-.64-.44-1.16-.97-1.56-1.61-.81-2.4-2.07-.62-3.78,5.33l-7.3-1.93c14.53,11.29,29.53,21.9,45.1,31.7,6.01,3.78,14.89-4.13,10.26-10.26-8.42-11.15-18.96-19.22-31.95-24.39-7.29-2.9-12.17,7.57-7.3,12.54,3.51,3.57,10.82,10.76,7.42,16.21l6.48-3.71c-12.41.32-24.83.64-37.24.96-6.34.16-25.31,2.83-24.9-7.82l-11.29,6.48c9.38,6.88,17.96,14.74,25.83,23.3,5.74,6.24,16.34-1.87,11.78-9.09-6.89-10.91-15.19-20.8-24.86-29.35-7.21-6.37-17.86,4.2-10.61,10.61,8.74,7.73,16.28,16.44,22.51,26.31l11.78-9.09c-8.76-9.53-18.43-18-28.86-25.65-4.86-3.57-11.09,1.32-11.29,6.48-.44,11.47,9.1,20.07,19.76,22.16,11.83,2.32,24.83.54,36.8.24,6.2-.16,12.42-.19,18.62-.48,6.56-.31,9.99-4.19,11.13-10.57,1.91-10.65-5.44-20.43-12.46-27.58l-7.3,12.54c9,3.58,17.15,9.76,22.99,17.5l10.26-10.26c-9.93-6.24-19.66-12.78-29.15-19.67-4.58-3.32-8.94-7.21-13.68-10.27s-11.26-.8-13.21,4.75c-3.44,9.78,7.75,17.56,13.66,23.34,8.73,8.52,17.46,17.04,26.19,25.56l10.61-10.61c-17.79-15.37-35.58-30.73-53.36-46.1-5.24-4.52-12.04-1.2-12.8,5.3-1.65,13.98,9.69,24.7,18.29,34.1,10.42,11.38,20.84,22.77,31.25,34.15l9.09-11.78c-13.27-9.98-25.52-21.32-36.61-33.68-9.84-10.97-19.53-23.01-35.81-20.72-4.81.68-6.79,7.32-4.48,11.02,14.7,23.58,40.94,36.95,55.14,60.74l10.26-10.26c-14.85-6.97-24.69-20.48-34.94-32.77-10.55-12.66-22.29-24.63-38.55-29.4-4.41-1.29-9.85,2.37-9.49,7.23,1.28,17.45,11.58,31.7,24.45,42.9s28.22,19.55,38.41,33.26l10.26-10.26c-25.27-11.76-36.62-40.61-60.98-53.89-5.9-3.21-12.72-5.11-19.38-3.23-7.58,2.13-11.87,9.77-8.35,16.97,5.92,12.1,16.73,20.91,27.56,28.46,12.28,8.56,25.52,15.89,35.36,27.43l10.61-10.61c-10.57-9.96-21.13-19.92-31.7-29.88-7.57-7.13-17.48-18.86-29.38-15.79-12.69,3.27-11.45,17.99-3.76,25.55,4.48,4.4,10.5,7.32,15.9,10.41,5.96,3.4,11.97,6.7,18.05,9.89,10.91,5.73,22.25,12.43,35.03,10.73,12-1.6,22.08-9.06,29.27-18.5,7.38-9.69,12.75-21.73,16.73-33.21,4.02-11.6,2.92-24.07-6.89-32.39-16.97-14.38-44.44-15.71-65.29-11.65-20.88,4.07-45.36,16.11-54.93,36.22-5.02,10.54-4.53,22.62,3.42,31.6,6.46,7.3,16.17,10.51,25.05,13.76,10.88,3.99,19.66,10.38,29.05,17.02,8.65,6.12,22.24,16,32.22,7.15,5.5-4.87,10-11.59,14.72-17.22,5.01-5.98,10.02-11.96,15.03-17.94,9.13-10.91,17.02-21.69,17.55-36.45.97-26.98-23.04-49.28-49.89-46.23-7.48.85-10.09,9.47-3.79,13.98,4.31,3.08,7.92,6.96,10.81,11.39l8.47-11.02c-10.97-3.13-20.82-8.65-29.15-16.45l-5.3,12.8c14.89.34,29.21,5.11,41.39,13.69,5.63,3.97,11.84,9.23,15.05,15.45,3.91,7.57-.95,14.77-4.81,21.35-7.83,13.36-18.59,23.57-28.88,34.93-9.54,10.53-17.73,22.64-17.45,37.4l14.73-1.99c-2.02-14.38-13.9-24.74-26.43-30.53-14.17-6.55-29.3-10.81-43.43-17.51-5.77-2.74-11.4-6.02-14.35-11.93-2.3-4.62-2.76-10.14-2.04-15.21,1.83-12.84,10.39-22.65,21.07-29.35,6.39-4.01,13.27-7.1,20.31-9.77,3.47-1.31,6.96-2.57,10.47-3.76,1.19-.4,2.84-.57,3.91-1.17,2.2-1.23.99,1.97,0-1.78,2.48,9.32,16.95,5.37,14.46-3.99h0Z"/>
    </g>
    <path class="cls-4" d="M114.93,152.92c-5.85-3.91-13.66-1.08-16.98,4.73s-2.22,14.67-2.27,21.33c-.06,7.48,10.23,10.16,13.98,3.79,4.41-7.5,5.57-16.2,3.37-24.6-1.99-7.59-12.07-6.64-14.46,0-2.3,6.37-1.42,13.25,1.96,19.05s12.09,4.49,13.71-1.79c.21-.8.41-1.6.62-2.41,2.42-9.35-12.05-13.34-14.46-3.99-.21.8-.41,1.6-.62,2.41l13.71-1.79c-1.49-2.57-1.44-4.74-.44-7.49h-14.46c1.2,4.6.55,8.96-1.85,13.05l13.98,3.79c.02-3.36.04-6.71.07-10.07,0-.4.22-3.5.15-3.54-.35-.18-2.04,1.5-3.54.5,8.05,5.38,15.57-7.61,7.57-12.95h0Z"/>
  </g>
  <g id="Layer_1" data-name="Layer 1">
    <path class="cls-2" d="M148.54,271.7c-47.4-.9-103.69-9.97-128.39-56.09-24.54-45.83,10.95-93.8,45.6-122.18,18.75-15.36,40.46-27.75,64.12-33.56,21.05-5.17,42.89-4.12,63.51,2.43s38.44,17.78,53.05,32.9c15.43,15.97,28.74,38.24,29.67,60.91,1.24,30.18-20.07,54.65-41.73,72.89-11.21,9.44-22.98,18.41-35.44,26.15-5.9,3.67-12.01,7.04-18.34,9.91-3.21,1.45-6.49,2.74-9.83,3.88-1.64.56-3.3,1.11-4.97,1.56-.74.26-1.5.46-2.27.58-1.56-.1-1.29.81.82,2.76-.48-7.67-12.49-7.72-12,0,1.65,26.19,58.71-12.01,67.13-18.11,23.3-16.89,47.81-36.18,60.39-62.8,6.09-12.89,9.48-27.16,7.87-41.45-1.55-13.85-6.68-27.2-13.58-39.26-11.79-20.61-29.57-37.7-50.14-49.46-20.61-11.78-44.35-18.46-68.14-18.23-26.96.26-53.14,9.79-75.83,23.95C37.26,95.17-9.45,144.71,1.66,199.57c5.02,24.79,22.37,45.56,43.08,59.24,24.01,15.87,53.12,21.8,81.42,23.91,7.45.56,14.92.83,22.39.97s7.73-11.85,0-12h0Z"/>
    <path class="cls-2" d="M167.31,280.15c.78-14.61-4.13-28.92-13.25-40.3-9.91-12.36-24.03-18.15-38.84-22.48-13.26-3.88-29.49-7.65-37.65-20.01-9.2-13.94-.64-31.56,7.15-44.02,8.5-13.58,19.93-24.97,35.36-30.2s32.71-7.26,48.62-6.6c8.05.33,16.02,2.11,22.74,6.72,6.25,4.29,11.22,10.6,15.64,16.68,9.56,13.13,16.28,28.37,7.37,43.68-8.84,15.18-25.05,23.9-36.3,37.01-12.02,14.02-16.85,31.81-13.24,49.95,1.51,7.57,13.08,4.36,11.57-3.19-3.64-18.24,4.52-33.75,17.58-45.91,12.09-11.26,26.34-21.05,33.21-36.67s2.39-32.64-6.93-46.76c-9.25-14.01-20.79-27.45-37.73-31.64-16.47-4.08-34.91-1.48-51.36,1.54-17.29,3.18-32.84,10.39-44.88,23.42-11.1,12.01-21.24,28.09-23.99,44.42s3.9,30.95,17.65,40.32c15.76,10.74,35.66,11.22,52.01,20.5,15.42,8.76,24.2,25.99,23.26,43.54-.41,7.72,11.59,7.69,12,0h0Z"/>
    <path class="cls-2" d="M108.42,118.01c1.6,12.68,3.2,25.35,4.8,38.03.95,7.56,12.97,7.65,12,0-1.6-12.68-3.2-25.35-4.8-38.03-.95-7.56-12.97-7.65-12,0h0Z"/>
    <path class="cls-2" d="M137.19,116.5c2.35,12.56,5.19,25.02,8.53,37.36,2.01,7.45,13.59,4.29,11.57-3.19-3.34-12.34-6.18-24.79-8.53-37.36-1.42-7.58-12.99-4.37-11.57,3.19h0Z"/>
    <path class="cls-2" d="M167.83,116.8c4.72,11.14,8.85,22.52,12.51,34.05,1.47,4.63,6.5,5.46,10.03,2.65l.26-.21c1.93-1.54,2.32-5.27.94-7.27-.78-1.14-1.53-2.08-2.8-2.71-2.91-1.46-6.47-.78-8.21,2.15l-.17.29c-3.95,6.66,6.42,12.7,10.36,6.06l.17-.29-8.21,2.15-1.51-1.59.94-7.27-.26.21,10.03,2.65c-3.97-12.53-8.58-24.81-13.71-36.91-1.27-3.01-5.65-3.61-8.21-2.15-3.11,1.77-3.41,5.24-2.15,8.21h0Z"/>
    <path class="cls-2" d="M112.46,187h1c.83.03,1.6-.14,2.31-.52.74-.24,1.39-.66,1.93-1.24.59-.54,1-1.19,1.24-1.93.38-.72.55-1.49.52-2.31l-.21-1.6c-.29-1.02-.8-1.9-1.54-2.65l-1.21-.94c-.94-.54-1.95-.82-3.03-.82h-1c-.83-.03-1.6.14-2.31.52-.74.24-1.39.66-1.93,1.24-.59.54-1,1.19-1.24,1.93-.38.72-.55,1.49-.52,2.31l.21,1.6c.29,1.02.8,1.9,1.54,2.65l1.21.94c.94.54,1.95.82,3.03.82h0Z"/>
    <path class="cls-2" d="M186.46,179c7.72,0,7.73-12,0-12s-7.73,12,0,12h0Z"/>
    <path class="cls-2" d="M18.55,49.31c-1.9,6.81,1.17,13.32,4.04,19.42,2.66,5.65,6.33,11.08,11.8,14.34,11.48,6.85,25.63.89,32.28-9.73h-10.36c3.29,6.79,6.81,13.46,10.64,19.96,2.72,4.62,5.96,13.08,11.6,14.65,2.8.78,5.16-.59,6.78-2.76,1.12-1.5,1.22-3.54.72-5.29-.75-2.63-3.12-4.29-5.79-4.4h-.28c-7.72-.35-7.7,11.65,0,11.99h.28c-1.93-1.46-3.86-2.92-5.79-4.39l.11.37.6-4.62-.22.29,6.78-2.76c2.52.7,1.01-.28-.01-1.89-.67-1.06-1.34-2.13-1.99-3.2-1.64-2.68-3.24-5.39-4.78-8.12-2.94-5.2-5.68-10.5-8.28-15.87-2.05-4.24-8.14-3.56-10.36,0-3.51,5.61-11.05,9.1-16.89,4.73-2.69-2.01-4.38-5.13-5.85-8.07-1.57-3.14-4.43-7.91-3.44-11.45,2.08-7.45-9.5-10.63-11.57-3.19h0Z"/>
    <path class="cls-2" d="M232.23,30.7c3.06,14.04-10.69,23.78-23.36,18.83-2.84-1.11-6.84,1.24-7.38,4.19-1.43,7.74-2.86,15.49-4.29,23.23-.66,3.57-1.32,7.13-1.98,10.7-.57,3.06-1.38,5.95.56,8.7,1.38,1.96,4.23,3.82,6.78,2.76,2.25-.94,4.25-2.2,4.66-4.83.53-3.35-.83-6.25-4.19-7.38l-.29-.1c-7.33-2.47-10.48,9.11-3.19,11.57l.29.1-4.19-7.38-.08.48,4.19-4.19-.4.16,6.78,2.76c.33,1.68.55,1.86.65.55.1-.56.21-1.12.31-1.68.27-1.46.54-2.92.81-4.38.57-3.1,1.15-6.19,1.72-9.29,1.15-6.19,2.29-12.39,3.44-18.58l-7.38,4.19c21.81,8.53,42.93-11.47,38.12-33.59-1.64-7.54-13.21-4.35-11.57,3.19h0Z"/>
    <path class="cls-2" d="M242.46,12c7.72,0,7.73-12,0-12s-7.73,12,0,12h0Z"/>
    <path class="cls-2" d="M26.7,28.24l1-1c.59-.54,1-1.19,1.24-1.93.38-.72.55-1.49.52-2.31.03-.83-.14-1.6-.52-2.31-.24-.74-.66-1.39-1.24-1.93l-1.21-.94c-.94-.54-1.95-.82-3.03-.82l-1.6.21c-1.02.29-1.9.8-2.65,1.54l-1,1c-.59.54-1,1.19-1.24,1.93-.38.72-.55,1.49-.52,2.31-.03.83.14,1.6.52,2.31.24.74.66,1.39,1.24,1.93l1.21.94c.94.54,1.95.82,3.03.82l1.6-.21c1.02-.29,1.9-.8,2.65-1.54h0Z"/>
    <path class="cls-2" d="M167.2,276.8c1.87-5.22-3.04-9.87-8.1-9.03s-10.08,6.01-13.63,9.44c-7.78,7.52-17.97,19.71-16.01,31.35,2.14,12.65,15.69,15.33,24.46,7.21,8.92-8.26,13.37-20.92,14.18-32.77l-11.79,1.6c3.61,8.82,9.32,16.26,17.46,21.38s19.99,8,27.73.42c7.01-6.87,4.72-16.85-2.57-22.34-4.15-3.13-9.12-4.94-13.86-6.97-5.9-2.53-11.83-4.97-17.8-7.35-7.18-2.85-10.29,8.75-3.19,11.57s13.62,5.52,20.34,8.48c2.4,1.06,11.91,4.38,8.59,8.12-3.66,4.13-12.39-1.47-15.55-3.93-4.17-3.25-7.58-7.69-9.59-12.58-2.52-6.14-11.3-5.5-11.79,1.6-.41,6.03-2.13,11.87-5.18,17.1-1.19,2.05-8.43,13.09-9.72,6.37-.99-5.15,5.24-12.41,8.27-16.01,1.76-2.09,3.66-4.06,5.68-5.9,1.78-1.63,4.7-4.9,7.14-5.23l-4.62-.6-1.21-1.12-.6-4.62-.22.62c-2.61,7.28,8.98,10.42,11.57,3.19h0Z"/>
    <path class="cls-2" d="M141.18,275.14c-8.34,10.72-19.81,18.04-32.98,21.3-12.3,3.04-28.26,2.92-39.39-3.97-4.08-2.52,4.11-4.06,2.92-5.02,1.94,1.57-1.45,4.35-2.52,5.12-6.37,4.56-15.53,6.41-23.18,6.4-15.24-.01-29.53-9.24-33.34-24.41-1.88-7.49-13.45-4.31-11.57,3.19,4.46,17.79,20.22,30.37,38.12,32.73,9.97,1.32,20.09-.3,29.33-4.19,7.49-3.15,15.46-8.41,15.6-17.45.13-8.25-7.24-14.99-15.47-12.55-7.94,2.35-16.64,11.54-12.34,20.12,3.6,7.19,13.59,10.15,20.83,11.88,7.95,1.9,16.27,2.4,24.39,1.44,18.67-2.2,36.46-11.14,48.1-26.11,4.69-6.02-3.75-14.58-8.49-8.49h0Z"/>
    <path class="cls-2" d="M174.4,282.04c14.54,10.77,33.13,14.69,50.89,11.81,13.18-2.14,40.79-13.38,29.89-31.4-4.22-6.97-13.69-8.69-19.28-2.3-5.29,6.06-3.71,15.23,2.01,20.35,13.24,11.86,35.94,6.23,48.15-4.1,15.69-13.27,18.42-36.29,9.55-54.15-3.44-6.92-13.79-.85-10.36,6.06,6.29,12.66,4.15,29.02-6.56,38.64-4.63,4.15-10.67,6.93-16.84,7.75-5.36.71-14.51.48-17.22-5.08-.26-.53.11-1.37.45-1.79-.79-.04-.93.1-.42.42.41.5.66,1.07.73,1.71.27,2.69-3.52,5.04-5.4,6.16-5.8,3.48-12.62,5.54-19.32,6.35-14.34,1.74-28.65-2.24-40.21-10.8-6.21-4.6-12.2,5.81-6.06,10.36h0Z"/>
  </g>
</svg>