<?xml version="1.0" encoding="UTF-8"?>
<svg xmlns="http://www.w3.org/2000/svg" viewBox="0 0 331.76 700.57">
  <defs>
    <style>
      .cls-1 {
        fill: #000;
      }

      .cls-1, .cls-2, .cls-3, .cls-4 {
        stroke-width: 0px;
      }

      .cls-2 {
        fill: #7cc686;
      }

      .cls-3 {
        fill: #fff;
      }

      .cls-4 {
        fill: #393e99;
      }
    </style>
  </defs>
  <g id="Layer_7" data-name="Layer 7">
    <path class="cls-3" d="M218.44,362.83c-1.55.4-6.92-19.55-7.86-21.91-3.27-8.2-7.05-16.63-12.67-23.52-5.73-7.01-13.88-10.37-22.84-8.28-8.15,1.9-16.4,7.25-23.39,11.74-13.9,8.92-23.77,21.42-26.02,38.07-2.12,15.69,2.09,32.19,10.47,45.55,8.78,13.99,23.56,24.87,40.75,19.66s26.95-22.05,36.16-36.64c2.2-3.49,5.28-7.16,6.58-11.11,1.71-5.2-1.1-9.56-3.65-13.89-4.75-8.06-9.84-15.92-15.26-23.54-4.66-6.55-9.49-15.02-16.35-19.5-7.76-5.07-16.39-2.4-23.32,2.72-14.21,10.51-26.88,26.53-26.1,45.14s14.6,33.87,28.39,45.67c6,5.13,17.11-1.71,11.78-9.09-9.28-12.84-19.71-26.8-21.19-43.11l-13.98,3.79c7.68,11.21,15.36,22.41,23.04,33.62,3.13,4.57,6.17,10.79,10.9,13.95s11.38,3.01,15.26-1.48c2.16-2.49,3-6.12,1.17-9.09-11.11-18.02-22.23-36.05-33.34-54.07l-11.78,9.09c12.81,14.86,25.62,29.72,38.43,44.58,4.86,5.64,14.88-.34,12.54-7.3-3.63-10.78-10.44-19.48-17.45-28.26-5.99-7.5-12.99-15.88-13.96-25.81l-12.8,5.3c13.69,15.84,27.38,31.68,41.06,47.52,4.72,5.46,15.35-.35,12.54-7.3-4.44-10.96-11.18-20.16-18.43-29.41-6.76-8.62-13.84-17.42-17.41-27.93l-12.54,7.3c15.46,14.16,28.26,30.74,40.87,47.41,2.46,3.25,6.44,4.86,10.26,2.69,3.29-1.87,5.02-6.96,2.69-10.26-11.07-15.66-21.02-32.03-29.84-49.06l-11.78,9.09c9.46,9.02,18.37,18.56,26.71,28.63,6.17,7.44,16.73-3.22,10.61-10.61-8.34-10.06-17.25-19.61-26.71-28.63-6.26-5.97-15.69,1.54-11.78,9.09,8.81,17.03,18.77,33.4,29.84,49.06l12.95-7.57c-13.37-17.68-26.81-35.42-43.21-50.45-5.18-4.75-15.08-.19-12.54,7.3,3.79,11.16,10.34,20.52,17.5,29.74,6.73,8.66,14.17,17.32,18.34,27.6,4.18-2.43,8.36-4.86,12.54-7.3-13.69-15.84-27.38-31.68-41.06-47.52-4.07-4.71-13.43-1.1-12.8,5.3,1.16,11.86,6.74,21.48,13.9,30.75,6.61,8.56,14.53,16.87,18.05,27.31,4.18-2.43,8.36-4.86,12.54-7.3-12.81-14.86-25.62-29.72-38.43-44.58-5.59-6.48-16.21,1.9-11.78,9.09,11.11,18.02,22.23,36.05,33.34,54.07l1.17-9.09c3.26.44,4.22-.03,2.88-1.43l-2.19-3.2c-1.1-1.6-2.19-3.2-3.29-4.8-2.56-3.74-5.12-7.47-7.68-11.21-5.12-7.47-10.24-14.94-15.36-22.41-3.8-5.55-14.7-4.26-13.98,3.79,1.75,19.38,12.11,35.29,23.23,50.68l11.78-9.09c-8.65-7.39-18.08-15.76-22.19-26.69-4.19-11.15-.36-22.42,7.05-31.22,3.65-4.33,8.09-8.7,13.02-11.55,2.5-1.45,3.49-1.78,5.61.2s3.8,4.55,5.51,6.83c4.16,5.55,8.15,11.24,11.95,17.05,1.98,3.03,3.91,6.09,5.79,9.19,1.62,2.67,4.33,5.97,4.81,9.05v-3.99c-1.15,3.8-4.87,7.81-6.98,11.17-2.65,4.2-5.24,8.45-8.1,12.52-4.55,6.48-10.39,12.81-18.29,14.95-15.96,4.32-26.38-15.87-29.93-28.34-4.08-14.3-2.65-30.32,8.47-41.09,6.08-5.88,13.77-9.91,21.19-13.83,3.05-1.61,7.07-4.19,10.63-2.92s5.76,5.68,7.45,8.64c5.18,9.03,8.53,18.53,11.23,28.54s9.68,19.42,21.25,16.41c9.33-2.43,5.38-16.91-3.99-14.46h0Z"/>
    <path class="cls-3" d="M243.13,380.12c-2.16,7.55-4.22,15.13-6.18,22.73-.67,2.58,0,5.41,1.93,7.3,9.5,9.32,20.44,16.98,32.55,22.53,6.16,2.82,14.88-3.43,10.26-10.26-6.63-9.81-13.26-19.62-19.9-29.43l-11.78,9.09c6.07,6.46,12.14,12.91,18.21,19.37,5.32,5.66,12.85,9.75,18.52,1.84,1.56-2.18,1.19-5.35,0-7.57-7.39-13.81-14.79-27.63-22.18-41.44l-11.78,9.09c8.12,9.98,15.84,20.26,23.2,30.81,2.16,3.09,5.75,4.59,9.37,3.07,3.12-1.31,5.74-5.37,4.34-8.85-6.08-15.13-12.17-30.25-18.25-45.38-4.57,1.93-9.14,3.85-13.71,5.78,8.4,11.54,13.88,24.35,16.42,38.4,1.56,8.63,14.4,6.11,14.73-1.99,1.32-32.04,1.83-64.69-11.69-94.51-3.09-6.82-14.35-3.37-13.98,3.79,1.2,22.97,2.4,45.94,3.6,68.91l14.73-1.99c-2.98-21.23-5.96-42.45-8.94-63.68-1.19-8.47-14.82-6.28-14.73,1.99.22,20.08.45,40.16.67,60.25l14.73-1.99c-2.97-18.12-5.93-36.24-8.9-54.35-1.36-8.29-15.35-6.42-14.73,1.99,1.47,19.85,1.55,39.73.25,59.59l14.73-1.99c-5.46-13.56-7.6-27.63-6.38-42.2.7-8.33-13.34-10.35-14.73-1.99-2.49,14.94-3.21,29.94-1.75,45.03.91,9.44,15.5,9.77,15,0-.88-17.13-1.14-34.28-.77-51.43h-15c.84,7.19,1.16,14.37.97,21.6-.22,8.23,13.56,10.51,14.73,1.99,1.89-13.7,1.55-27.13-1.32-40.68-1.81-8.52-14.45-6.21-14.73,1.99-.24,7.14,1.38,13.74,4.47,20.15,3.65,7.58,16.61,2.24,13.71-5.78-2.28-6.3-4.56-12.61-6.84-18.91l-12.54,7.3,9.03,8.75c5.36,5.2,14.48,0,12.54-7.3-1.44-5.42-2.89-10.83-4.33-16.25l-12.54,7.3c3.21,2.6,6.42,5.21,9.63,7.81,2.63,2.13,6,2.98,9.09,1.17,2.62-1.53,4.7-5.46,3.45-8.47-1.96-4.71-3.92-9.42-5.88-14.14-3.08,3.08-6.15,6.15-9.23,9.23,2.77.96,4.16,2.91,5.33,5.49l12.95-7.57c-2.42-4.42-4.84-8.84-7.26-13.26l-10.26,10.26c3.4,1.89,5.81,4.23,7.75,7.6l11.78-9.09c-3.8-3.94-6.26-8.38-7.67-13.65l-11.02,8.47c3.66,2.2,10.97,7.56,10.77,12.43l1.02-3.79,1.95-1.03h3.99l-1.15-.18c-4.03-.61-8.02,1.02-9.23,5.24-1.01,3.54,1.24,8.62,5.24,9.23,10.63,1.62,15.74-8.11,11.48-17.23-3.47-7.44-9.52-13.44-16.5-17.62-5.66-3.39-12.7,2.21-11.02,8.47,2.08,7.74,5.97,14.51,11.53,20.27,5.95,6.16,16.01-1.72,11.78-9.09-3.16-5.5-7.58-9.9-13.13-12.98-6.62-3.68-13.88,3.66-10.26,10.26,2.42,4.42,4.84,8.84,7.26,13.26,4.72,8.62,16.86,1.05,12.95-7.57-2.79-6.15-8.01-10.21-14.29-12.38-5.01-1.73-11.41,3.98-9.23,9.23,1.96,4.71,3.92,9.42,5.88,14.14l12.54-7.3c-3.21-2.6-6.42-5.21-9.63-7.81-5.54-4.49-14.61-.47-12.54,7.3,1.44,5.42,2.89,10.83,4.33,16.25l12.54-7.3-9.03-8.75c-5.07-4.91-15.19-.05-12.54,7.3,2.28,6.3,4.56,12.61,6.84,18.91l13.71-5.78c-1.94-4.03-2.57-8.14-2.42-12.58l-14.73,1.99c2.28,10.71,2.82,21.84,1.32,32.7l14.73,1.99c.2-7.23-.13-14.41-.97-21.6-1.1-9.35-14.79-9.91-15,0-.37,17.15-.11,34.3.77,51.43h15c-1.32-13.69-1.05-27.47,1.21-41.04l-14.73-1.99c-1.32,15.71,1.03,31.56,6.91,46.18,3.1,7.71,14.15,6.85,14.73-1.99,1.3-19.86,1.22-39.75-.25-59.59l-14.73,1.99c2.97,18.12,5.93,36.24,8.9,54.35,1.38,8.45,14.82,6.3,14.73-1.99-.22-20.08-.45-40.16-.67-60.25-4.91.66-9.82,1.33-14.73,1.99,2.98,21.23,5.96,42.45,8.94,63.68,1.17,8.36,15.17,6.38,14.73-1.99-1.2-22.97-2.4-45.94-3.6-68.91-4.66,1.26-9.32,2.52-13.98,3.79,12.28,27.09,10.84,57.93,9.64,86.93l14.73-1.99c-2.74-15.14-8.88-29.54-17.93-41.98-2.22-3.05-5.69-4.62-9.37-3.07-3.12,1.31-5.74,5.37-4.34,8.85,6.08,15.13,12.17,30.25,18.25,45.38,4.57-1.93,9.14-3.85,13.71-5.78-8.09-11.6-16.62-22.88-25.54-33.85-5.56-6.83-15.64,1.88-11.78,9.09,7.39,13.81,14.79,27.63,22.18,41.44v-7.57l-.49.69,4.48-3.45-.82.17h3.99c1.1.26-.11-.15-.81-.91-.86-.93-1.73-1.84-2.6-2.77-1.95-2.08-3.9-4.15-5.85-6.23-3.69-3.92-7.37-7.84-11.06-11.76-5.74-6.1-16.61,1.94-11.78,9.09,6.63,9.81,13.26,19.62,19.9,29.43l10.26-10.26c-11.01-5.05-20.87-11.71-29.51-20.19l1.93,7.3c1.96-7.6,4.03-15.18,6.18-22.73,2.66-9.3-11.81-13.27-14.46-3.99h0Z"/>
  </g>
  <g id="Layer_6" data-name="Layer 6">
    <path class="cls-2" d="M98.23,364.48c-2.99,31.94,8.56,64.69,30.59,87.98,11.16,11.8,26.48,23.12,43.64,19.01,16.09-3.86,26.71-19.41,35.45-32.24,11.57-16.98,20.83-35.36,28.08-54.58l-14.46-3.99c-4.81,17.22-14.41,32.52-27.4,44.77-12.81,12.08-30.28,19.16-36.99,36.53-2.67,6.9,7.84,12.92,12.54,7.3,8.26-9.89,16.52-19.78,24.78-29.67,5.11-6.12-1.44-16.72-9.09-11.78-12.07,7.8-25.07,13.26-39.09,16.41,2.43,4.18,4.86,8.36,7.3,12.54,4.47-5.71,9.92-10.02,16.82-12.39-1.93-4.57-3.85-9.14-5.78-13.71-13.67,7.71-32.43,2.77-40.54-10.66l-10.26,10.26c9.16,4.35,18.32,8.7,27.48,13.05,8.62,4.09,16.22-8.45,7.57-12.95-12.13-6.31-22.51-14.75-31.22-25.28l-9.09,11.78c12.27,8.9,25.31,16.58,39.05,22.99,1.93-4.57,3.85-9.14,5.78-13.71-27.02-5.5-38.46-32.75-43.29-57.1l-14.46,3.99c6.62,17.82,15.2,34.73,25.92,50.44,2.12,3.11,5.77,4.58,9.37,3.07,3.1-1.3,5.77-5.39,4.34-8.85-6.83-16.54-12.27-33.58-16.3-51.02l-14.46,3.99c2.18,9.02,2.86,18,2.27,27.26h15c-1.24-17.39-2.48-34.79-3.72-52.18-.59-8.32-12.13-10.33-14.73-1.99-4.34,13.89-6.73,28.28-7.25,42.82h15c-.04-12.91-.09-25.82-.13-38.73-.01-4.05-3.44-7.5-7.5-7.5-4.49,0-6.97,3.47-7.5,7.5-3.93,29.81,3.69,60.76,20.86,85.43,4.57,6.57,16.49,2.82,13.71-5.78-5.85-18.06-11.7-36.12-17.55-54.19-4.35-13.43-10.81-31.84,2.11-42.66l-12.54-7.3c-1.66,7.54-3.32,15.08-4.98,22.63l14.46,3.99c3.68-17.02,7.55-35.34,20.54-47.9l-11.78-9.09c-11.21,19.08-22.33,40.78-16.07,63.44,1.96,7.09,12.55,7.19,14.46,0,3.63-13.63,8.82-26.57,15.68-38.89l-13.71-5.78c-5.7,17.62-11.41,35.24-17.11,52.86-1.15,3.56,1.06,7.46,4.34,8.85,3.69,1.56,7.09-.03,9.37-3.07,9.36-12.47,13.03-27.68,18.77-41.92,4.59-11.4,11.91-23.79,24.38-27.53-2.43-4.18-4.86-8.36-7.3-12.54-8.94,7.74-19,13.87-29.83,18.59l11.29,6.48c.19-6.6,8.86-10.18,13.75-12.9,6.58-3.66,12.98-8.02,16.34-15.01,2.57-5.35-1.79-13.41-8.47-11.02-10.56,3.79-21.11,7.57-31.67,11.36l7.3,12.54c19.37-16.48,50.86-15.09,69.07,2.41l9.09-11.78-30.7-15.26c-3.97-1.97-7.66-.73-10.26,2.69s-6.32,5.41-10.35,6.48c-8.15,2.16-6.51,14.8,1.99,14.73,10.51-.08,20.76,1.14,30.94,3.74l1.99-14.73c-22.72-1.43-45.35,7.57-61.01,24.07-5.62,5.92,1.84,16.85,9.09,11.78,8.44-5.91,17.68-9.93,27.82-11.87,8.71-1.66,22.06-2.85,29.83,2.41,7.31,4.95,7.75,16.64,10.05,24.36,3.21,10.81,8.17,21.08,14.56,30.37,3.19,4.63,12.72,5.2,13.71-1.79,6.11-43.28-21.28-87.33-63.51-99.8l-1.99,14.73c33.88-2.5,43.61,38.61,48.68,63.94l14.46-3.99c-3.9-10.86-7.81-21.73-11.71-32.59-3.24-9.02-17.74-5.13-14.46,3.99,3.9,10.86,7.81,21.73,11.71,32.59,3.26,9.08,16.37,5.53,14.46-3.99-3.73-18.64-7.92-38.02-19.83-53.37-10.26-13.21-26.15-22.86-43.31-21.59-8.23.61-10.43,12.24-1.99,14.73,33.66,9.93,57.99,46.28,53.04,81.35l13.71-1.79c-7.34-10.67-11.99-22.04-15.07-34.58-2.7-11.02-6.79-21.98-17.8-27.04s-24.36-4.7-36.05-2.84-23.81,6.78-33.86,13.81l9.09,11.78c13.14-13.84,31.39-20.87,50.41-19.67,8.5.54,10.11-12.66,1.99-14.73-11.42-2.92-23.14-4.37-34.93-4.28l1.99,14.73c8.12-2.15,14.28-6.76,19.31-13.37l-10.26,2.69c10.23,5.09,20.47,10.17,30.7,15.26,7.32,3.64,15.53-5.59,9.09-11.78-24.42-23.47-64.63-24.24-90.28-2.41-5.63,4.79.36,15.02,7.3,12.54,10.56-3.79,21.11-7.57,31.67-11.36l-8.47-11.02c-3.56,7.4-12.23,9.69-18.6,14.06-7.47,5.12-13.26,12.01-13.53,21.42-.18,6.23,6.38,8.62,11.29,6.48,12.03-5.25,22.95-12.35,32.87-20.94,5.74-4.97-.36-14.61-7.3-12.54-15.04,4.5-25.31,16.91-31.75,30.73-7.06,15.14-10.17,32.03-20.36,45.61l13.71,5.78c5.7-17.62,11.41-35.24,17.11-52.86,2.62-8.11-9.59-13.18-13.71-5.78-7.46,13.4-13.25,27.65-17.19,42.47h14.46c-5.09-18.44,5.53-36.51,14.56-51.88,4.35-7.4-5.66-15-11.78-9.09-14.93,14.44-20.15,34.88-24.39,54.52-2.03,9.41,12.38,13.43,14.46,3.99,1.66-7.54,3.32-15.08,4.98-22.63s-6.82-12.08-12.54-7.3c-14.85,12.43-13.3,33.28-8.27,50.01,6.2,20.59,13.22,40.97,19.84,61.43,4.57-1.93,9.14-3.85,13.71-5.78-15.87-22.82-22.44-50.31-18.81-77.86h-15c.04,12.91.09,25.82.13,38.73.03,9.68,14.65,9.63,15,0,.48-13.26,2.76-26.17,6.72-38.84l-14.73-1.99c1.24,17.39,2.48,34.79,3.72,52.18.69,9.62,14.38,9.68,15,0,.68-10.52-.33-21.01-2.8-31.25-2.27-9.39-16.64-5.41-14.46,3.99,4.03,17.44,9.47,34.47,16.3,51.02,4.57-1.93,9.14-3.85,13.71-5.78-9.97-14.61-18.24-30.27-24.4-46.85-3.35-9.02-16.36-5.57-14.46,3.99,5.81,29.36,21.68,61.04,53.76,67.58,7.79,1.59,13.95-9.9,5.78-13.71-13.74-6.41-26.78-14.08-39.05-22.99-7.37-5.35-14.11,5.71-9.09,11.78,9.44,11.41,21.13,20.8,34.26,27.63l7.57-12.95c-9.16-4.35-18.32-8.7-27.48-13.05-6.41-3.05-14.4,3.39-10.26,10.26,12.34,20.46,40.25,27.79,61.06,16.05,7.25-4.09,2.41-16.51-5.78-13.71-9.25,3.16-17.39,8.51-23.44,16.25-4.49,5.74-.51,14.29,7.3,12.54,15.16-3.42,29.62-9.49,42.68-17.93l-9.09-11.78c-8.26,9.89-16.52,19.78-24.78,29.67,4.18,2.43,8.36,4.86,12.54,7.3,2.88-7.44,10.3-12.29,16.53-16.71,7.5-5.32,14.7-10.93,21.03-17.62,12.56-13.27,21.9-29.35,26.82-46.96,2.64-9.46-11.12-12.86-14.46-3.99-5.42,14.38-12.23,28.2-20.28,41.29-6.91,11.23-14.94,25.33-26.51,32.39-12.85,7.83-25.3-2.22-34.22-11.36-9.37-9.61-16.78-21.32-21.43-33.91-5.29-14.34-7.26-29.36-5.84-44.58.9-9.61-14.11-9.55-15,0h0Z"/>
  </g>
  <g id="Layer_8" data-name="Layer 8">
    <path class="cls-4" d="M132.78,275.66c-14.88,3.48-.82,24.74,6.86,28.28,5.83,2.69,13.09,2.21,17.78-2.5,4.38-4.4,5.11-10.87,5.17-16.76l-11.79,1.6c3.43,10.28,16.23,13.91,24.38,6.43,8.87-8.14,6.09-21.56-2.27-28.82-5.81-5.04-14.33,3.41-8.49,8.49,2.74,2.38,5.6,5.99,3.83,9.83-.99,2.16-4.8,4.12-5.88.88-2.1-6.3-11.71-5.38-11.79,1.6-.04,3.16.28,9.34-4.33,8.86-2.29-.24-4.03-2.13-5.26-3.91-.61-.88-1.13-1.87-1.6-2.82-.38-.63-.67-1.3-.86-2.01-.37-1.65-1.23-.84-2.57,2.43,7.52-1.76,4.33-13.33-3.19-11.57h0Z"/>
    <path class="cls-4" d="M197.17,278.61c-1.07,2.63-.56,5.79.69,8.26s3.57,4.29,6.27,5.21c1.83.63,4.59,0,5.84-1.54,2.16-2.68,3.47-6.23,2.11-9.63-.6-1.5-1.31-2.74-2.76-3.59-1.29-.75-3.18-1.07-4.62-.6-2.81.91-5.44,4.26-4.19,7.38.09.21.17.42.22.64-.1-1.04-.14-1.24-.13-.59.18-1.03.18-1.23.02-.6.14-.59.43-1.08.87-1.49l5.84-1.54c.38.13,1.2.74.48.17-.56-.44,1.09.8.51.39-.81-.57.24.02.27.41-.01-.14-.58-1.19-.11-.09.39.92.11.24.06,0-.15-.69,0,1.55.07.56.06-.87-.16.67-.14.71-.07-.09.24-.77.27-.86.55-1.34.09-3.43-.6-4.62s-2.16-2.43-3.59-2.76c-1.54-.35-3.26-.27-4.62.6s-2.13,2.06-2.76,3.59h0Z"/>
    <path class="cls-4" d="M210.45,315.72c.75-2.07,3.38-3.31,5.47-2.66,1.3.4,2.33,1.79,3.06,2.83.55.88,1.05,1.79,1.5,2.73.36,2.13,1.63,2.13,3.79-.02-6.64-2.67-9.9,7.38-4.62,10.97s1.19,9.43-4.05,9.02c-7.7-.6-7.66,11.41,0,12s15.37-4.15,17.67-11.58-1.09-15.41-7.56-19.8l-4.62,10.97c5.44,2.19,11.12-2.06,12-7.49.96-5.9-2.94-13.04-7.07-17.03-9-8.67-23.01-4.41-27.12,6.88-2.65,7.27,8.95,10.4,11.57,3.19h0Z"/>
    <path class="cls-4" d="M129.49,324.3c.68-.4,1.57-.51,2.33-.39.29.05,1.7.7,1.04.28,1.41.9,1.89,2.47,1.55,4.07l-4.19,4.19c.25-.1.5-.17.76-.23.66-.13.52-.11-.41.05.27-.01.53,0,.8.01-.86-.14-1.07-.16-.61-.06,1.42.51-.74-.64.25.02.23.13.46.27.68.42-.68-.54-.78-.59-.31-.15,2.23,2.22,6.29,2.39,8.49,0s2.38-6.12,0-8.49c-2.22-2.21-4.99-3.41-8.09-3.7-3.64-.34-7.91.99-8.96,4.9-1.93,7.17,6.54,13.07,12.74,9.43,2.71-1.59,3.91-5.48,2.15-8.21s-5.31-3.86-8.21-2.15h0Z"/>
    <path class="cls-4" d="M103.64,347.64c.42,1.64-.36.13,1.02,2.13.7,1.01.95,2.41,1.06,3.6.32,3.5-.91,7.08-3.13,9.77l10.24,4.24-3.12,3.64c.56.53,1.07,1.11,1.53,1.72.63.81,1.2,1.65,1.67,2.57,1.08,2.09,1.73,4.42,1.2,6.76-.78,3.44-4.29,6.07-7.11,3-3.31-3.6-10.79-.99-10.24,4.24-.04-.42,1.41-1.24,1.69-1.03-6.17-4.65-12.16,5.77-6.06,10.36,6.64,5,17.23-1.12,16.36-9.33l-10.24,4.24c10.89,11.84,27.86.63,27.78-13.44-.04-7.02-3.98-14.27-9.33-18.7-6.28-5.19-15.66-2.92-16.14,5.95-.27,4.94,6.94,8.26,10.24,4.24,7-8.51,10.02-22.54,1.4-31.22-8.14-8.21-23.44-1.5-20.41,10.43,1.9,7.48,13.47,4.31,11.57-3.19h0Z"/>
    <path class="cls-4" d="M129.63,408.72c-3.97-.41-7.99,2.66-9.06,6.4-1.13,3.95.75,8.45,4.41,10.36,2.44,1.27,5.12,1.18,7.44-.3,1.43-.91,2.7-2.21,3.51-3.72,1.71-3.19,1.79-7.06-.07-10.21-1.6-2.7-5.48-3.92-8.21-2.15s-3.86,5.32-2.15,8.21c.41.69-.18-.49-.22-.63.3,1.06-.06-1.23-.02-.58.01.26-.07.97.08-.05.2-1.37-.08.07-.08.08-.05-.18.7-1.27.25-.6s.34-.44.43-.48c-.16.08-.93.86-.05.13.42-.3.5-.38.24-.22-.41.23-.16.13.75-.3h3.19c.17.05,1.25.64.56.22.53.32.93.72,1.27,1.24-.43-.67.17.37.22.56l.12.97c-.2,1.01-.24,1.28-.12.81.09-.3.05-.21-.12.28-.07.3-.22.57-.44.79-.15.27-.36.47-.64.62-.41.28-.49.34-.23.18.27-.16.17-.13-.29.09-.28.17-.58.24-.91.23-.96.18-.18.04.15.08,3.13.33,6.13-2.99,6-6-.16-3.53-2.64-5.65-6-6h0Z"/>
    <path class="cls-4" d="M129.4,447.42c1.13-2.37,7.54,3.37,8.78,4.61,2.43,2.42,4.64,6.02,1.38,8.65-6.01,4.85,2.52,13.29,8.49,8.49,8.97-7.24,4.98-19.96-2.42-26.58-6.98-6.24-20.97-12.97-26.58-1.21-3.31,6.94,7.03,13.03,10.36,6.06h0Z"/>
    <path class="cls-4" d="M165.12,423.82c-8.34,6.19-13.78,17.27-6.8,26.72,6.71,9.09,19.65,6.55,23.78-3.33l-11.79-1.6c.1,6.57,4.61,12.65,11.45,13.32s12.78-4.18,13.86-10.71l-7.38,4.19c6.56,1.4,12.53-1.78,15.36-7.87,3.17-6.81.33-13.94-2.58-20.28l-9.42,7.27c3.75,4.48,10.73,3.47,14.2-.78,4.38-5.37,1.43-12.36-3.25-16.38-5.83-5.01-14.36,3.44-8.49,8.49.73.52,1.35,1.15,1.87,1.87.5-2.27,1.89-2.83,4.15-1.68-4.68-5.6-12.07,1.54-9.42,7.27.45.99,4.38,11.29.78,10.52-2.91-.62-6.83.84-7.38,4.19-.24,1.47-1.7,3.14-1.74.59-.11-7.24-9.3-7.53-11.79-1.6-.9,2.16-3.36-2.33-3.41-3.07-.17-2.73,2.01-5.25,4.06-6.77,6.13-4.55.16-14.97-6.06-10.36h0Z"/>
    <path class="cls-4" d="M210.25,399.38c-2.97,4.78-.16,10.75,4.89,12.44,2.58.86,5.4-.6,6.78-2.76,1.56-2.44,1.91-5.42,1.31-8.22s-2.39-4.98-4.7-6.69c-2.53-1.88-6.81-.5-8.21,2.15-1.66,3.14-.55,6.21,2.15,8.21-.74-.61-.89-.7-.44-.27-.57-.78-.68-.91-.34-.39.29.56.22.4-.19-.5.07.22.13.44.17.66-.11-1.03-.15-1.22-.13-.57-.04.65,0,.46.1-.58-.18.61-.09.45.27-.47-.1.21-.21.4-.34.59l6.78-2.76c1.23.41,2.26,1.26,2.6,2.55.08,1.11.12,1.34.11.71-.82,2.19-.96,2.83-.43,1.92,1.66-2.67.66-6.72-2.15-8.21s-6.44-.7-8.21,2.15h0Z"/>
    <path class="cls-4" d="M227.46,389.43c7.72,0,7.73-12,0-12s-7.73,12,0,12h0Z"/>
  </g>
  <g id="Layer_5" data-name="Layer 5">
    <path class="cls-1" d="M228.94,372.89c2.28,18.44-3.67,35.88-12.83,51.69-8.23,14.21-18.87,30.57-33.09,39.44-30.85,19.22-63.49-17.61-75.09-43.1-13.31-29.24-13.96-64.54-3.46-94.71,10.67-30.67,37.42-56.92,71.74-55.33,18.45.85,34.23,11.85,44,27.15,11.59,18.16,14.02,40.07,12.83,61.15-.44,7.72,11.57,7.69,12,0,1.22-21.63-1.43-44.1-12.13-63.29-8.83-15.83-23.07-28.96-40.59-34.33-37.49-11.48-75.64,12.61-92.58,45.44-16.97,32.89-18.96,74.21-6.63,108.98,5.96,16.79,15.33,32.53,28.42,44.74,14.04,13.1,33.12,23.39,52.85,19.59,21.26-4.09,35.95-24.68,47.08-41.59,12.76-19.38,22.41-42.21,19.49-65.84-.94-7.56-12.95-7.66-12,0h0Z"/>
    <path class="cls-1" d="M242.1,363.93c-11.89-1.66-22.18,4.07-29.28,13.46-7.47,9.87-10.35,22.39-18.07,32.1-6.8,8.56-16.8,14.8-28.08,13.47-10.82-1.28-20.49-8.43-26.16-17.52-12.34-19.8-11.34-50.4,1.41-69.71,6.01-9.1,15.11-16.53,25.15-20.75s22.6-5.22,29.87,3.98c8.46,10.72,7.64,26.36,13.32,38.45s16.52,19.61,29.58,17.71c7.61-1.11,4.38-12.67-3.19-11.57-5.58.81-10.8-3.59-13.7-7.89-3.85-5.72-5.17-12.82-6.7-19.42-2.78-11.96-6.65-24.74-17.63-31.7-21.27-13.5-49.97,3.12-63.51,20.26-15.97,20.22-19.26,51.05-10.51,75.05,8.18,22.43,31.82,41.5,56.71,33.55,13.32-4.26,23.33-15.05,29.65-27.19,5.47-10.52,12.23-32.88,27.93-30.7,7.55,1.05,10.82-10.51,3.19-11.57h0Z"/>
    <path class="cls-1" d="M127.39,392.17c6.59,4.14,13.74,7.3,21.22,9.44s10.61-9.44,3.19-11.57c-6.56-1.88-12.58-4.61-18.35-8.23-6.56-4.12-12.59,6.26-6.06,10.36h0Z"/>
    <path class="cls-1" d="M128.45,371.92c7.98-.14,15.89-1.09,23.69-2.77s4.35-13.2-3.19-11.57c-6.78,1.46-13.56,2.22-20.5,2.34-7.71.14-7.74,12.14,0,12h0Z"/>
    <path class="cls-1" d="M134.06,350.76c6.36-2.59,12.73-5.19,19.09-7.78,3-1.22,5.12-3.99,4.19-7.38-.78-2.84-4.36-5.42-7.38-4.19l-19.09,7.78c-3,1.22-5.12,3.99-4.19,7.38.78,2.84,4.36,5.42,7.38,4.19h0Z"/>
    <path class="cls-1" d="M167.45,414.94c7.72,0,7.73-12,0-12s-7.73,12,0,12h0Z"/>
    <path class="cls-1" d="M171.45,332.94c7.72,0,7.73-12,0-12s-7.73,12,0,12h0Z"/>
    <path class="cls-1" d="M66.8,305.09c5.27-1.79,12.41-4.31,17.65-1.14,1.61.98,3.36,2.93,3.59,4.88.29,2.34-1.64,4.34-2.27,6.51-1.61,5.52,1.47,9.68,6.61,11.37,6.39,2.11,12.8,3.82,19.02,6.46,3,1.27,6.39.88,8.21-2.15,1.5-2.5.83-6.95-2.15-8.21-2.09-.88-21.01-9.1-21.89-7.67.99,3.05,1.8,3.75,2.42,2.1.38-.67.7-1.37.96-2.09.56-1.41.88-2.54,1.03-4.08.31-3-.3-5.9-1.56-8.63-6.38-13.86-22.5-13.11-34.81-8.92-7.27,2.47-4.15,14.07,3.19,11.57h0Z"/>
    <path class="cls-1" d="M77.42,460.91c11.25-.13,27.37-.95,33.58-12.08,2.64-4.74,2.55-10.5-.4-15.05-2.45-3.77-7.14-5.68-8.98-9.79l-2.15,8.21c6.54-2.99,12.85-6.36,18.97-10.14,6.56-4.05.54-14.44-6.06-10.36-6.12,3.78-12.43,7.15-18.97,10.14-3.17,1.45-3.36,5.5-2.15,8.21s3.26,4.82,5.51,6.76c1.9,1.64,4.81,3.14,3.87,5.97-1.14,3.45-6.85,4.33-9.75,4.91-4.44.89-8.94,1.18-13.47,1.23-7.72.09-7.74,12.09,0,12h0Z"/>
    <path class="cls-1" d="M47.45,293.94h-1c-.83-.03-1.6.14-2.31.52-.74.24-1.39.66-1.93,1.24-.59.54-1,1.19-1.24,1.93-.38.72-.55,1.49-.52,2.31l.21,1.6c.29,1.02.8,1.9,1.54,2.65l1.21.94c.94.54,1.95.82,3.03.82h1c.83.03,1.6-.14,2.31-.52.74-.24,1.39-.66,1.93-1.24.59-.54,1-1.19,1.24-1.93.38-.72.55-1.49.52-2.31l-.21-1.6c-.29-1.02-.8-1.9-1.54-2.65l-1.21-.94c-.94-.54-1.95-.82-3.03-.82h0Z"/>
    <path class="cls-1" d="M61.45,448.94h-1c-.83-.03-1.6.14-2.31.52-.74.24-1.39.66-1.93,1.24-.59.54-1,1.19-1.24,1.93-.38.72-.55,1.49-.52,2.31l.21,1.6c.29,1.02.8,1.9,1.54,2.65l1.21.94c.94.54,1.95.82,3.03.82h1c.83.03,1.6-.14,2.31-.52.74-.24,1.39-.66,1.93-1.24.59-.54,1-1.19,1.24-1.93.38-.72.55-1.49.52-2.31l-.21-1.6c-.29-1.02-.8-1.9-1.54-2.65l-1.21-.94c-.94-.54-1.95-.82-3.03-.82h0Z"/>
    <path class="cls-1" d="M232.54,373.69c1.23,8.42,5.68,16.39,12.21,21.87,5.71,4.79,16.41,11.27,21.63,2.37,8.39-14.3-11.25-42.46-27.43-31.7-5.29,3.51-2.01,13.73,4.62,10.97,8.99-3.74,18.87-8.59,25.22-16.23,5.59-6.72,7.21-17.15.3-23.68-7.91-7.47-18.31-1.67-25.1,4.13-7.13,6.09-14.09,13.25-15.93,22.79-1.45,7.55,10.11,10.78,11.57,3.19,1.07-5.57,4.36-9.59,8.36-13.44,2.14-2.06,9.35-10.04,12.71-7.99,4.05,2.47-2.3,8.72-4.13,10.24-4.75,3.93-10.53,7.07-16.21,9.43l4.62,10.97c3.12-2.07,7.46,3.54,8.93,5.79,1.21,1.85,2.4,4.03,2.57,6.28.03.41-.35,2.39-.25,2.57-.56,1.06-.13,1.03,1.29-.07,1.91-.44,2.03-.84.36-1.21-1.27-1.16-3.28-1.76-4.67-2.86-1.61-1.29-3.12-2.84-4.36-4.49-2.7-3.6-4.12-7.67-4.77-12.08-1.11-7.61-12.68-4.38-11.57,3.19h0Z"/>
    <path class="cls-1" d="M227.03,413.8c7.57,6.31,15.42,12.29,23.58,17.82,7.17,4.86,15.45,11.06,24.63,10.06,9.04-.98,13.6-8.62,16.32-16.47,3.18-9.19,4.7-18.95,5.26-28.63,1.15-19.82-2.02-39.7-4.79-59.27-1.38-9.77-2.9-19.55-5.16-29.16-2.06-8.77-4.11-19.91-11.07-26.28-6.72-6.15-16.67-6.36-24.69-2.87-9.46,4.12-15.31,13.08-20.52,21.55-4.06,6.59,6.32,12.63,10.36,6.06,3.6-5.84,7.41-12.55,13.61-15.99,5.35-2.98,12-2.84,15.2,2.93,3.49,6.3,4.84,14.42,6.35,21.4,1.69,7.84,2.95,15.78,4.09,23.72,2.2,15.33,4.48,30.76,4.8,46.27.16,7.48-.1,15.03-1.33,22.42-1.04,6.22-2.26,15.48-6.49,20.51-4.93,5.87-15.4-3.16-19.77-6.1-7.58-5.11-14.87-10.61-21.9-16.46-5.89-4.91-14.43,3.54-8.49,8.49h0Z"/>
    <path class="cls-1" d="M242.87,310.23c14.5-18,9.41-41.92-.14-61.05-10.63-21.27-26.9-41.12-49.74-49.59-10.75-3.98-23.51-5.31-34.55-1.69s-19.63,12.48-18.8,24.3c.75,10.66,10.67,17.9,20.94,17.79,11.11-.13,19.77-8.76,23.28-18.77,4.1-11.72.86-24.79-3.62-35.9-4.09-10.16-9.66-19.49-16.62-27.94-14.09-17.09-34.06-29.41-55.95-33.31-10.8-1.92-25.3-3.84-35.32,1.86s-8.79,18.55,1.9,22.59c9.96,3.77,21.4-.6,28.2-8.32,7.89-8.96,9.21-21.39,7.03-32.73-4.83-25.2-25.27-44.1-49.18-51.25-10.18-3.05-29.12-6.64-29.46-20.55-.36-14.61,17.88-20.36,28.88-23.85l-7.38-4.19c.39,1.24.79,2.49,1.18,3.73,2.32,7.34,13.91,4.2,11.57-3.19-.39-1.24-.79-2.49-1.18-3.73-.95-3-4.19-5.2-7.38-4.19C39.79,5.55,18.65,14.8,18.83,35.67s22.91,27.45,39.13,32.38c16.73,5.08,30.84,16.97,37.3,33.46,3.32,8.47,5.08,19.01.55,27.38-1.85,3.42-4.84,6.26-8.42,7.83-1.6.71-9.52,2.68-10.35-.22.33,1.14,1.1-.17,2.25-.69,1.63-.74,3.44-.93,5.19-1.09,5.34-.51,10.89-.3,16.21.35,10,1.22,19.82,4.38,28.65,9.22,14.91,8.17,27.03,20.77,35.16,35.65,4.41,8.06,8.28,17.31,9.07,26.54.67,7.85-1.88,18.89-10.75,21.2-8.24,2.14-14.4-5.82-9.1-12.93,5.65-7.58,18.16-7.75,26.56-6.24,21.64,3.89,37.27,20.87,47.89,39.06,8.72,14.95,18.83,38.49,6.2,54.17-4.8,5.96,3.64,14.5,8.49,8.49h0Z"/>
    <path class="cls-1" d="M230.72,419.08c15.85,36.07,14.2,79.49-4.36,114.25-8.07,15.11-20.8,32.14-39.07,34.67-7.52,1.04-15.94-.56-22.08-5.16-2.85-2.14-5.2-4.99-6.55-8.3-1.09-2.67-2.1-10.87,3.07-10.42,5.92.52,4.34,16.91,3.68,20.56-1.5,8.25-5.27,16.16-10.8,22.48-12.22,13.96-31.26,18.8-49.1,14.59-14.89-3.51-36.78-16.34-34.39-34.64.14-1.1.8-4.95,2.1-5.54,1.22-.55,3.23,2.06,4.17,3.14,2.91,3.33,4.87,7.43,6.01,11.68,2.47,9.21.67,18.98-3.7,27.34-5.28,10.1-14.04,16.8-21.09,25.49-6.7,8.24-10.54,18.28-10.4,28.98.28,20.84,15.94,38.91,36.49,42.28,7.55,1.24,10.8-10.32,3.19-11.57-23.97-3.94-36.06-31.48-20.79-51.2,7.49-9.68,17.19-16.82,22.97-27.91,5.63-10.8,8.02-23.14,5.26-35.13-2.14-9.32-9.12-23.22-19.57-25.33-11.96-2.41-17.31,12.4-16.66,21.78,1.63,23.45,25.8,39.33,47.03,42.99,22.83,3.93,46.03-3.63,60.15-22.41,6.33-8.42,10.32-18.4,11.44-28.88.98-9.16.28-22.78-8.34-28.38-9.7-6.31-21.7,1.39-23.46,11.89-1.86,11.14,5.27,21.76,14.28,27.62,18.78,12.2,42.34,5.36,57.63-8.97,19.19-17.99,30.14-45.57,33.93-71.15,4.08-27.52.51-55.29-10.69-80.77-3.1-7.05-13.44-.95-10.36,6.06h0Z"/>
    <path class="cls-1" d="M281.88,316.77c4.45,1.31,9.3,1.39,13.64,3.02,5.55,2.08,4.11,7.48,2.52,12.07-1.68,4.86-2.85,10,1.71,13.74s11.57,4.85,17.01,5.75c7.55,1.25,10.8-10.32,3.19-11.57-3.13-.52-6.2-1.2-9.22-2.19-1.88-.62-2.17-1.57-2.21.4.03-1.18,1.25-3.32,1.61-4.45,1.62-5.18,2.15-11.01-.2-16.05-4.69-10.04-15.7-9.6-24.86-12.29-7.42-2.18-10.6,9.4-3.19,11.57h0Z"/>
    <path class="cls-1" d="M291.91,415.37c6.66,1.3,13.85,1.5,19.82-2.25,4.94-3.11,8.56-8.91,8.32-14.86-.13-3.3-2.05-5.46-2.89-8.41-.94-3.31,2.48-3.23,5.21-3.55,6.42-.76,11.56-5.14,8.47-11.89-3.21-7.01-13.55-.92-10.36,6.06l.36.8v-6.06c.57-1.14,1.74-.53.07-.86-.97-.19-2.76.3-3.77.5-2.13.44-4.29,1.26-6.11,2.46-3.72,2.44-6.41,6.76-6.46,11.28-.04,3.97,4.16,7.71,3.27,11.25-1.31,5.22-8.79,4.72-12.73,3.96-7.54-1.47-10.77,10.1-3.19,11.57h0Z"/>
  </g>
</svg>