<?xml version="1.0" encoding="UTF-8"?>
<svg xmlns="http://www.w3.org/2000/svg" viewBox="0 0 504.78 720.31">
  <defs>
    <style>
      .cls-1 {
        fill: #c47bb3;
      }

      .cls-1, .cls-2, .cls-3, .cls-4, .cls-5 {
        stroke-width: 0px;
      }

      .cls-2 {
        fill: #231f20;
      }

      .cls-3 {
        fill: #b29db0;
      }

      .cls-4 {
        fill: #4c4c4d;
      }

      .cls-5 {
        fill: #fff;
      }
    </style>
  </defs>
  <g id="Layer_10" data-name="Layer 10">
    <polygon class="cls-3" points="452.1 404.94 416.02 421 105.18 429.91 59.32 412.31 61.02 389.46 49.6 78.37 46.98 49.63 86.55 36.32 419.92 30.83 451.46 47.34 451.76 77.39 450.66 374.92 452.1 404.94"/>
  </g>
  <g id="Layer_9" data-name="Layer 9">
    <path class="cls-4" d="M232.82,154.53c11.58-.4,23.2.04,34.69,1.63l1.99-14.73c-13.79.65-27.59,1.29-41.38,1.94-9.71.46-9.59,14.29,0,15,14.76,1.09,29.52,2.17,44.28,3.26,8.33.61,10.36-13.27,1.99-14.73-16.69-2.91-33.27-2.92-49.96-.02-8.06,1.4-6.11,12.11,0,14.46,14.37,5.53,30.53,5.58,44.94.16,6.55-2.46,7.67-12.46,0-14.46-15.99-4.18-32.18-2.54-47.21,4.17-5.72,2.56-4.35,12.64,1.79,13.71,16.81,2.92,33.27.67,48.65-6.73,6.76-3.26,3.41-14.23-3.79-13.98-14.68.51-29.27-2.03-42.72-8.03l-3.79,13.98c16.34,1.2,32.68,2.4,49.02,3.6,9.01.66,9.37-11.94,1.99-14.73-13.87-5.26-28.81-7.22-43.57-5.71-9.69.99-9.58,13.87,0,15,17.33,2.04,34.73,3.22,52.17,3.52,8.55.15,10.06-12.37,1.99-14.73-17.52-5.13-35.05-10.25-52.57-15.38l-3.99,14.46c17.93,2.85,35.86,5.71,53.79,8.56,9.39,1.49,13.33-11.35,3.99-14.46-15.07-5.02-29.43-11.61-43.12-19.67l-7.57,12.95c17.34,9.24,35.91,15.88,55.24,19.48,8.1,1.51,13.38-9.09,5.78-13.71-12.77-7.76-25.55-15.52-38.32-23.28-2.52,4.32-5.05,8.63-7.57,12.95,16.31,8.81,33.87,14.89,52.19,17.74,7.98,1.24,13.57-9.04,5.78-13.71-13.66-8.19-28.4-14.47-43.77-18.66-9.36-2.55-13.14,11.52-3.99,14.46,24.68,7.95,49.02,16.9,72.96,26.85l3.99-14.46c-12.67-3.39-25.34-6.79-38.01-10.18-8.64-2.32-12.41,8.9-5.78,13.71,20.13,14.58,40.26,29.16,60.39,43.74,1.93-4.57,3.85-9.14,5.78-13.71-24.49-10.13-47.19-24.53-66.95-42.16-7.18-6.41-17.81,4.14-10.61,10.61,21.7,19.48,43.41,38.95,65.11,58.43l9.09-11.78c-22.93-14.14-45.86-28.29-68.8-42.43-7.2-4.44-15.33,5.91-9.09,11.78,20.91,19.68,43.65,37.35,67.88,52.75,3.44,2.19,8.24.69,10.26-2.69,2.29-3.82.53-7.84-2.69-10.26-21.72-16.38-44.01-31.98-66.85-46.77-6.6-4.28-13.6,3.97-10.26,10.26,5.47,10.33,15.65,16.15,25.47,21.73,12.2,6.94,24.41,13.87,36.61,20.81,8.67,4.92,14.98-7.24,7.57-12.95-20.45-15.78-42.34-29.54-65.43-41.13-6.35-3.19-14.48,3.52-10.26,10.26,3.63,5.8,9.13,9.97,15.93,11.23,9.36,1.73,13.5-12.21,3.99-14.46-7.79-1.85-15.73-2.71-23.74-2.46-8.98.29-9.51,11.6-1.99,14.73,8,3.33,16,6.67,24,10s13.33-9.93,5.78-13.71-14.51-7.26-21.77-10.89c-2.52,4.32-5.05,8.63-7.57,12.95,9.17,4.5,18.77,8.01,28.81,10,9.34,1.86,19.19,2.45,27.28,7.97,12.78,8.73,18.47,25.48,23.33,39.42l12.54-7.3c-14.94-15.03-29.87-30.05-44.81-45.08l-10.61,10.61c16.03,15.37,29.08,33.18,38.99,53.06l11.78-9.09c-16.52-13.82-28.59-31.84-34.7-52.53l-12.54,7.3c16.53,19.6,32.41,39.73,47.6,60.39,5.76,7.83,16.84,1.29,12.95-7.57-12.64-28.78-27.52-56.5-44.52-82.94l-11.78,9.09c16.08,18.14,32.17,36.28,48.25,54.43,5.63,6.35,16.4-1.93,11.78-9.09-12.9-19.98-25.81-39.97-38.71-59.95l-11.78,9.09c13.47,10.91,25,23.72,34.2,38.42l11.78-9.09c-12.35-13.04-22.6-27.63-30.82-43.6l-10.26,10.26c19.63,14.57,34.66,35.15,42.77,58.18l12.54-7.3c-14.09-12.48-25.22-27.95-32.01-45.55l-12.54,7.3c9.76,8.95,18.12,19.11,24.79,30.56,5.6,9.62,14.01,24.18,8.81,35.54l11.78-1.52c-5.09-4.78-6.41-13.38-1.66-18.96l-12.54-3.31c2.12,7.64,2.88,15.37,2.09,23.28-.37,3.71-1.18,7.38-2.24,10.95-.44,1.47-.84,3.09-1.52,4.47-.34.74-.77,1.41-1.28,2.04-.93.77-.74.74.58-.09,1.75,3.08,3.49,6.15,5.24,9.23,3.06-14.45,7-28.67,11.8-42.64-4.91-.66-9.82-1.33-14.73-1.99-1.94,19.58-9.56,37.98-21.32,53.68l13.71,1.79c-2.91-13.15.61-27.24,9.49-37.41l-12.54-7.3c-3.9,17.25-11.99,33-24.02,46l12.8,5.3c-.93-12.5,2.18-24.13,9.26-34.48l-12.95-7.57c-4.65,10.27-9.3,20.55-13.94,30.82l13.71,5.78c3.06-14.18,6.11-28.37,9.17-42.55,2.07-9.61-10.96-12.85-14.46-3.99-5.41,13.7-9.39,27.84-11.92,42.36-1.64,9.4,12.64,13.52,14.46,3.99,2.27-11.91,5.59-23.53,9.95-34.85-4.91-.66-9.82-1.33-14.73-1.99-.35,20.11-6.45,39.32-17.53,56.09l12.95,7.57c4.92-11.38,12.39-21.37,22.48-28.68l-9.09-11.78c-10.21,12.12-20.42,24.25-30.63,36.37l11.78,9.09c7.49-10.1,14.97-20.21,22.46-30.31,5.3-7.15-5.77-14.48-11.78-9.09-12.09,10.83-24.17,21.66-36.26,32.5l10.61,10.61c9.26-8.5,18.51-17.01,27.77-25.51l-10.61-10.61c-11.09,10.93-22.68,21.33-34.75,31.16l10.61,10.61c8.7-10.36,18.24-19.89,28.61-28.57l-10.61-10.61-17.69,15.05,10.61,10.61c9.05-8.2,18.1-16.4,27.15-24.6,6.21-5.63-2.05-16.72-9.09-11.78-15.76,11.06-28.6,25.55-37.19,42.83-3.73,7.51,5.38,15.12,11.78,9.09,5.61-5.3,11.23-10.59,16.84-15.89,6.21-5.86-1.78-16.13-9.09-11.78-10.54,6.28-19.2,14.92-25.51,25.44-3.84,6.39,3.84,14.16,10.26,10.26,8.52-5.18,15.37-12.64,19.32-21.83,2.77-6.45-3.19-14.39-10.26-10.26-12.86,7.52-23.37,18.47-30.17,31.75-3,5.86,1.94,12.56,8.47,11.02,14.65-3.46,27.33-13.54,33.75-27.2,2.53-5.39-1.74-13.36-8.47-11.02-15.88,5.52-27.76,17.14-33.98,32.7-2.66,6.67,5.8,11,11.02,8.47,12.26-5.94,23.09-14.57,31.56-25.24,5.37-6.77-1.11-15.31-9.09-11.78-15,6.64-26.03,19.18-31.87,34.36-2.44,6.36,5.74,11.5,11.02,8.47,19.17-11,36.45-25.81,52.92-40.46,15.12-13.44,28.76-28.88,35-48.49l-14.46-3.99c-3.21,10.53-9.63,19.92-18.58,26.43l9.09,11.78c1.81-2.24,3.62-4.48,5.43-6.72,2.38-2.94,3.03-6.68.59-9.85-2.05-2.66-6.71-4.21-9.68-1.93-12.91,9.92-25.82,19.83-38.73,29.75s-24.33,20.04-37.47,28.32c-11.75,7.41-25.31,7.92-38.66,5.34s-27.92-6.47-38.08-15.79l-7.3,12.54c18.37,5.53,36.74,11.06,55.12,16.59,9.3,2.8,13.08-11.42,3.99-14.46-12.34-4.13-23.83-9.98-34.57-17.32l-5.78,13.71c15.74,6.1,31.77,11.34,48.06,15.73,8.44,2.27,12.73-9.07,5.78-13.71-11.15-7.44-22.29-14.87-33.44-22.31l-7.57,12.95c9.65,4.13,18.82,9.13,27.53,15,3.1,2.09,7.53.85,9.68-1.93,2.46-3.19,1.75-6.85-.59-9.85-22.65-29.12-61.05-38.05-95.68-43.27-8.04-1.21-13.47,8.92-5.78,13.71,17.28,10.77,34.87,21.01,52.76,30.72l7.57-12.95c-14.38-7.15-28.14-15.39-41.23-24.67l-5.78,13.71c15.34,5.44,29.86,12.68,43.54,21.48l3.79-13.98c-8.01-.58-16.01-1.16-24.02-1.74-3.28-.24-6.36,2.5-7.23,5.51-4.26,14.73,8.07,24.53,19.95,29.92l5.78-13.71c-23.49-4.81-44.73-17.39-59.85-36.08-15.96-19.74-23.31-45.42-21.73-70.59h-15c-.92,25.03-1.3,52.57,12.83,74.44s37.67,31.65,60.48,40.5c7.14,2.77,12.48-7.64,7.3-12.54-7.85-7.42-16.7-13.7-24.39-21.29-6.88-6.79-12.58-14.55-17.17-23.06-9.06-16.81-12.91-35.84-11.49-54.84l-14.73,1.99c5.5,39.71,27.36,75.6,59.12,99.79,2.96,2.26,7.63.72,9.68-1.93,2.44-3.17,1.78-6.88-.59-9.85-18.15-22.78-32.17-48.77-41.44-76.36l-13.71,5.78c8.56,18.86,20.66,35.94,35.48,50.4l10.61-10.61c-12.55-11.96-23.25-26.36-27.23-43.51-3.6-15.52-.5-33.05,10.6-44.87l-10.61-10.61c-1.75,1.94-3.5,3.88-5.25,5.83-6.45,7.16,4.13,17.8,10.61,10.61,1.75-1.94,3.5-3.88,5.25-5.83,6.43-7.14-3.96-17.68-10.61-10.61-14.22,15.14-18.76,36.38-15.08,56.5s16.73,38.83,31.7,53.1c6.99,6.66,17.54-3.85,10.61-10.61-13.99-13.65-25.06-29.57-33.14-47.36-3.5-7.71-16.41-2.24-13.71,5.78,10.15,30.2,25.45,58.07,45.3,82.98l9.09-11.78c-28.72-21.88-47.3-55.22-52.23-90.82-.51-3.68-4.96-5.81-8.23-5.37-3.85.52-6.22,3.59-6.5,7.37-1.57,21.07,3.06,42.3,12.8,61.02,4.77,9.18,10.92,17.73,18.04,25.23,8.17,8.61,17.99,15.4,26.6,23.54l7.3-12.54c-19.4-7.53-41.03-16.37-52.36-34.95-11.82-19.39-10.74-43.68-9.94-65.52.36-9.7-14.4-9.57-15,0-3.6,57.22,36.43,109.64,92.59,121.13,7.78,1.59,13.99-9.99,5.78-13.71-4.82-2.19-15.09-5.97-13.06-12.98l-7.23,5.51c8.01.58,16.01,1.16,24.02,1.74s9.62-10.23,3.79-13.98c-14.77-9.5-30.58-17.13-47.12-22.99-8.52-3.02-12.27,9.11-5.78,13.71,13.1,9.29,26.86,17.52,41.23,24.67,8.58,4.27,16.12-8.31,7.57-12.95-17.89-9.71-35.49-19.95-52.76-30.72l-5.78,13.71c32.25,4.87,67.93,12.24,89.06,39.42l9.09-11.78c-8.7-5.87-17.88-10.86-27.53-15-8.71-3.73-15.8,7.46-7.57,12.95,11.15,7.44,22.29,14.87,33.44,22.31,1.93-4.57,3.85-9.14,5.78-13.71-16.3-4.38-32.33-9.63-48.06-15.73-8.36-3.24-12.37,9.2-5.78,13.71,11.79,8.06,24.61,14.3,38.15,18.83l3.99-14.46c-18.37-5.53-36.74-11.06-55.12-16.59-7.05-2.12-12.83,7.45-7.3,12.54,11.4,10.46,26.43,15.61,41.3,18.94s31.47,4.25,46.03-2.13c6.99-3.06,12.96-7.69,18.97-12.31,7.38-5.66,14.75-11.33,22.13-17,14.23-10.93,28.45-21.86,42.68-32.78l-9.09-11.78c-1.81,2.24-3.62,4.48-5.43,6.72-2.38,2.94-3.03,6.68-.59,9.85,2.09,2.71,6.64,4.14,9.68,1.93,12.23-8.89,21.05-20.88,25.47-35.39,2.83-9.27-11.54-13.16-14.46-3.99-5.6,17.58-18.8,31.01-32.35,42.93-15.25,13.42-31.02,26.91-48.69,37.05l11.02,8.47c4.47-11.64,13.69-20.4,24.97-25.39l-9.09-11.78c-7.79,9.81-17.25,17.44-28.53,22.9l11.02,8.47c4.14-10.35,13.03-18.58,23.51-22.23-2.82-3.67-5.65-7.34-8.47-11.02-4.89,10.41-13.56,17.66-24.78,20.31,2.82,3.67,5.65,7.34,8.47,11.02,5.69-11.11,14.01-20.06,24.79-26.37l-10.26-10.26c-3,6.97-7.43,12.49-13.94,16.45l10.26,10.26c5.01-8.36,11.76-15.07,20.13-20.06l-9.09-11.78c-5.61,5.3-11.23,10.59-16.84,15.89l11.78,9.09c7.42-14.94,18.12-27.84,31.8-37.45l-9.09-11.78c-9.05,8.2-18.1,16.4-27.15,24.6-7.22,6.54,3.33,16.79,10.61,10.61,5.9-5.02,11.8-10.03,17.69-15.05,7.38-6.28-3.26-16.76-10.61-10.61-10.37,8.68-19.91,18.22-28.61,28.57-6.26,7.46,3.13,16.7,10.61,10.61,12.07-9.84,23.66-20.23,34.75-31.16,6.91-6.81-3.52-17.12-10.61-10.61-9.26,8.5-18.51,17.01-27.77,25.51-7.14,6.56,3.44,17.03,10.61,10.61,12.09-10.83,24.17-21.66,36.26-32.5l-11.78-9.09c-7.49,10.1-14.97,20.21-22.46,30.31-5.03,6.79,6.3,15.59,11.78,9.09,10.21-12.12,20.42-24.25,30.63-36.37,5.06-6-1.68-17.14-9.09-11.78-12.15,8.8-21.88,20.23-27.86,34.06-3.77,8.7,7.51,15.82,12.95,7.57,12.48-18.9,19.18-41.03,19.57-63.66.15-8.97-11.84-9.5-14.73-1.99-4.36,11.32-7.68,22.94-9.95,34.85l14.46,3.99c2.53-14.51,6.51-28.66,11.92-42.36l-14.46-3.99c-3.06,14.18-6.11,28.37-9.17,42.55-1.68,7.81,10.01,13.94,13.71,5.78,4.65-10.27,9.3-20.55,13.94-30.82,3.95-8.73-7.43-15.65-12.95-7.57-8.4,12.29-12.41,27.2-11.3,42.05.46,6.08,8.09,10.4,12.8,5.3,13.73-14.84,23.42-32.88,27.87-52.62,1.54-6.82-7.31-13.28-12.54-7.3-12.55,14.36-17.48,33.36-13.35,52,1.54,6.95,10.17,6.52,13.71,1.79,13.4-17.91,21.16-39.06,23.36-61.26.88-8.84-12.13-9.55-14.73-1.99-4.81,13.97-8.74,28.19-11.8,42.64-.92,4.36,1.3,7.57,5.24,9.23,12.9,5.42,19.66-11.83,21.79-21.15,2.87-12.55,2.48-25.55-.96-37.94-1.42-5.1-8.79-7.72-12.54-3.31-9.9,11.65-9.74,29.47,1.66,40.17,3.21,3.01,9.69,3.06,11.78-1.52,7.19-15.71,1.3-31.88-6.34-46.25s-17.72-27.14-29.6-38.03c-5.05-4.63-15.42-.17-12.54,7.3,7.73,20.02,19.77,37.9,35.87,52.17,5.17,4.58,15.2.27,12.54-7.3-9.53-27.02-26.68-50.08-49.67-67.14-6.5-4.82-13.36,4.23-10.26,10.26,8.77,17.05,19.98,32.72,33.16,46.64,5.82,6.14,16.33-1.82,11.78-9.09-9.85-15.74-22.11-29.78-36.55-41.46-6.13-4.96-16.77,1.36-11.78,9.09,12.9,19.98,25.81,39.97,38.71,59.95l11.78-9.09c-16.08-18.14-32.17-36.28-48.25-54.43-5.63-6.35-16.38,1.93-11.78,9.09,17,26.44,31.88,54.16,44.52,82.94l12.95-7.57c-15.94-21.69-32.59-42.85-49.95-63.42-4.93-5.85-14.57.42-12.54,7.3,6.79,23.01,20.14,43.73,38.56,59.15,6.5,5.44,15.69-1.24,11.78-9.09-10.43-20.92-24.47-39.92-41.34-56.09-6.97-6.68-17.43,3.74-10.61,10.61,14.94,15.03,29.87,30.05,44.81,45.08,5.06,5.09,15.07-.04,12.54-7.3-5.74-16.46-12.44-34.37-26.5-45.6-8.07-6.45-17.33-9.26-27.39-11-11.29-1.95-22.09-4.68-32.42-9.76-8.62-4.23-16.23,8.62-7.57,12.95,7.26,3.63,14.51,7.26,21.77,10.89,1.93-4.57,3.85-9.14,5.78-13.71-8-3.33-16-6.67-24-10l-1.99,14.73c6.73-.22,13.2.37,19.75,1.92l3.99-14.46c-3.1-.57-5.27-1.62-6.96-4.33l-10.26,10.26c23.09,11.59,44.97,25.35,65.43,41.13,2.52-4.32,5.05-8.63,7.57-12.95-11.07-6.29-22.14-12.58-33.2-18.87-8.51-4.84-18.71-9.25-23.49-18.29l-10.26,10.26c22.84,14.79,45.13,30.39,66.85,46.77,2.52-4.32,5.05-8.63,7.57-12.95-23.19-14.74-44.84-31.58-64.85-50.41l-9.09,11.78c22.93,14.14,45.86,28.29,68.8,42.43,7.15,4.41,15.5-6.02,9.09-11.78-21.7-19.48-43.41-38.95-65.11-58.43l-10.61,10.61c21.83,19.48,46.55,34.84,73.57,46.01,3.44,1.42,7.55-1.27,8.85-4.34,1.54-3.65,0-7.14-3.07-9.37-20.13-14.58-40.26-29.16-60.39-43.74-1.93,4.57-3.85,9.14-5.78,13.71,12.67,3.39,25.34,6.79,38.01,10.18,9.61,2.57,12.64-10.87,3.99-14.46-23.94-9.95-48.28-18.9-72.96-26.85l-3.99,14.46c14.2,3.87,27.57,9.58,40.19,17.15,1.93-4.57,3.85-9.14,5.78-13.71-17.07-2.66-33.4-8.01-48.61-16.23-8.49-4.59-15.84,7.93-7.57,12.95,12.77,7.76,25.55,15.52,38.32,23.28,1.93-4.57,3.85-9.14,5.78-13.71-18.09-3.37-35.41-9.31-51.65-17.97-8.51-4.53-15.92,8.03-7.57,12.95,14.77,8.7,30.43,15.77,46.7,21.18l3.99-14.46c-17.93-2.85-35.86-5.71-53.79-8.56-9.32-1.48-13.47,11.69-3.99,14.46,17.52,5.13,35.05,10.25,52.57,15.38l1.99-14.73c-17.45-.3-34.84-1.48-52.17-3.52v15c13.62-1.39,26.78.33,39.58,5.18l1.99-14.73c-16.34-1.2-32.68-2.4-49.02-3.6-7.18-.53-10.56,10.95-3.79,13.98,15.92,7.1,32.84,10.69,50.3,10.08-1.26-4.66-2.52-9.32-3.79-13.98-11.46,5.52-24.54,7.4-37.09,5.22l1.79,13.71c11.22-5.01,23.82-5.75,35.65-2.66v-14.46c-12.24,4.6-24.76,4.54-36.96-.16v14.46c13.86-2.4,28.13-2.39,41.98.02l1.99-14.73c-14.76-1.09-29.52-2.17-44.28-3.26v15c13.79-.65,27.59-1.29,41.38-1.94,7.94-.37,10.79-13.51,1.99-14.73-12.86-1.78-25.7-2.61-38.68-2.16-9.63.33-9.67,15.33,0,15h0Z"/>
    <path class="cls-4" d="M352.13,210.89c3.17,3.54,5.51,7.51,7.39,11.87l12.95-7.57c-4.2-8.81-8.41-17.61-12.61-26.42s-17.09-1.11-12.95,7.57c4.2,8.81,8.41,17.61,12.61,26.42,1.76,3.68,6.95,4.57,10.26,2.69,3.87-2.2,4.29-6.56,2.69-10.26-2.39-5.54-5.71-10.41-9.73-14.9-6.46-7.2-17.04,3.43-10.61,10.61h0Z"/>
    <path class="cls-4" d="M236.43,149.56c-25.17,12.89-52.19,24.86-72.51,45.09-18.9,18.81-30.86,46.19-23.99,72.89,1.76,6.83,13.11,7.46,14.46,0,4.55-25.02,14.52-48.32,29.46-68.9-4.32-2.52-8.63-5.05-12.95-7.57-10.94,21.79-21.98,44.07-25.61,68.44-.6,4.03,1.01,8.02,5.24,9.23,3.77,1.08,8.32-1.3,9.23-5.24,5.82-25.34,14.76-49.72,26.84-72.74-4.32-2.52-8.63-5.05-12.95-7.57-6.04,14.11-14.06,27.2-24.18,38.76-6.31,7.2,3.8,17.59,10.61,10.61,8.28-8.5,15.62-17.84,21.96-27.87-4.32-2.52-8.63-5.05-12.95-7.57-12.02,22.32-23.72,46.58-18.11,72.55,1.67,7.72,12.21,6.51,14.46,0,4.39-12.66,6.4-26.02,5.98-39.41l-14.73,1.99c.8,4.73.18,9.76-1.78,14.15l13.98,3.79c-1.44-35.76,23.14-66.44,52.32-84.35l-9.09-11.78c-14.82,12.34-29.63,24.69-44.45,37.03-6.46,5.39,2.26,16.91,9.09,11.78,26.64-20.03,53.29-40.06,79.93-60.09,3.56-2.68,5.52-8.28,1.52-11.78-7.22-6.29-15.9-5.26-24.1-1.46-8.94,4.14-17.34,10.15-25.54,15.59-17.37,11.52-33.97,24.18-49.77,37.77-7.35,6.33,3.28,16.76,10.61,10.61,23.57-19.79,48.22-38.22,73.82-55.29,8.01-5.34,1.03-17.47-7.57-12.95-17.53,9.2-35.05,18.39-52.58,27.59l9.09,11.78c16.04-12.68,32.08-25.36,48.12-38.03,6.95-5.49-1.9-15.52-9.09-11.78-12.29,6.4-24.58,12.8-36.87,19.2l7.57,12.95c10.16-5.66,20.32-11.33,30.48-16.99,7.22-4.03,2.32-16.82-5.78-13.71-20.34,7.81-38.59,19.76-53.56,35.64-6.77,7.18,3.22,16.55,10.61,10.61,6.06-4.87,12.11-9.74,18.17-14.61l-10.61-10.61c-24.81,19.96-43.53,46.32-54.92,76-2.66,6.92,7.81,12.89,12.54,7.3,14.02-16.58,26.81-34.15,38.19-52.65,4.37-7.11-6.16-15.66-11.78-9.09-14.07,16.45-26.32,34.3-36.4,53.45,4.32,2.52,8.63,5.05,12.95,7.57,7.01-14.47,14.02-28.94,21.02-43.41,3.61-7.45-5.4-15.28-11.78-9.09-13.39,12.99-25.89,26.83-37.46,41.47l11.78,9.09c7.5-15.02,17.16-28.54,29.04-40.41l-10.61-10.61c-9.01,10.23-18.02,20.46-27.03,30.69l11.78,9.09c10.92-19.38,25.51-36.08,43.1-49.68l-10.61-10.61c-10,11.62-21.1,22.15-33.23,31.54l10.61,10.61c13.64-12.77,27.78-24.97,42.4-36.58,3.2-2.54,2.6-7.95,0-10.61-3.1-3.17-7.45-2.5-10.61,0-14.63,11.62-28.77,23.81-42.4,36.58-2.98,2.79-2.77,7.78,0,10.61,3.13,3.2,7.42,2.46,10.61,0,12.13-9.38,23.23-19.92,33.23-31.54,6.44-7.48-3.08-16.42-10.61-10.61-18.52,14.32-33.95,32.33-45.45,52.72-4.05,7.19,5.98,15.67,11.78,9.09,9.01-10.23,18.02-20.46,27.03-30.69,6.33-7.19-3.71-17.5-10.61-10.61-12.72,12.71-23.35,27.36-31.38,43.45-1.68,3.37-1.14,7.3,1.93,9.68,2.67,2.06,7.53,2.35,9.85-.59,11.57-14.64,24.06-28.48,37.46-41.47l-11.78-9.09c-7.01,14.47-14.02,28.94-21.02,43.41-4.17,8.6,8.42,16.19,12.95,7.57,9.48-18.02,20.81-34.94,34.05-50.42l-11.78-9.09c-10.71,17.41-22.65,34-35.85,49.61l12.54,7.3c10.47-27.28,28.34-51.1,51.06-69.38,3.18-2.56,2.62-7.93,0-10.61-3.09-3.15-7.47-2.52-10.61,0-6.06,4.87-12.11,9.74-18.17,14.61l10.61,10.61c13.12-13.92,29.05-24.91,46.94-31.78l-5.78-13.71c-10.16,5.66-20.32,11.33-30.48,16.99-8.46,4.72-.97,17.4,7.57,12.95,12.29-6.4,24.58-12.8,36.87-19.2l-9.09-11.78c-16.04,12.68-32.08,25.36-48.12,38.03-6.94,5.48,1.9,15.55,9.09,11.78,17.53-9.2,35.05-18.39,52.58-27.59-2.52-4.32-5.05-8.63-7.57-12.95-26.66,17.78-52.31,37.03-76.86,57.63l10.61,10.61c12.98-11.17,26.52-21.64,40.64-31.32,7.07-4.85,14.27-9.5,21.59-13.96,2.86-1.74,12.96-9.24,15.96-6.62l1.52-11.78c-26.64,20.03-53.29,40.06-79.93,60.09l9.09,11.78c14.82-12.34,29.63-24.69,44.45-37.03,6.59-5.49-1.92-16.18-9.09-11.78-33.54,20.59-61.4,56.28-59.75,97.3.27,6.79,10.73,11.04,13.98,3.79,3.77-8.43,4.83-16.6,3.3-25.71-1.41-8.38-14.99-6.36-14.73,1.99.38,12.19-1.45,23.91-5.45,35.43h14.46c-4.66-21.55,6.7-42.63,16.59-60.99,4.59-8.52-7.79-15.74-12.95-7.57-5.68,8.99-12.2,17.22-19.62,24.84l10.61,10.61c10.97-12.53,19.97-26.47,26.53-41.79,1.6-3.75,1.09-8-2.69-10.26-3.36-2.01-8.39-.88-10.26,2.69-12.67,24.13-22.25,49.77-28.36,76.33l14.46,3.99c3.45-23.17,13.69-44.13,24.1-64.85,4.39-8.75-7.33-15.32-12.95-7.57-15.6,21.47-26.23,46.37-30.98,72.48h14.46c-6-23.36,6.89-46.42,23.79-61.77,18.91-17.17,43.31-27.74,65.82-39.27,8.59-4.4,1.01-17.35-7.57-12.95h0Z"/>
    <path class="cls-1" d="M346.14,142.06c-11.86,3.59-24.86,12.65-23.04,26.71,1.54,11.91,17.04,19.44,25.64,9.15l-8.49-8.49c-6.8,8.21-5.78,20.16,1.13,28.12,3.16,3.64,7.77,6.26,12.69,5.82,6.21-.55,10.3-6.26,14.32-10.39,5.38-5.54-3.09-14.04-8.49-8.49-1.86,1.91-3.66,4.49-5.84,6-1.76,1.22-2.66.55-4.15-1.39-2.14-2.79-3.65-8.2-1.18-11.18,4.89-5.9-3.52-14.43-8.49-8.49-3.71,4.44-6.07-2.93-4.69-6.16,2.27-5.31,8.63-8.08,13.77-9.64,7.37-2.23,4.23-13.82-3.19-11.57h0Z"/>
    <path class="cls-1" d="M368.54,226.49c7.72,0,7.73-12,0-12s-7.73,12,0,12h0Z"/>
    <path class="cls-1" d="M303.23,283.14c-.44.63.69,1.46.67,3.14-.03,2.97-2.21,5.95-3.69,8.38l10.36,6.06c2.33-5.17,7.82-4.39,8.71,1.21,1.2,7.61,12.77,4.38,11.57-3.19-2.46-15.56-24.17-18.41-30.64-4.08-3.12,6.91,6.26,12.8,10.36,6.06,4.46-7.34,8.2-16.93,2.01-24.52-5.36-6.57-14.97-5.86-19.71.89-4.45,6.33,5.95,12.34,10.36,6.06h0Z"/>
    <path class="cls-1" d="M358.38,265.67c-4.31-.1-6.92-6.12-8.21-9.53-.4-1.06-.48-6.43-2.11-5.74.46-.2-.46,1.77-.6,1.96-.67.92-1.98,1.66-2.98,2.12-7.58,3.49-16.57-.94-20.07-7.97s-13.8-.84-10.36,6.06c4.76,9.55,15.46,15.55,26.1,14.99,10.5-.55,24.22-9.42,19.07-21.57-5.52-13.03-22.53-6.23-22.12,6.48.36,11.16,9.33,24.95,21.28,25.22,7.73.17,7.72-11.83,0-12h0Z"/>
    <path class="cls-1" d="M331.29,221.79c.37,2.6,2.76,4.6,5.11,5.39,1.63.54,3.56.51,5.17-.05,2.53-.88,4.51-2.78,5.16-5.43s-.26-5.7-2.34-7.58c-3.99-3.6-10.26-2.91-13.05,1.78-2.39,4.01-.64,10.37,3.76,12.27,1.28.55,2.39.9,3.83.71s2.33-.76,3.45-1.65c2.89-2.31,4.1-6.99,2.82-10.43-.56-1.5-1.34-2.76-2.76-3.59-1.29-.75-3.18-1.07-4.62-.6-2.87.93-5.36,4.23-4.19,7.38.12.33.2.64.25.99l-.21-1.6c.03.35.02.68-.02,1.02l.21-1.6c-.06.34-.15.66-.27.99l.6-1.43c-.14.32-.31.6-.51.88l.94-1.21c-.22.27-.45.5-.72.72l7.27-.94c-.27-.12-.51-.26-.75-.44l1.21.94c-.17-.15-.31-.3-.45-.47l.94,1.21c-.17-.24-.31-.49-.43-.76l.6,1.43c-.1-.28-.17-.55-.22-.84l.21,1.6c-.03-.29-.02-.56.01-.85l-.21,1.6c.04-.21.1-.4.18-.6l-.6,1.43c.1-.2.2-.36.33-.54l-.94,1.21c.09-.11.19-.21.3-.29l-1.21.94c.17-.12.32-.2.51-.29l-1.43.6c.19-.06.37-.1.57-.13l-1.6.21c.2-.01.39,0,.59.01l-1.6-.21c.27.05.52.12.77.22l-1.43-.6c.18.09.35.18.52.29l-1.21-.94c.21.16.38.33.55.54l-.94-1.21c.07.1.14.21.19.32l-.6-1.43c.07.19.12.35.15.54l-.21-1.6c.01.13.01.26,0,.39l.21-1.6c-.01.11-.04.23-.08.33l.6-1.43c-.07.16-.14.28-.24.42l.94-1.21c-.07.08-.15.16-.23.23l1.21-.94c-.14.1-.27.18-.42.26l1.43-.6c-.21.09-.42.15-.65.2l1.6-.21c-.23.03-.45.04-.69.02l1.6.21c-.23-.03-.43-.08-.64-.16l1.43.6c-.15-.07-.27-.14-.41-.24l1.21.94c-.08-.06-.15-.14-.22-.22l.94,1.21c-.07-.08-.12-.17-.17-.26l.6,1.43c-.07-.17-.1-.3-.13-.48-.2-1.38-1.62-2.92-2.76-3.59-1.29-.75-3.18-1.07-4.62-.6s-2.85,1.37-3.59,2.76l-.6,1.43c-.29,1.06-.29,2.13,0,3.19h0Z"/>
    <path class="cls-1" d="M372.57,212.1c-4.92,1.48-7.9,7.1-6.14,12.02,1,2.79,3.08,5.01,5.99,5.8s6.13-.21,8.46-2.19c4.64-3.94,4.17-11.62-1.34-14.56-3.57-1.91-8.19-.86-10.29,2.71-.76,1.28-1.13,2.78-1.06,4.26.11,2.63,1.45,4.47,3.52,5.95,2.56,1.84,6.79.53,8.21-2.15,1.64-3.1.58-6.25-2.15-8.21,2.43,1.74,2.95,4.02,1.85,6.2-.99,1.98-3.93,2.86-5.83,1.75-.75-.44-1.32-1.2-1.55-2.04-.09-1.09-.13-1.4-.12-.91,0,.49.05.19.14-.91-.25,1,.71-1.3.16-.41.65-.78.81-.99.5-.65-.1.11-.2.21-.31.3.82-.59,1.03-.76.63-.52-.41.24-.14.13.8-.3-.99.26,1.52.06.51-.04l1.05.14c.96.47,1.19.56.68.28l.83.64c-.41-.43-.24-.21.49.66-.51-.79.52,1.5.24.54s.12,1.64.11.61c-.01-.97-.34,1.6-.07.61.24-.88-.61,1.24-.28.63.54-1.01-.77.88-.36.45.34-.32.1-.13-.74.57-1.08.4-1.33.51-.75.33,3-.9,5.2-4.25,4.19-7.38s-4.16-5.16-7.38-4.19h0Z"/>
    <path class="cls-1" d="M277.11,316.17c-.96,1.96-1.37,4.03-.79,6.18s1.93,3.64,3.68,4.86c2.29,1.6,5.35.71,7.27-.94,2.83-2.42,4.84-6.04,3.75-9.84-1.37-4.8-6.86-7.33-11.26-4.85-2.74,1.54-3.89,5.52-2.15,8.21s5.28,3.8,8.21,2.15l-1,.41-1.6.21c.15-.03.3-.03.45-.01l-1.6-.21c.4.11.3.06-.28-.14-.51-.15-.95-.42-1.33-.81l-.63-.8c-.38-1.06-.49-1.3-.33-.72l-.21-1.6c.03.17.04.34.02.51l.21-1.6c-.1.61-.47,1.07.23-.27-.45.86.79-.82.3-.33-.42.41-.83.82-1.28,1.21l7.27-.94c.59.34,1.07.8,1.43,1.38.37,1.04.49,1.26.36.67l.21,1.6c-.02-.18-.03-.36,0-.54l-.21,1.6c.13-.59,0-.37-.36.67.72-1.46,1.05-3.01.6-4.62-.38-1.39-1.46-2.9-2.76-3.59-2.7-1.43-6.73-.86-8.21,2.15h0Z"/>
    <path class="cls-1" d="M229.68,286.72c-6.56-6.13-15.85-.15-16.86,7.69s4.32,15.22,12.32,15.9,14.35-6.58,12.63-14.41-11.62-11.21-17.52-5.6c-3.46,3.3-3.91,8.53-.99,12.31s8,5.04,12.05,2.52c6.54-4.07.52-14.46-6.06-10.36,2.51-1.56,4.91,1.34,3.69,3.62-.25.59-.65.95-1.18,1.08-.39.12-.27.09.35-.08-.54,0-.78.21-1.32-.07-.48-.25-.39-.48-.74-.81.91.85-.55.37.12-.24-.19.63-.21.76-.08.41.05-.18.15-.32.3-.43.8.02-.84.34-.02.06l-.61.15c.54-.11.44-.15-.31-.11.81.4-.74-.65,0-.11.59.43-.64-.72-.23-.17-.49-.65-.27-.24-.49-1.05-.24-.93-.16-.11-.08-1.13-.05.64.39-.51.05-.17-.71.72.48-.02.04.07-1.38.27-1.78,1.07-3.55-.58,5.64,5.27,14.14-3.2,8.49-8.49h0Z"/>
    <path class="cls-1" d="M173.59,311.79c-3.67-2.29-5.9-7.65-1.98-10.88,3.05-2.51,8.15-.5,7.18,3.81h11.57c.02.06,3.43,1.71,4.16,3.24s.76,3.47.7,5.09c-.06,1.25-.25,2.49-.56,3.7-1.12,2.47-.22,2.64,2.69.49l5.79,4.4-.19-.58c-2.43-7.29-14.03-4.16-11.57,3.19l.19.58c.78,2.34,3.1,4.63,5.79,4.4,7.35-.62,8.84-7.34,9.61-13.62s-.53-13.45-5.48-18.13c-4.08-3.86-10-5.74-15.43-3.88s-9.62,8.52-7.26,14.3c2.03,4.97,10.13,6.38,11.57,0,3.06-13.53-11.23-25.23-23.73-18.06s-10.88,24.96.9,32.31c6.57,4.1,12.6-6.28,6.06-10.36h0Z"/>
    <path class="cls-1" d="M254.93,301.11c-10.82-3.8-16.78,9.55-16.35,18.23.48,9.67,8.16,19.02,18.53,17.77,7.57-.91,7.66-12.92,0-12-3.16.38-5.36-1.05-6.24-4.17-.43-1.52-.42-3.35-.15-4.89.12-.92.39-1.79.8-2.61.91-.91.98-1.16.21-.75,7.3,2.57,10.44-9.02,3.19-11.57h0Z"/>
    <path class="cls-1" d="M170.86,238.97c-10.49-6.92-28.17-7.36-32.45,7.27-3.33,11.38,9.91,23.49,20.41,15.86,2.98-2.16,4.29-6.57,1.21-9.42-4.4-4.09-11.07-4.33-15.68-.28-5.04,4.43-6.12,12.53-4.9,18.83s6.12,10.53,12.4,11.29c7.23.88,13.23-3.17,18.27-7.92l-9.42-1.21c2.09,4.61,7.38,6.71,12.21,5.89,5.64-.96,9.12-5.47,11.94-10.08,4.05-6.6-6.32-12.63-10.36-6.06-.67,1.1-1.59,3.03-2.7,3.77s-.75.36-.73.41c-1.66-3.67-6.87-3.62-9.42-1.21-1.87,1.77-6.88,6.6-9.8,4.05-1.16-1.01-.85-3.56-.72-4.96.1-1.04.37-1.9.62-2.89.36-1.45.8-.24-.19-1.16l1.21-9.42c-2.85,2.07-3.44-2.18-1.53-4.06,3.88-3.81,9.88-.78,13.57,1.65,6.46,4.26,12.48-6.12,6.06-10.36h0Z"/>
    <path class="cls-1" d="M109.03,237.21c.21,7.95,8.6,10.76,15.35,8.92,5.95-1.61,10.87-6.46,12.26-12.5,1.51-6.55-1.42-13.79-6.88-17.62s-13.38-3.11-15.73,4.04c-1.85,5.63-1.41,13.72,3.83,17.4,5.91,4.14,14.18,1.18,14.87-6.34.56-6.07-4.53-13.29-11.35-11.18-6.04,1.87-8.35,11.78-1.76,14.59,3,1.28,6.4.87,8.21-2.15,1.5-2.51.82-6.94-2.15-8.21l1.71,2.24v3.19c.37-1.72-.34-1.12-2.12,1.81h-3.19c-2.36-1.76-1.5-3.01,2.58-3.76.6.41.77.21.49-.6,0-.81.04-1.62.11-2.43.21-.84-.1-.63-.95.65h-3.19c2.62.41,4.43,3.09,3.83,5.74-.28,1.22-1.08,2.2-2.13,2.87-.51.33-1.03.56-1.61.71-.37.13-.75.18-1.13.14-1.44-.15-1.12.68.97,2.51-.21-7.71-12.21-7.74-12,0h0Z"/>
    <path class="cls-1" d="M126.16,274.59c1.43-.81,2.76-1.92,3.6-3.35.04-.07.07-.14.11-.21.22-.45.52-1.06.64-1.55.17-.65.3-1.33.27-1.99-.08-1.77-.67-3.35-1.9-4.65-.4-.42-.9-.79-1.38-1.11-.09-.06-.18-.12-.28-.17-1.14-.6-2.24-.89-3.53-.92-.35,0-1.36.14-1.7.23-.04.01-.09.03-.13.04-.32.08-1.21.47-1.49.63-.31.18-1.01.72-1.27.97-.62.6-1.04,1.31-1.36,2.08-.06.13-.27.55-.34.82-.13.48-.18,1.22-.23,1.71-.03.83.14,1.6.52,2.31.24.74.66,1.39,1.24,1.93,1.04,1.04,2.75,1.82,4.24,1.76s3.16-.58,4.24-1.76l.94-1.21c.54-.94.82-1.95.82-3.03v-.08c-.06.53-.13,1.06-.21,1.6,0-.05.02-.09.04-.14l-.6,1.43.03-.06-.94,1.21s.05-.07.09-.09l-1.21.94s.07-.05.11-.07l-1.43.6c.07-.02.13-.04.2-.05l-1.6.21c.08,0,.15,0,.23,0l-1.6-.21c.11.02.21.05.31.09l-1.43-.6c.1.05.19.1.28.17l-1.21-.94c.06.06.12.11.17.17l-.94-1.21s.06.09.08.14l-.6-1.43c.03.08.05.15.06.23l-.21-1.6c0,.07,0,.14,0,.21l.21-1.6c-.02.12-.05.23-.09.35l.6-1.43c-.07.15-.15.28-.24.41l.94-1.21c-.16.2-.35.36-.55.52l1.21-.94c-.25.18-.5.33-.76.48-1.3.73-2.36,2.16-2.76,3.59-.25.8-.29,1.6-.11,2.39.04.8.27,1.54.71,2.23.83,1.28,2.06,2.41,3.59,2.76s3.18.21,4.62-.6h0Z"/>
    <path class="cls-1" d="M175.07,208.17c-5.91,1.84-12.62-3.81-13.34-9.74-.65-5.38,4.87-10.6,9.01-5.33,3.91,4.98,11.39-.5,10.03-5.84-1.19-4.66,2.19-8.33,5.85-10.71,1.45-.94,10.29-5.89,9.95-1.97l11.18-3.03c-1.04-2.27,2.55-6.71,4.71-7.1,2.42-.44,4.72,2,4.15,4.43-1.77,7.51,9.79,10.71,11.57,3.19,2.44-10.35-6.34-21.48-17.39-19.49-11.06,1.99-18.03,14.92-13.4,25.03,2.72,5.94,10.72,2.25,11.18-3.03s-2.78-9.89-7.4-12.13c-5.36-2.59-11.33-.99-16.41,1.43-10.28,4.88-18.6,14.6-15.55,26.57l10.03-5.84c-9.93-12.66-28.31-2.97-29.44,11.15-1.16,14.49,14.17,28.43,28.48,23.98,7.35-2.29,4.21-13.88-3.19-11.57h0Z"/>
    <path class="cls-1" d="M193.42,125.91c-.58,12.97,13.52,20.35,24.76,15.98s20.41-18.33,13.9-29.96c-3.77-6.74-14.14-.7-10.36,6.06,2.55,4.56-3.06,10.48-6.89,12.33s-9.64.79-9.41-4.4c.35-7.72-11.66-7.7-12,0h0Z"/>
    <path class="cls-1" d="M243.77,157.64c3.58-.29,6.59-1.95,8.53-5.01,1.57-2.48,2.2-6.02,1.08-8.79-.58-1.44-1.31-2.82-2.76-3.59s-3.05-1.06-4.62-.6c-4.39,1.26-6.97,4.94-7.35,9.37-.27,3.14,2.95,6.14,6,6,3.48-.16,5.71-2.64,6-6-.02.23-.26,1.35-.02.55l-.31.79c.27-.41.25-.4-.06.03-.5.78.47-.16-.3.35-.21.14-1.62.72-.77.48l-7.38-4.19c.04.1.34.75.27.86,0,0-.14-1.59-.15-.7.18-1.04.21-1.33.11-.85-.03.15-.07.29-.11.44-.07-.25.75-1.38.17-.46-.46.73-.25-.1.32-.35-.16.07-.93.87-.07.14s0-.14-.16,0l.87-.39c-.62.14-.38.12.7-.07-3.12.26-6.15,2.58-6,6,.14,3.03,2.65,6.27,6,6h0Z"/>
    <path class="cls-1" d="M296.14,112.72c-12.83-5.97-29.48,1.24-28.94,16.88.52,14.88,17.54,21.48,28.61,12.36,5.2-4.28-1.78-13.49-7.27-9.42-13.25,9.82-1.45,27.94,13.34,23.95,13.25-3.57,21.71-21.95,11.4-32.68-5.36-5.58-13.84,2.91-8.49,8.49,2.79,2.91.21,7.79-2.14,10.13-1.47,1.46-3.66,3.08-5.88,2.66-.48-.09-3.18-1.44-2.18-2.19-2.42-3.14-4.85-6.28-7.27-9.42-3.79,3.12-8.52-.95-8.11-5.12.53-5.26,6.42-7.34,10.86-5.27,6.96,3.24,13.06-7.1,6.06-10.36h0Z"/>
    <path class="cls-1" d="M260.78,158.09v1c-.04.83.14,1.6.51,2.31.24.74.66,1.39,1.24,1.93.54.59,1.19,1,1.93,1.24.72.38,1.49.55,2.31.52l1.6-.21c1.02-.29,1.9-.8,2.65-1.54l.94-1.21c.54-.94.82-1.95.82-3.03v-1c.04-.83-.14-1.6-.51-2.31-.24-.74-.66-1.39-1.24-1.93-.54-.59-1.19-1-1.93-1.24-.72-.38-1.49-.55-2.31-.52l-1.6.21c-1.02.29-1.9.8-2.65,1.54l-.94,1.21c-.54.94-.82,1.95-.82,3.03h0Z"/>
    <path class="cls-1" d="M169.01,163.94l1-1c.59-.54,1-1.19,1.24-1.93.38-.72.55-1.49.52-2.31.03-.83-.14-1.6-.52-2.31-.24-.74-.66-1.39-1.24-1.93l-1.21-.94c-.94-.54-1.95-.82-3.03-.82l-1.6.21c-1.02.29-1.9.8-2.65,1.54l-1,1c-.59.54-1,1.19-1.24,1.93-.38.72-.55,1.49-.52,2.31-.03.83.14,1.6.52,2.31.24.74.66,1.39,1.24,1.93l1.21.94c.94.54,1.95.82,3.03.82l1.6-.21c1.02-.29,1.9-.8,2.65-1.54h0Z"/>
    <path class="cls-1" d="M375.89,220.67c-.27.12-.56.22-.85.28.87-.09.96-.13.28-.12.86.13.96.12.29-.05.73.34.8.35.21.04.59.51.64.55.15.11-.45-.49-.41-.43.1.17-.32-.59-.3-.51.06.23.05.8.06.97.05.5,0-.46-.03-.3-.1.48.2-.64.16-.57-.11.21.36-.55.31-.5-.13.16.49-.44.43-.41-.17.09.59-.32.51-.31-.22.01.28-.1.57-.18.86-.23-.86.1-.95.15-.27.14-.48.04-.93-.07-1.33-.34,2.85,1.3,6.59.91,8.21-2.15,1.39-2.63.9-6.82-2.15-8.21-3.53-1.61-7.31-1.76-10.76.2s-5.74,5.36-5.8,9.2c-.13,7.27,7.79,13.63,14.88,10.86,2.91-1.14,5.26-4.07,4.19-7.38-.92-2.83-4.25-5.42-7.38-4.19h0Z"/>
    <path class="cls-1" d="M306.73,177.25c7.72,0,7.73-12,0-12s-7.73,12,0,12h0Z"/>
    <g>
      <path class="cls-5" d="M250.6,184.54c-.65-4.54-7.28-4.33-11.63-2.85-17.41,5.94-35.6,12.38-47.97,26-12.37,13.62-16.29,36.79-3.4,49.92,4.63,4.71,10.77,7.57,16.81,10.22,8.01,3.5,16.12,6.79,24.31,9.85,8.12,3.04,16.43,5.92,23.54,10.88s12.99,12.42,13.87,21.04c-.74-18.93,16.51-32.77,29.39-46.66,7.93-8.56,14.67-18.21,19.97-28.6,1.87-3.67,3.59-7.55,3.77-11.66.31-7.3-4.26-13.91-9.35-19.16-14.55-15.02-35.19-23.96-56.09-24.29,9.04,8.73,20.28,15.15,32.39,18.51-3.47-5.55-8.07-10.39-13.45-14.13,13.41-1.76,27.56,4.39,35.41,15.39s9.08,26.38,3.07,38.49c-2.67,5.38-6.58,10.02-10.46,14.61-9.65,11.43-19.3,22.85-28.94,34.28-1.08,1.28-2.23,2.61-3.78,3.25-2.4.99-5.13.1-7.5-.96-12.98-5.84-23.07-16.83-35.98-22.81-12.37-5.73-28.67-8.19-33.78-20.83-4.78-11.81,3.99-24.81,13.99-32.72,23.09-18.25,55.75-23.6,83.45-13.66,7.73,2.78,15.72,7.38,18.35,15.16,2.54,7.54-.69,15.68-3.87,22.98-4.23,9.71-8.58,19.6-15.64,27.49-7.07,7.89-17.45,13.57-27.97,12.31-5.54-.66-10.67-3.16-15.64-5.69-12.23-6.22-24.23-12.88-35.98-19.97-5.17-3.12-11.02-9.12-7.69-14.16,3.64-5.5,12.14-1.22,16.93,3.33,13.4,12.73,26.8,25.46,40.2,38.18-17.94-21.67-50.46-30.2-62.11-55.81.89-6.17,9.99-6.2,15.6-3.48,25.42,12.32,37.51,43.73,63.23,55.4-9.49-13.25-23.82-22.03-36.42-32.37s-24.36-23.97-25.13-40.25c30.71,8.66,42.45,48.39,71.46,61.69-13.72-23.78-40.72-37.45-54.91-60.95,10-1.86,18.32,7.14,24.92,14.87,12.35,14.47,26.3,27.59,41.5,39.04-12.1-13.33-24.21-26.66-36.31-39.99-5.94-6.54-12.3-14.44-10.8-23.15,17.73,15.43,35.46,30.87,53.19,46.3-11.9-11.71-23.81-23.41-35.71-35.12-2.24-2.21-3.74-7.09-.62-7.47,13.95,10.97,28.47,21.22,43.47,30.7-6.87-9.44-16.5-16.84-27.39-21.05,6.88,6.89,14.18,17.43,8.49,25.34-14.38.31-28.75.63-43.13.94-5.84.13-11.88.22-17.25-2.08-5.37-2.3-9.88-7.69-9.21-13.49,9.89,7.24,19.03,15.49,27.25,24.58-6.42-10.41-14.39-19.85-23.58-27.92"/>
      <path class="cls-5" d="M257.83,182.55c-4.56-17.39-28.66-5.68-38.77-1.53-14.76,6.05-29.3,14.25-38.37,27.83-8.14,12.18-11.36,28.91-5.72,42.74,6.74,16.52,24.26,22.38,39.55,28.57s41.64,11.23,44.39,31.44c1.15,8.46,14.86,6.29,14.73-1.99-.23-15.01,12.41-26.09,22.07-36,6.26-6.42,12.13-13.12,17.27-20.48s10.44-15.53,12.79-24.13c4.89-17.86-10.37-32.56-23.69-41.8-14.13-9.8-31.11-15.01-48.25-15.46-6.42-.17-10,8.37-5.3,12.8,10.17,9.6,22.26,16.55,35.7,20.44,6.1,1.76,12.06-5.47,8.47-11.02-4.35-6.72-9.65-12.14-16.14-16.82l-3.79,13.98c16.67-1.82,32.65,8.9,34.6,26.18,1.01,8.96-2.02,16.95-7.37,24.03-6.51,8.6-13.91,16.63-20.87,24.86-3.36,3.97-6.71,7.95-10.07,11.92-.98,1.16-2.72,4.34-4.23,4.85,1.48-.5-.1-.4-.81-.9-.99-.69-2.27-1.1-3.33-1.67-7.98-4.3-14.88-10.24-22.39-15.27s-15.02-7.95-23.12-10.97c-5.78-2.15-12.97-4.55-16.45-10.04-4.23-6.67,0-14.71,4.55-20,5.66-6.58,13.26-11.37,21.02-15.1,14.75-7.1,32.4-9.59,48.52-6.69,7.74,1.39,16.75,3.49,22.9,8.72,7.28,6.2,3.41,15.36.2,22.75-6.22,14.31-16.06,36.88-35.22,35.45-4.78-.36-9.23-2.67-13.43-4.8-5.28-2.68-10.52-5.46-15.71-8.31s-10.34-5.78-15.45-8.79c-2.15-1.27-4.46-2.44-6.44-3.96-.28-.21-3.32-3.78-3.37-3.78,1.16.07-1.46,2.75-1.9,2.1,0,0,1.86.31,2.07.38,1.65.56,3.2,1.8,4.51,2.91,4.68,3.94,8.96,8.48,13.39,12.7,9.09,8.64,18.18,17.27,27.28,25.91,7.1,6.74,16.78-3.31,10.61-10.61-9.24-10.91-21.5-18.55-33.24-26.45-11.07-7.46-21.85-15.47-27.7-27.84l.76,5.78c-.26,1.12-1.45-.24.37.28,1.25.36,2.6.17,3.9.64,3.25,1.17,6.37,3.38,9.13,5.42,6.56,4.85,12.1,11.07,17.45,17.17,10.91,12.44,21.65,25.7,36.96,32.89,6,2.82,15.18-3.59,10.26-10.26-9.76-13.26-22.99-22.18-35.69-32.34-11.4-9.12-23.76-21.01-24.84-36.48l-9.49,7.23c14.84,4.42,24.87,17.17,34.29,28.68,10.14,12.39,20.59,25.24,35.38,32.25,6.45,3.06,14.34-3.38,10.26-10.26-14.21-24-40.35-37.4-54.91-60.95l-4.48,11.02c5.07-.69,10.04,4.66,13.14,7.92,4.83,5.07,9.21,10.55,14.04,15.62,10.31,10.81,21.56,20.59,33.46,29.61,7.06,5.36,14.53-5.79,9.09-11.78-9.08-10-18.15-19.99-27.23-29.99-6.67-7.34-19.02-16.79-17.68-27.84l-12.8,5.3c17.73,15.43,35.46,30.87,53.19,46.3,7.21,6.28,17.57-3.76,10.61-10.61s-13.28-13.06-19.91-19.59c-3.2-3.15-6.41-6.3-9.61-9.46-1.6-1.57-3.24-3.12-4.81-4.73-.65-.43-1.16-.97-1.54-1.62-.75-2.42-2-.65-3.76,5.33l-7.3-1.93c14.49,11.34,29.45,22.01,44.99,31.87,6.02,3.82,14.85-4.13,10.26-10.26-8.37-11.19-18.9-19.28-31.87-24.5-7.31-2.94-12.13,7.58-7.3,12.54,3.51,3.6,10.75,10.79,7.32,16.25l6.48-3.71c-12.42.27-24.83.54-37.25.81-6.37.14-25.29,2.73-24.84-7.95l-11.29,6.48c9.35,6.91,17.9,14.82,25.73,23.41,5.73,6.28,16.3-1.87,11.78-9.09-6.85-10.93-15.12-20.86-24.75-29.44-7.19-6.41-17.83,4.17-10.61,10.61,8.72,7.77,16.21,16.51,22.41,26.41l11.78-9.09c-8.72-9.56-18.37-18.06-28.77-25.75-4.87-3.6-11.07,1.35-11.29,6.48-.49,11.47,9.06,20.09,19.7,22.21,11.82,2.35,24.82.63,36.8.37,6.2-.14,12.43-.14,18.62-.41,6.55-.28,10-4.18,11.15-10.56,1.92-10.65-5.38-20.44-12.38-27.62-2.43,4.18-4.86,8.36-7.3,12.54,8.99,3.62,17.1,9.85,22.9,17.6l10.26-10.26c-9.9-6.28-19.61-12.86-29.08-19.78-4.56-3.33-8.9-7.26-13.63-10.33s-11.27-.79-13.22,4.74c-3.45,9.77,7.7,17.58,13.6,23.38,8.7,8.55,17.4,17.11,26.09,25.66l10.61-10.61c-17.73-15.43-35.46-30.87-53.19-46.3-5.24-4.56-12.01-1.17-12.8,5.3-1.7,13.97,9.62,24.74,18.18,34.16,10.37,11.43,20.75,22.85,31.12,34.28l9.09-11.78c-13.23-10.03-25.44-21.43-36.47-33.83-9.81-11.02-19.43-23.06-35.73-20.83-4.83.66-6.76,7.32-4.48,11.02,14.61,23.64,40.79,37.11,54.91,60.95l10.26-10.26c-14.82-7.03-24.61-20.59-34.8-32.91-10.51-12.71-22.2-24.7-38.44-29.54-4.43-1.32-9.83,2.39-9.49,7.23,1.21,17.45,11.48,31.74,24.3,42.98,12.66,11.1,28.14,19.66,38.27,33.42l10.26-10.26c-25.22-11.85-36.46-40.76-60.77-54.13-5.89-3.24-12.7-5.14-19.37-3.28-7.6,2.12-11.87,9.75-8.37,16.96,5.89,12.12,16.66,20.96,27.46,28.55,12.25,8.61,25.45,16,35.25,27.57l10.61-10.61c-10.53-10-21.06-20-31.58-30-7.69-7.3-17.27-18.7-29.33-15.88-4.78,1.12-8.64,5.31-9.67,10.06-1.27,5.88,1.79,11.46,5.86,15.49,4.46,4.42,10.48,7.36,15.86,10.46,5.94,3.43,11.95,6.75,18.01,9.96,10.89,5.77,22.21,12.52,35,10.85,12-1.57,22.11-8.99,29.32-18.41s12.83-21.67,16.86-33.15,2.99-24.07-6.79-32.41c-16.94-14.43-44.38-15.86-65.26-11.87s-45.43,15.95-55.06,36.02c-5.05,10.52-4.59,22.61,3.33,31.6,6.44,7.32,16.13,10.56,25,13.85,10.87,4.03,19.62,10.47,28.98,17.14,8.63,6.15,22.17,16.08,32.19,7.24,5.51-4.87,10.04-11.55,14.79-17.17,5.03-5.96,10.07-11.92,15.1-17.88,9.18-10.88,17.09-21.64,17.68-36.39,1.08-26.98-22.89-49.34-49.74-46.4-7.52.82-10.04,9.47-3.79,13.98,4.3,3.1,7.88,7,10.76,11.44,2.82-3.67,5.65-7.34,8.47-11.02-10.96-3.17-20.78-8.74-29.08-16.58l-5.3,12.8c14.88.39,29.21,5.23,41.34,13.87,5.61,4,11.8,9.28,14.98,15.51,3.86,7.58-1.04,14.78-4.92,21.33-7.88,13.33-18.69,23.49-29.02,34.81-9.58,10.5-17.8,22.57-17.57,37.34l14.73-1.99c-1.96-14.39-13.83-24.78-26.33-30.62-14.14-6.61-29.26-10.92-43.36-17.68-5.76-2.76-11.38-6.07-14.29-12-2.27-4.63-2.71-10.16-1.95-15.22,1.91-12.84,10.48-22.59,21.2-29.25,6.4-3.98,13.3-7.04,20.35-9.68,3.47-1.3,6.97-2.54,10.49-3.72,1.19-.4,2.84-.56,3.92-1.15,2.21-1.22.96,2-.02-1.75,2.44,9.33,16.92,5.37,14.46-3.99h0Z"/>
    </g>
    <path class="cls-5" d="M219.01,210.81c-5.83-3.93-13.67-1.09-16.99,4.7s-2.26,14.66-2.34,21.33c-.08,7.51,10.22,10.12,13.98,3.79,4.44-7.48,5.61-16.18,3.44-24.59-1.97-7.63-12.05-6.59-14.46,0s-1.45,13.24,1.9,19.06,12.07,4.46,13.71-1.79c.21-.8.42-1.6.63-2.4,2.45-9.34-12.01-13.33-14.46-3.99-.21.8-.42,1.6-.63,2.4l13.71-1.79c-1.48-2.57-1.39-4.76-.39-7.5h-14.46c1.19,4.61.49,8.96-1.93,13.04l13.98,3.79c.04-3.36.07-6.71.11-10.07,0-.39.23-3.5.17-3.54-.32-.16-2.02,1.54-3.52.53,8.03,5.41,15.54-7.58,7.57-12.95h0Z"/>
    <path class="cls-2" d="M252.17,329.73c-47.41-1.08-103.64-10.39-128.16-56.6-24.36-45.92,11.36-93.77,46.11-122,18.81-15.28,40.57-27.59,64.25-33.31,21.06-5.09,42.91-3.94,63.5,2.69,20.01,6.44,38.37,17.94,52.92,33.12,15.37,16.03,28.57,38.36,29.42,61.03,1.12,30.18-20.3,54.57-42.03,72.72-11.25,9.4-23.06,18.32-35.55,26.01-5.92,3.64-12.03,7-18.38,9.84-3.22,1.44-6.51,2.71-9.85,3.83-1.64.55-3.3,1.1-4.97,1.55-.74.27-1.5.46-2.28.56-1.56-.12-1.29.79.83,2.73-.45-7.68-12.46-7.73-12,0,1.54,26.16,58.8-11.84,67.22-17.89,23.37-16.8,47.95-36.01,60.62-62.57,6.14-12.85,9.59-27.14,8.02-41.43s-6.58-27.22-13.44-39.31c-11.71-20.66-29.43-37.81-49.95-49.64s-44.28-18.62-68.07-18.49c-26.96.15-53.18,9.6-75.92,23.67-42.9,26.54-89.77,75.9-78.87,130.8,4.93,24.81,22.21,45.63,42.86,59.4,23.95,15.97,53.04,21.99,81.33,24.21,7.45.58,14.91.89,22.38,1.06s7.72-11.82,0-12h0Z"/>
    <path class="cls-2" d="M270.93,338.24c.83-14.6-4.02-28.95-13.11-40.34-9.88-12.39-23.96-18.23-38.76-22.62-13.25-3.93-29.46-7.77-37.56-20.17-9.13-13.98-.49-31.57,7.35-43.99,8.55-13.55,20.04-24.88,35.49-30.05,15.11-5.05,32.74-7.13,48.64-6.41,8.04.36,16.02,2.18,22.71,6.82,6.23,4.33,11.17,10.65,15.56,16.75,9.51,13.18,16.15,28.43,7.17,43.71-8.9,15.14-25.15,23.8-36.44,36.86-12.08,13.97-16.95,31.76-13.41,49.91,1.48,7.57,13.05,4.37,11.57-3.19-3.56-18.25,4.68-33.73,17.78-45.83,12.13-11.21,26.43-20.95,33.35-36.55,7.14-16.1,2.5-32.63-6.78-46.79-9.2-14.05-20.7-27.52-37.61-31.78s-34.9-1.6-51.37,1.36c-17.3,3.11-32.87,10.28-44.96,23.26-11.14,11.96-21.35,28.01-24.15,44.33-2.85,16.58,3.8,30.96,17.52,40.38,15.72,10.8,35.62,11.35,51.93,20.7,15.39,8.82,24.08,26.1,23.08,43.64-.44,7.72,11.56,7.69,12,0h0Z"/>
    <path class="cls-2" d="M212.67,175.91c1.55,12.68,3.1,25.36,4.65,38.04.93,7.57,12.94,7.66,12,0-1.55-12.68-3.1-25.36-4.65-38.04-.93-7.57-12.94-7.66-12,0h0Z"/>
    <path class="cls-2" d="M241.45,174.52c2.3,12.57,5.1,25.04,8.39,37.39,1.99,7.46,13.56,4.29,11.57-3.19-3.29-12.35-6.09-24.81-8.39-37.39-1.39-7.59-12.96-4.37-11.57,3.19h0Z"/>
    <path class="cls-2" d="M271.49,173.5c4.88,11.64,9.21,23.48,12.97,35.53,1.45,4.65,6.51,5.44,10.03,2.65l.26-.21c1.94-1.54,2.31-5.27.94-7.27-.78-1.14-1.53-2.08-2.79-2.71-2.91-1.48-6.46-.77-8.21,2.15l-.17.29c-3.97,6.64,6.4,12.69,10.36,6.06l.17-.29-8.21,2.15-1.51-1.59.94-7.27-.26.21,10.03,2.65c-3.77-12.05-8.09-23.89-12.97-35.53-1.26-3.01-3.96-5.09-7.38-4.19-2.83.75-5.44,4.39-4.19,7.38h0Z"/>
    <path class="cls-2" d="M216.46,244.9h1c.83.04,1.6-.14,2.31-.51.74-.24,1.39-.66,1.93-1.24.59-.54,1-1.19,1.24-1.93.38-.72.55-1.49.52-2.31l-.21-1.6c-.29-1.02-.8-1.9-1.54-2.65l-1.21-.94c-.94-.54-1.95-.82-3.03-.82h-1c-.83-.04-1.6.14-2.31.51-.74.24-1.39.66-1.93,1.24-.59.54-1,1.19-1.24,1.93-.38.72-.55,1.49-.52,2.31l.21,1.6c.29,1.02.8,1.9,1.54,2.65l1.21.94c.94.54,1.95.82,3.03.82h0Z"/>
    <path class="cls-2" d="M290.49,237.18c7.72,0,7.73-12,0-12s-7.73,12,0,12h0Z"/>
    <path class="cls-2" d="M123.06,106.86c-1.93,6.8,1.14,13.33,3.98,19.43,2.64,5.67,6.3,11.09,11.75,14.38,11.46,6.9,25.62.95,32.31-9.64h-10.36c3.26,6.8,6.76,13.48,10.56,20,2.71,4.64,5.9,13.08,11.56,14.68,2.81.79,5.16-.61,6.78-2.76,1.13-1.5,1.21-3.54.72-5.29-.74-2.64-3.12-4.28-5.79-4.4h-.28c-7.72-.38-7.7,11.62,0,11.99h.28c-1.93-1.45-3.86-2.92-5.79-4.39l.1.37.6-4.62-.22.29,6.78-2.76c2.53.71,1.01-.3,0-1.91-.67-1.06-1.33-2.13-1.98-3.21-1.63-2.69-3.22-5.4-4.75-8.14-2.92-5.21-5.64-10.52-8.22-15.91-2.04-4.26-8.13-3.53-10.36,0-3.53,5.6-11.1,9.03-16.91,4.63-2.67-2.02-4.36-5.15-5.81-8.09-1.56-3.16-4.38-7.92-3.38-11.46,2.11-7.44-9.47-10.62-11.57-3.19h0Z"/>
    <path class="cls-2" d="M336.82,89.09c3,14.07-10.83,23.7-23.46,18.71-2.85-1.13-6.83,1.25-7.38,4.19-1.46,7.74-2.92,15.47-4.38,23.21-.67,3.56-1.35,7.13-2.02,10.69-.58,3.07-1.39,5.94.55,8.7,1.38,1.97,4.23,3.8,6.78,2.76,2.26-.93,4.24-2.21,4.67-4.83.55-3.36-.84-6.24-4.19-7.38l-.29-.1c-7.32-2.5-10.47,9.08-3.19,11.57l.29.1-4.19-7.38-.08.48,4.19-4.19-.4.16,6.78,2.76c.34,1.68.56,1.86.66.55.11-.56.21-1.12.32-1.68.28-1.46.55-2.92.83-4.37.58-3.09,1.17-6.19,1.75-9.28,1.17-6.19,2.34-12.38,3.51-18.57l-7.38,4.19c21.79,8.63,42.94-11.35,38.22-33.47-1.61-7.55-13.18-4.35-11.57,3.19h0Z"/>
    <path class="cls-2" d="M347.14,70.4c7.72,0,7.73-12,0-12s-7.73,12,0,12h0Z"/>
    <path class="cls-2" d="M131.32,85.79l1-1c.59-.54,1-1.19,1.24-1.93.38-.72.55-1.49.52-2.31.03-.83-.14-1.6-.52-2.31-.24-.74-.66-1.39-1.24-1.93l-1.21-.94c-.94-.54-1.95-.82-3.03-.82l-1.6.21c-1.02.29-1.9.8-2.65,1.54l-1,1c-.59.54-1,1.19-1.24,1.93-.38.72-.55,1.49-.52,2.31-.03.83.14,1.6.52,2.31.24.74.66,1.39,1.24,1.93l1.21.94c.94.54,1.95.82,3.03.82l1.6-.21c1.02-.29,1.9-.8,2.65-1.54h0Z"/>
    <path class="cls-2" d="M270.84,334.88c1.79-4.94-2.68-9.63-7.58-9.11-5.24.56-10.52,5.96-14.18,9.47-7.81,7.48-18.05,19.65-16.11,31.29.83,4.97,4.03,9.64,8.86,11.46,5.7,2.15,11.32-.27,15.59-4.19,8.95-8.22,13.43-20.88,14.29-32.72l-11.79,1.6c3.58,8.83,9.28,16.29,17.39,21.44,8.2,5.2,19.97,8.06,27.72.5,7.03-6.85,4.76-16.84-2.52-22.35-4.14-3.14-9.11-4.97-13.84-7.02-5.89-2.55-11.82-5.02-17.77-7.41-7.16-2.88-10.28,8.72-3.19,11.57s13.6,5.58,20.31,8.57c2.4,1.07,11.9,4.43,8.52,8.16-3.71,4.09-12.38-1.54-15.53-4.02-4.16-3.27-7.54-7.72-9.53-12.63-2.51-6.18-11.28-5.47-11.79,1.6-.44,6.03-2.19,11.86-5.25,17.08-1.19,2.04-8.5,13.05-9.74,6.29-.95-5.16,5.3-12.38,8.35-15.97,1.77-2.08,3.68-4.04,5.7-5.88,1.24-1.12,2.51-2.21,3.85-3.22l1.33-.96c2.93-1.47,1.65-2.38-3.85-2.74l-.6-4.62-.23.62c-2.64,7.27,8.95,10.4,11.57,3.19h0Z"/>
    <path class="cls-2" d="M244.8,333.16c-8.38,10.69-19.88,17.95-33.07,21.16-12.27,2.99-28.33,2.83-39.37-4.14-3.84-2.42,3.88-4.33,2.98-4.98,2.02,1.45-1.64,4.43-2.58,5.1-6.39,4.53-15.55,6.34-23.21,6.3-15.25-.07-29.48-9.38-33.22-24.56-1.85-7.49-13.42-4.32-11.57,3.19,4.39,17.79,20.13,30.45,38.01,32.86,9.96,1.34,20.1-.22,29.34-4.08,7.49-3.13,15.49-8.36,15.65-17.4.14-8.25-7.2-15.01-15.45-12.58s-16.68,11.49-12.39,20.09c3.59,7.2,13.56,10.19,20.8,11.94,7.94,1.93,16.27,2.46,24.38,1.53,18.68-2.15,36.49-11.01,48.2-25.94,4.71-6.01-3.72-14.56-8.49-8.49h0Z"/>
    <path class="cls-2" d="M278.04,340.19c14.5,10.82,33.08,14.82,50.85,11.99,13.18-2.09,40.86-13.24,29.97-31.3-4.21-6.99-13.67-8.72-19.27-2.34-5.31,6.05-3.74,15.23,1.96,20.36,13.21,11.89,35.92,6.36,48.17-3.95,15.74-13.23,18.53-36.22,9.73-54.11-3.41-6.93-13.76-.86-10.36,6.06,6.24,12.68,4.02,29.05-6.74,38.61-4.65,4.13-10.7,6.88-16.88,7.67-5.36.69-14.53.43-17.18-5.17-.24-.51.12-1.39.48-1.78-.86.97.13.32.29,2.17.23,2.69-3.56,5.01-5.45,6.13-5.81,3.45-12.65,5.49-19.35,6.27-14.36,1.66-28.62-2.35-40.16-10.97-6.19-4.62-12.18,5.79-6.06,10.36h0Z"/>
    <path class="cls-2" d="M107.92,42.55c73.4-6.74,147.14-9.64,220.84-8.61,21.06.3,42.11.92,63.15,1.85,7.72.34,7.7-11.66,0-12-73.64-3.24-147.43-2.63-221,1.91-21.02,1.3-42.02,2.92-62.99,4.85-7.63.7-7.7,12.71,0,12h0Z"/>
    <path class="cls-2" d="M396.89,36.48c10.97,1.31,21.95.96,32.83-.99,8.09-1.45,17.45-4.53,19.83-13.45,1.92-7.21-1.96-15.01-7.92-19.08-6.62-4.53-15-3.66-21.16,1.25-14.36,11.44-8.81,31.37,4.31,41.03,16.33,12.02,38.35,8.56,56.35,2.86,7.8-2.47,17.05-5.27,21.58-12.7s1.44-16.3-5.6-20.51c-16.78-10.03-36.34,9.49-42.6,23.73-7,15.92-4.03,35.46,9.42,47.17,6.37,5.54,15.55,9.75,24.12,7.54,8.07-2.08,14.17-10.41,11.61-18.76-2.75-8.96-13.47-12.14-21.74-13.2s-17.27-.04-24.2,4.89c-8.94,6.35-10.04,16.51-10.67,26.69-.79,12.79-.89,25.61-.41,38.42.29,7.7,12.29,7.74,12,0-.53-14.08-.41-28.2.66-42.25.41-5.31,1.14-10.46,5.94-13.5,3.74-2.37,8.43-2.81,12.75-2.62,3.93.18,10.11.95,13.11,3.76,1.4,1.31,1.5,2.56-.04,3.96-2.26,2.04-6.16,1.15-8.65.18-9.66-3.73-15.66-14.41-15.77-24.46-.13-11.24,6.45-22.05,15.55-28.36,3.33-2.31,10.32-6.32,13.76-2.08s-5.44,7.59-8.24,8.61c-11.68,4.25-24.86,8.1-37.41,6.43-9.37-1.25-22.57-7.53-22.51-18.72.02-4.18,3.04-10.15,7.86-10.4,3.19-.17,7.16,3.56,6.32,6.95-1.22,4.96-12.54,5.37-16.43,5.82-8.2.96-16.46.79-24.66-.19-7.65-.91-7.59,11.09,0,12h0Z"/>
    <path class="cls-2" d="M107.84,435.7c-4-12.96-16.07-20.64-29.05-22.46-15.66-2.19-30.96,3.59-44.78,10.39-9.98,4.91-24.54,14.87-16.54,27.82,8.45,13.69,25.87,6.48,34.51-2.65,18.23-19.28,18.78-53.61-6.59-67.39-10.86-5.9-28.8-6.19-32.31,8.65s13.75,19.32,24.77,18.99c12.53-.37,26.33-6.33,29.41-19.66,1.79-7.73.26-16.27-.68-24.03-.87-7.19-1.49-14.32-1.5-21.58-.01-7.72-12.01-7.73-12,0,.01,8.17.89,16.16,1.82,24.26.84,7.37,3.65,18.53-2.64,24.19-5.07,4.56-13.11,5.42-19.62,4.64-2.14-.25-7.95-.88-7.91-3.78.06-4.61,7.44-3.84,10.16-3.11,17.15,4.64,22.26,25.47,15.49,40.15-2.86,6.19-11.42,19.06-19.75,16.9-10.41-2.71,6.79-11.73,9.43-13.03,10.15-5,21.3-9.48,32.8-9.25,9.45.18,20.38,4.34,23.4,14.15,2.27,7.36,13.86,4.22,11.57-3.19h0Z"/>
    <path class="cls-2" d="M132.03,421.61c-11.43-.85-23.38,1.2-34.47,3.79-10.16,2.37-25.41,6.22-26.5,18.82-1.01,11.66,10.91,21.54,22.18,18.79,11.81-2.88,17.05-16.36,14.6-27.31-1.69-7.53-13.26-4.35-11.57,3.19,1.09,4.86-1.99,14.44-8.63,12.41-2.17-.66-5.06-3.35-4.73-5.87.41-3.17,5.15-4.67,7.65-5.57,12.76-4.63,27.91-7.27,41.48-6.25,7.7.58,7.67-11.43,0-12h0Z"/>
    <path class="cls-2" d="M423.64,430.33c2.88-20.77,29.41-20.95,45.01-17.44,4.42.99,8.79,2.25,13.1,3.64,3.27,1.05,7.88,2.25,10.06,5.14s-.73,5.25-3.72,5.6c-4.61.55-9.48-2.88-12.85-5.66-12.85-10.62-18.38-30.09-6.96-43.89,2.55-3.08,5.82-5.66,9.6-7.04,2.16-.79,10.43-1.79,9.13,2.89-.79,2.83-6.67,4.01-9.03,4.56-3.56.83-7.39,1.13-11.03.62s-7.26-1.81-9.61-4.58c-3.34-3.94-3.3-9.87-3.7-14.75-1.04-12.77-1.4-25.59-1.17-38.4.14-7.72-11.86-7.73-12,0-.29,16.25-.77,33.82,2.51,49.82,2.63,12.84,13.73,19.54,26.2,20.08,10.56.46,27.12-3.11,29.68-15.27,1.32-6.29-2.43-12.79-7.93-15.77-6.25-3.39-13.76-2.19-19.93.72-11.62,5.47-19.11,17.62-20.69,30.12-1.66,13.16,3.7,26.28,12.66,35.81,8.67,9.21,24.21,18.17,35.87,8.78,4.96-4,7.2-10.49,4.95-16.58-2.02-5.47-7.06-9.02-12.2-11.29-14.34-6.34-32.19-10.19-47.8-7.77-14.46,2.24-29.57,11.95-31.73,27.49-.45,3.23.79,6.4,4.19,7.38,2.8.8,6.94-.98,7.38-4.19h0Z"/>
    <path class="cls-2" d="M398.33,428.7c7.61-1.06,15.4-1.19,23.05-.47,3.75.35,15.57.64,16.69,5.65.79,3.55-3.3,7.21-6.6,6.83-5.53-.63-7.87-7.25-7.6-11.97.43-7.72-11.57-7.69-12,0-.57,10.17,5.75,20.73,15.9,23.46,9.33,2.51,18.72-3.71,21.54-12.65,8.64-27.32-39.79-24.44-54.16-22.43-7.62,1.06-4.37,12.63,3.19,11.57h0Z"/>
    <path class="cls-2" d="M107.92,30.27c-6.94.78-13.91.97-20.87.39-5.57-.46-13.63-.71-18.32-4.1-3.13-2.27-1.67-6.14,1.15-8.1,3.53-2.45,7.43.12,9.42,3.3,6.06,9.68-4.15,19.48-12.68,22.68-12.05,4.53-25.45,1.69-37.33-1.96-4.79-1.47-10.21-2.81-14.34-5.75-5.43-3.86-1.41-8.23,4.25-7.13,10.8,2.1,19.56,14.78,21.96,24.76s-.95,21.53-9.15,28.19c-3.23,2.62-9.55,6.26-13.79,3.86-6-3.4,2.74-6.49,5.53-7.21,9.42-2.42,22.44-1.31,24.74,10.03,1.47,7.24,1.14,15.18,1.27,22.54.15,8.33,0,16.65-.37,24.98-.35,7.72,11.65,7.7,12,0,.51-11.2.58-22.41.12-33.62-.39-9.45-.11-20.07-6.52-27.72-9.7-11.59-30.36-11.75-42.7-4.55-7.12,4.15-10.54,12.71-6.03,20.14,4.98,8.2,15.26,9.49,23.65,6.34,16.23-6.09,25.76-23.95,23.73-40.86-2-16.6-15.37-35.84-32.85-38.76-8.32-1.39-17.83,2.68-20.25,11.35s3.61,15.68,10.77,19.43c8.38,4.38,18.33,7.06,27.58,8.77s19.82,2.24,29.32-.72c15.59-4.85,30.21-20.72,22.94-37.84-3.35-7.87-11.19-14.14-20.09-13.15-8.23.92-15.1,8.1-16.02,16.28-1.14,10.02,7.03,16.1,15.85,18.32,12.01,3.02,24.78,3.49,37.04,2.12,7.59-.85,7.68-12.86,0-12h0Z"/>
    <path class="cls-2" d="M132.03,433.61c73.16,3.26,146.48,2.7,219.58-1.71,21.49-1.3,42.97-2.94,64.41-4.89,7.63-.7,7.7-12.7,0-12-73.87,6.74-148.08,9.58-222.24,8.46-20.59-.31-41.18-.94-61.75-1.85-7.72-.34-7.7,11.66,0,12h0Z"/>
    <path class="cls-2" d="M442.65,131.35c1.29,68.21,1.21,136.41-3.01,204.53-.48,7.71,11.52,7.68,12,0,4.22-68.11,4.3-136.32,3.01-204.53-.15-7.71-12.15-7.74-12,0h0Z"/>
    <path class="cls-2" d="M49.38,136.74c-1.82,69.05-.06,138.09,3.69,207.04.42,7.68,12.42,7.73,12,0-3.75-68.96-5.51-137.99-3.69-207.04.2-7.72-11.8-7.72-12,0h0Z"/>
  </g>
</svg>